SplineFontDB: 3.2
FontName: FdSymbolB-Demi
FullName: FdSymbolB-Demi
FamilyName: FdSymbolB
Weight: Demi
Copyright: Copyright (c) 2011-2025, Michael Ummels. This Font Software is licensed under the SIL Open Font License, Version 1.1.
Version: 1.010
ItalicAngle: 0
UnderlinePosition: -100
UnderlineWidth: 50
Ascent: 800
Descent: 200
InvalidEm: 0
LayerCount: 2
Layer: 0 0 "Back" 1
Layer: 1 0 "Fore" 0
OS2Version: 0
OS2_WeightWidthSlopeOnly: 0
OS2_UseTypoMetrics: 0
CreationTime: 1739799030
ModificationTime: 1739799030
OS2TypoAscent: 0
OS2TypoAOffset: 1
OS2TypoDescent: 0
OS2TypoDOffset: 1
OS2TypoLinegap: 0
OS2WinAscent: 0
OS2WinAOffset: 1
OS2WinDescent: 0
OS2WinDOffset: 1
HheadAscent: 0
HheadAOffset: 1
HheadDescent: 0
HheadDOffset: 1
OS2Vendor: 'PfEd'
DEI: 91125
Encoding: Custom
UnicodeInterp: none
NameList: AGL For New Fonts
DisplaySize: -48
AntiAlias: 1
FitToEm: 0
BeginPrivate: 2
BlueValues 31 [-10 0 546 556 707 717 754 764]
OtherBlues 11 [-230 -220]
EndPrivate
BeginChars: 256 236

StartChar: equal
Encoding: 0 61 0
Width: 660
Flags: HW
HStem: 168 74<90 570> 358 74<90 570>
LayerCount: 2
Fore
SplineSet
90 358 m 1
 90 432 l 1
 570 432 l 1
 570 358 l 1
 90 358 l 1
90 168 m 1
 90 242 l 1
 570 242 l 1
 570 168 l 1
 90 168 l 1
EndSplineSet
EndChar

StartChar: uni2261
Encoding: 1 8801 1
Width: 660
Flags: HW
HStem: 73 74<90 570> 263 74<90 570> 453 74<90 570>
CounterMasks: 1 e0
LayerCount: 2
Fore
SplineSet
90 453 m 1
 90 527 l 1
 570 527 l 1
 570 453 l 1
 90 453 l 1
90 263 m 1
 90 337 l 1
 570 337 l 1
 570 263 l 1
 90 263 l 1
90 73 m 1
 90 147 l 1
 570 147 l 1
 570 73 l 1
 90 73 l 1
EndSplineSet
EndChar

StartChar: similar
Encoding: 2 8764 2
Width: 660
Flags: HW
HStem: 215 75<378.658 491.367> 310 75<168.633 281.342>
LayerCount: 2
Fore
SplineSet
438 215 m 0
 335 215 296 310 222 310 c 0
 186 310 159 282 133 256 c 1
 90 300 l 1
 129 339 168 385 222 385 c 0
 325 385 364 290 438 290 c 0
 474 290 501 318 527 344 c 1
 570 300 l 1
 531 261 492 215 438 215 c 0
EndSplineSet
EndChar

StartChar: uni223D
Encoding: 3 8765 3
Width: 660
Flags: HW
HStem: 215 75<168.633 281.342> 310 75<378.658 491.367>
LayerCount: 2
Fore
SplineSet
222 290 m 0
 296 290 335 385 438 385 c 0
 492 385 531 339 570 300 c 1
 527 256 l 1
 501 282 474 310 438 310 c 0
 364 310 325 215 222 215 c 0
 168 215 129 261 90 300 c 1
 133 344 l 1
 159 318 186 290 222 290 c 0
EndSplineSet
EndChar

StartChar: approxequal
Encoding: 4 8776 4
Width: 660
Flags: HW
HStem: 121 74<378.257 491.367> 215 75<168.633 282.591> 310 75<378.658 491.367> 405 75<168.633 281.342>
LayerCount: 2
Fore
SplineSet
438 310 m 0
 335 310 296 405 222 405 c 0
 186 405 159 377 133 351 c 1
 90 395 l 1
 129 434 168 480 222 480 c 0
 325 480 364 385 438 385 c 0
 474 385 501 413 527 439 c 1
 570 395 l 1
 531 356 492 310 438 310 c 0
438 121 m 0
 333 121 296 215 222 215 c 0
 186 215 159 187 133 161 c 1
 90 205 l 1
 129 244 168 290 222 290 c 0
 325 290 364 195 438 195 c 0
 474 195 501 223 527 249 c 1
 570 205 l 1
 531 166 492 121 438 121 c 0
EndSplineSet
EndChar

StartChar: uni224B
Encoding: 5 8779 5
Width: 660
Flags: HW
HStem: 26 74<378.145 491.367> 121 74<168.633 280.716> 215 75<378.658 491.367> 310 75<168.633 281.342> 405 75<377.409 491.367> 500 74<168.633 281.743>
LayerCount: 2
Fore
SplineSet
438 405 m 0
 335 405 296 500 222 500 c 0
 186 500 159 472 133 446 c 1
 90 490 l 1
 129 529 168 574 222 574 c 0
 327 574 364 480 438 480 c 0
 474 480 501 508 527 534 c 1
 570 490 l 1
 531 451 492 405 438 405 c 0
438 215 m 0
 335 215 296 310 222 310 c 0
 186 310 159 282 133 256 c 1
 90 300 l 1
 129 339 168 385 222 385 c 0
 325 385 364 290 438 290 c 0
 474 290 501 318 527 344 c 1
 570 300 l 1
 531 261 492 215 438 215 c 0
438 26 m 0
 333 26 294 121 222 121 c 0
 186 121 159 92 133 66 c 1
 90 110 l 1
 129 149 168 195 222 195 c 0
 325 195 364 100 438 100 c 0
 474 100 501 128 527 154 c 1
 570 110 l 1
 531 71 492 26 438 26 c 0
EndSplineSet
EndChar

StartChar: uni2243
Encoding: 6 8771 6
Width: 660
Flags: HW
HStem: 168 74<90 570> 310 75<378.658 491.367> 405 75<168.633 281.342>
LayerCount: 2
Fore
SplineSet
438 310 m 0
 335 310 296 405 222 405 c 0
 186 405 159 377 133 351 c 1
 90 395 l 1
 129 434 168 480 222 480 c 0
 325 480 364 385 438 385 c 0
 474 385 501 413 527 439 c 1
 570 395 l 1
 531 356 492 310 438 310 c 0
90 168 m 1
 90 242 l 1
 570 242 l 1
 570 168 l 1
 90 168 l 1
EndSplineSet
EndChar

StartChar: uni22CD
Encoding: 7 8909 7
Width: 660
Flags: HW
HStem: 168 74<90 570> 310 75<168.633 281.342> 405 75<378.658 491.367>
LayerCount: 2
Fore
SplineSet
222 385 m 0
 296 385 335 480 438 480 c 0
 492 480 531 434 570 395 c 1
 527 351 l 1
 501 377 474 405 438 405 c 0
 364 405 325 310 222 310 c 0
 168 310 129 356 90 395 c 1
 133 439 l 1
 159 413 186 385 222 385 c 0
570 242 m 1
 570 168 l 1
 90 168 l 1
 90 242 l 1
 570 242 l 1
EndSplineSet
EndChar

StartChar: uni2242
Encoding: 8 8770 8
Width: 660
Flags: HW
HStem: 121 74<378.257 491.367> 215 75<168.633 282.591> 358 74<90 570>
LayerCount: 2
Fore
SplineSet
90 358 m 1
 90 432 l 1
 570 432 l 1
 570 358 l 1
 90 358 l 1
438 121 m 0
 333 121 296 215 222 215 c 0
 186 215 159 187 133 161 c 1
 90 205 l 1
 129 244 168 290 222 290 c 0
 325 290 364 195 438 195 c 0
 474 195 501 223 527 249 c 1
 570 205 l 1
 531 166 492 121 438 121 c 0
EndSplineSet
EndChar

StartChar: congruent
Encoding: 9 8773 9
Width: 660
Flags: HW
HStem: 73 74<90 570> 263 74<90 570> 405 75<377.409 491.367> 500 74<168.633 281.743>
LayerCount: 2
Fore
SplineSet
438 405 m 0
 335 405 296 500 222 500 c 0
 186 500 159 472 133 446 c 1
 90 490 l 1
 129 529 168 574 222 574 c 0
 327 574 364 480 438 480 c 0
 474 480 501 508 527 534 c 1
 570 490 l 1
 531 451 492 405 438 405 c 0
90 263 m 1
 90 337 l 1
 570 337 l 1
 570 263 l 1
 90 263 l 1
90 73 m 1
 90 147 l 1
 570 147 l 1
 570 73 l 1
 90 73 l 1
EndSplineSet
EndChar

StartChar: uni224C
Encoding: 10 8780 10
Width: 660
Flags: HW
HStem: 73 74<90 570> 263 74<90 570> 405 75<168.633 282.591> 500 74<378.257 491.367>
LayerCount: 2
Fore
SplineSet
222 480 m 0
 296 480 333 574 438 574 c 0
 492 574 531 529 570 490 c 1
 527 446 l 1
 501 472 474 500 438 500 c 0
 364 500 325 405 222 405 c 0
 168 405 129 451 90 490 c 1
 133 534 l 1
 159 508 186 480 222 480 c 0
570 337 m 1
 570 263 l 1
 90 263 l 1
 90 337 l 1
 570 337 l 1
570 147 m 1
 570 73 l 1
 90 73 l 1
 90 147 l 1
 570 147 l 1
EndSplineSet
EndChar

StartChar: uni224A
Encoding: 11 8778 11
Width: 660
Flags: HW
HStem: 73 74<90 570> 215 75<378.658 491.367> 310 75<168.633 281.342> 405 75<377.409 491.367> 500 74<168.633 281.743>
LayerCount: 2
Fore
SplineSet
438 405 m 0
 335 405 296 500 222 500 c 0
 186 500 159 472 133 446 c 1
 90 490 l 1
 129 529 168 574 222 574 c 0
 327 574 364 480 438 480 c 0
 474 480 501 508 527 534 c 1
 570 490 l 1
 531 451 492 405 438 405 c 0
438 215 m 0
 335 215 296 310 222 310 c 0
 186 310 159 282 133 256 c 1
 90 300 l 1
 129 339 168 385 222 385 c 0
 325 385 364 290 438 290 c 0
 474 290 501 318 527 344 c 1
 570 300 l 1
 531 261 492 215 438 215 c 0
90 73 m 1
 90 147 l 1
 570 147 l 1
 570 73 l 1
 90 73 l 1
EndSplineSet
EndChar

StartChar: uni224F
Encoding: 12 8783 12
Width: 660
Flags: HW
HStem: 168 74<90 570> 358 74<90 209.592 450.408 570> 454 74<284.157 375.843>
LayerCount: 2
Fore
SplineSet
90 432 m 1
 202 432 l 1
 218 487 269 528 330 528 c 0
 391 528 442 487 458 432 c 1
 570 432 l 1
 570 358 l 1
 389 358 l 1
 389 395 l 2
 389 428 363 454 330 454 c 0
 297 454 271 428 271 395 c 2
 271 358 l 1
 90 358 l 1
 90 432 l 1
90 168 m 1
 90 242 l 1
 570 242 l 1
 570 168 l 1
 90 168 l 1
EndSplineSet
EndChar

StartChar: uni2AAE
Encoding: 13 10926 13
Width: 660
Flags: HW
HStem: 73 74<90 570> 263 74<90 570> 453 74<90 209.592 450.408 570> 549 74<284.157 375.843>
LayerCount: 2
Fore
SplineSet
90 527 m 1
 202 527 l 1
 218 582 269 623 330 623 c 0
 391 623 442 582 458 527 c 1
 570 527 l 1
 570 453 l 1
 389 453 l 1
 389 490 l 2
 389 523 363 549 330 549 c 0
 297 549 271 523 271 490 c 2
 271 453 l 1
 90 453 l 1
 90 527 l 1
90 263 m 1
 90 337 l 1
 570 337 l 1
 570 263 l 1
 90 263 l 1
90 73 m 1
 90 147 l 1
 570 147 l 1
 570 73 l 1
 90 73 l 1
EndSplineSet
EndChar

StartChar: uni224E
Encoding: 14 8782 14
Width: 660
Flags: HW
HStem: 72 74<284.157 375.843> 168 74<90 209.592 450.408 570> 358 74<90 209.592 450.408 570> 454 74<284.157 375.843>
VStem: 90 181<168.399 242 358 431.601> 389 181<168.399 242 358 431.601>
LayerCount: 2
Fore
SplineSet
90 432 m 1
 202 432 l 1
 218 487 269 528 330 528 c 0
 391 528 442 487 458 432 c 1
 570 432 l 1
 570 358 l 1
 389 358 l 1
 389 395 l 2
 389 428 363 454 330 454 c 0
 297 454 271 428 271 395 c 2
 271 358 l 1
 90 358 l 1
 90 432 l 1
90 168 m 1
 90 242 l 1
 271 242 l 1
 271 205 l 2
 271 172 297 146 330 146 c 0
 363 146 389 172 389 205 c 2
 389 242 l 1
 570 242 l 1
 570 168 l 1
 458 168 l 1
 442 113 391 72 330 72 c 0
 269 72 218 113 202 168 c 1
 90 168 l 1
EndSplineSet
EndChar

StartChar: uni2250
Encoding: 15 8784 15
Width: 660
Flags: HW
HStem: 168 74<90 570> 358 74<90 570> 522 126<295.599 364.401>
VStem: 267 126<550.599 619.401>
LayerCount: 2
Fore
SplineSet
90 358 m 1
 90 432 l 1
 570 432 l 1
 570 358 l 1
 90 358 l 1
90 168 m 1
 90 242 l 1
 570 242 l 1
 570 168 l 1
 90 168 l 1
330 648 m 0
 348 648 393 603 393 585 c 0
 393 567 348 522 330 522 c 0
 312 522 267 567 267 585 c 0
 267 603 312 648 330 648 c 0
EndSplineSet
EndChar

StartChar: uni2A66
Encoding: 16 10854 16
Width: 660
Flags: HW
HStem: -48 126<295.599 364.401> 168 74<90 570> 358 74<90 570>
VStem: 267 126<-19.4012 49.4012>
LayerCount: 2
Fore
SplineSet
90 358 m 1
 90 432 l 1
 570 432 l 1
 570 358 l 1
 90 358 l 1
90 168 m 1
 90 242 l 1
 570 242 l 1
 570 168 l 1
 90 168 l 1
330 78 m 0
 348 78 393 33 393 15 c 0
 393 -3 348 -48 330 -48 c 0
 312 -48 267 -3 267 15 c 0
 267 33 312 78 330 78 c 0
EndSplineSet
EndChar

StartChar: uni2251
Encoding: 17 8785 17
Width: 660
Flags: HW
HStem: -48 126<295.599 364.401> 168 74<90 570> 358 74<90 570> 522 126<295.599 364.401>
VStem: 267 126<-19.4012 49.4012 550.599 619.401>
LayerCount: 2
Fore
SplineSet
90 358 m 1
 90 432 l 1
 570 432 l 1
 570 358 l 1
 90 358 l 1
90 168 m 1
 90 242 l 1
 570 242 l 1
 570 168 l 1
 90 168 l 1
330 648 m 0
 348 648 393 603 393 585 c 0
 393 567 348 522 330 522 c 0
 312 522 267 567 267 585 c 0
 267 603 312 648 330 648 c 0
330 78 m 0
 348 78 393 33 393 15 c 0
 393 -3 348 -48 330 -48 c 0
 312 -48 267 -3 267 15 c 0
 267 33 312 78 330 78 c 0
EndSplineSet
EndChar

StartChar: uni2252
Encoding: 18 8786 18
Width: 660
Flags: HW
HStem: -48 126<472.599 541.401> 168 74<90 570> 358 74<90 570> 522 126<118.599 187.401>
VStem: 90 126<550.599 619.401> 444 126<-19.4012 49.4012>
LayerCount: 2
Fore
SplineSet
90 358 m 1
 90 432 l 1
 570 432 l 1
 570 358 l 1
 90 358 l 1
90 168 m 1
 90 242 l 1
 570 242 l 1
 570 168 l 1
 90 168 l 1
153 648 m 0
 171 648 216 603 216 585 c 0
 216 567 171 522 153 522 c 0
 135 522 90 567 90 585 c 0
 90 603 135 648 153 648 c 0
507 78 m 0
 525 78 570 33 570 15 c 0
 570 -3 525 -48 507 -48 c 0
 489 -48 444 -3 444 15 c 0
 444 33 489 78 507 78 c 0
EndSplineSet
EndChar

StartChar: uni2253
Encoding: 19 8787 19
Width: 660
Flags: HW
HStem: -48 126<118.599 187.401> 168 74<90 570> 358 74<90 570> 522 126<472.599 541.401>
VStem: 90 126<-19.4012 49.4012> 444 126<550.599 619.401>
LayerCount: 2
Fore
SplineSet
570 432 m 1
 570 358 l 1
 90 358 l 1
 90 432 l 1
 570 432 l 1
570 242 m 1
 570 168 l 1
 90 168 l 1
 90 242 l 1
 570 242 l 1
507 648 m 0
 525 648 570 603 570 585 c 0
 570 567 525 522 507 522 c 0
 489 522 444 567 444 585 c 0
 444 603 489 648 507 648 c 0
153 78 m 0
 171 78 216 33 216 15 c 0
 216 -3 171 -48 153 -48 c 0
 135 -48 90 -3 90 15 c 0
 90 33 135 78 153 78 c 0
EndSplineSet
EndChar

StartChar: uni2254
Encoding: 20 8788 20
Width: 883
Flags: HW
HStem: 142 126<118.599 187.401> 168 74<313 793> 332 126<118.599 187.401> 358 74<313 793>
VStem: 90 126<170.599 239.401 360.599 429.401>
LayerCount: 2
Fore
SplineSet
153 458 m 0x28
 171 458 216 413 216 395 c 0
 216 377 171 332 153 332 c 0
 135 332 90 377 90 395 c 0
 90 413 135 458 153 458 c 0x28
153 268 m 0x88
 171 268 216 223 216 205 c 0
 216 187 171 142 153 142 c 0
 135 142 90 187 90 205 c 0
 90 223 135 268 153 268 c 0x88
313 358 m 1x18
 313 432 l 1
 793 432 l 1
 793 358 l 1
 313 358 l 1x18
313 168 m 1x48
 313 242 l 1
 793 242 l 1
 793 168 l 1
 313 168 l 1x48
EndSplineSet
EndChar

StartChar: uni2255
Encoding: 21 8789 21
Width: 883
Flags: HW
HStem: 142 126<695.599 764.401> 168 74<90 570> 332 126<695.599 764.401> 358 74<90 570>
VStem: 667 126<170.599 239.401 360.599 429.401>
LayerCount: 2
Fore
SplineSet
730 458 m 0x28
 748 458 793 413 793 395 c 0
 793 377 748 332 730 332 c 0
 712 332 667 377 667 395 c 0
 667 413 712 458 730 458 c 0x28
730 268 m 0x88
 748 268 793 223 793 205 c 0
 793 187 748 142 730 142 c 0
 712 142 667 187 667 205 c 0
 667 223 712 268 730 268 c 0x88
570 432 m 1x18
 570 358 l 1
 90 358 l 1
 90 432 l 1
 570 432 l 1x18
570 242 m 1x48
 570 168 l 1
 90 168 l 1
 90 242 l 1
 570 242 l 1x48
EndSplineSet
EndChar

StartChar: uni2323
Encoding: 22 8995 22
Width: 660
Flags: HW
HStem: 215 75<233.322 426.678>
LayerCount: 2
Fore
SplineSet
142 374 m 1
 193 324 259 290 330 290 c 0
 401 290 467 324 518 374 c 1
 570 321 l 1
 505 257 421 215 330 215 c 0
 239 215 155 257 90 321 c 1
 142 374 l 1
EndSplineSet
EndChar

StartChar: uni2322
Encoding: 23 8994 23
Width: 660
Flags: HW
HStem: 310 75<233.322 426.678>
LayerCount: 2
Fore
SplineSet
142 226 m 1
 90 279 l 1
 155 343 239 385 330 385 c 0
 421 385 505 343 570 279 c 1
 518 226 l 1
 467 276 401 310 330 310 c 0
 259 310 193 276 142 226 c 1
EndSplineSet
EndChar

StartChar: uni224D
Encoding: 24 8781 24
Width: 660
Flags: HW
HStem: 184 74<233.322 426.678> 342 74<233.322 426.678>
LayerCount: 2
Fore
SplineSet
142 500 m 1
 193 450 259 416 330 416 c 0
 401 416 467 450 518 500 c 1
 570 448 l 1
 505 384 421 342 330 342 c 0
 239 342 155 384 90 448 c 1
 142 500 l 1
142 100 m 1
 90 152 l 1
 155 216 239 258 330 258 c 0
 421 258 505 216 570 152 c 1
 518 100 l 1
 467 150 401 184 330 184 c 0
 259 184 193 150 142 100 c 1
EndSplineSet
EndChar

StartChar: uni2050
Encoding: 25 8272 25
Width: 660
Flags: HW
HStem: 89 74<233.322 426.678> 437 74<233.322 426.678>
LayerCount: 2
Fore
SplineSet
142 353 m 1
 90 405 l 1
 155 469 239 511 330 511 c 0
 421 511 505 469 570 405 c 1
 518 353 l 1
 467 403 401 437 330 437 c 0
 259 437 193 403 142 353 c 1
142 247 m 1
 193 197 259 163 330 163 c 0
 401 163 467 197 518 247 c 1
 570 195 l 1
 505 131 421 89 330 89 c 0
 239 89 155 131 90 195 c 1
 142 247 l 1
EndSplineSet
EndChar

StartChar: sym020
Encoding: 26 -1 26
Width: 660
Flags: HW
HStem: 73 74<90 570> 263 74<90 570> 405 75<233.322 426.678>
LayerCount: 2
Fore
SplineSet
142 564 m 1
 193 514 259 480 330 480 c 0
 401 480 467 514 518 564 c 1
 570 511 l 1
 505 447 421 405 330 405 c 0
 239 405 155 447 90 511 c 1
 142 564 l 1
90 263 m 1
 90 337 l 1
 570 337 l 1
 570 263 l 1
 90 263 l 1
90 73 m 1
 90 147 l 1
 570 147 l 1
 570 73 l 1
 90 73 l 1
EndSplineSet
EndChar

StartChar: uni2258
Encoding: 27 8792 27
Width: 660
Flags: HW
HStem: 73 74<90 570> 263 74<90 570> 500 74<233.322 426.678>
LayerCount: 2
Fore
SplineSet
142 416 m 1
 90 469 l 1
 155 533 239 574 330 574 c 0
 421 574 505 533 570 469 c 1
 518 416 l 1
 467 466 401 500 330 500 c 0
 259 500 193 466 142 416 c 1
90 263 m 1
 90 337 l 1
 570 337 l 1
 570 263 l 1
 90 263 l 1
90 73 m 1
 90 147 l 1
 570 147 l 1
 570 73 l 1
 90 73 l 1
EndSplineSet
EndChar

StartChar: uni2256
Encoding: 28 8790 28
Width: 660
Flags: HW
HStem: 168 81<288.177 371.823> 168 74<90 240 420 570> 351 81<288.177 371.823> 358 74<90 240 420 570>
VStem: 223 56<258.122 341.878> 381 56<258.122 341.878>
LayerCount: 2
Fore
SplineSet
90 168 m 1x5c
 90 242 l 1
 240 242 l 1
 229 259 223 280 223 300 c 0
 223 320 229 341 240 358 c 1
 90 358 l 1
 90 432 l 1
 570 432 l 1
 570 358 l 1
 420 358 l 1
 431 341 437 320 437 300 c 0
 437 280 431 259 420 242 c 1
 570 242 l 1
 570 168 l 1
 90 168 l 1x5c
330 249 m 0xac
 359 249 381 271 381 300 c 0
 381 329 359 351 330 351 c 0
 301 351 279 329 279 300 c 0
 279 271 301 249 330 249 c 0xac
EndSplineSet
EndChar

StartChar: uni2257
Encoding: 29 8791 29
Width: 660
Flags: HW
HStem: 168 74<90 570> 358 74<90 570> 526 55<288.563 371.437> 684 55<288.547 371.453>
VStem: 223 56<590.362 674.755> 381 56<590.362 673.386>
LayerCount: 2
Fore
SplineSet
90 358 m 1
 90 432 l 1
 570 432 l 1
 570 358 l 1
 90 358 l 1
90 168 m 1
 90 242 l 1
 570 242 l 1
 570 168 l 1
 90 168 l 1
330 739 m 0
 388 739 437 694 437 632 c 0
 437 573 389 526 330 526 c 0
 271 526 223 573 223 632 c 0
 223 694 272 739 330 739 c 0
330 581 m 0
 357 581 381 603 381 632 c 0
 381 663 356 684 330 684 c 0
 304 684 279 664 279 632 c 0
 279 603 303 581 330 581 c 0
EndSplineSet
EndChar

StartChar: uni2259
Encoding: 30 8793 30
Width: 660
Flags: HW
HStem: 168 74<90 570> 358 74<90 570>
LayerCount: 2
Fore
SplineSet
90 358 m 1
 90 432 l 1
 570 432 l 1
 570 358 l 1
 90 358 l 1
90 168 m 1
 90 242 l 1
 570 242 l 1
 570 168 l 1
 90 168 l 1
532 535 m 1
 473 490 l 1
 330 677 l 1
 187 490 l 1
 128 535 l 1
 312 775 l 1
 348 775 l 1
 532 535 l 1
EndSplineSet
EndChar

StartChar: uni225A
Encoding: 31 8794 31
Width: 660
Flags: HW
HStem: 168 74<90 570> 358 74<90 570>
LayerCount: 2
Fore
SplineSet
90 358 m 1
 90 432 l 1
 570 432 l 1
 570 358 l 1
 90 358 l 1
90 168 m 1
 90 242 l 1
 570 242 l 1
 570 168 l 1
 90 168 l 1
128 730 m 1
 187 775 l 1
 330 588 l 1
 473 775 l 1
 532 730 l 1
 348 490 l 1
 312 490 l 1
 128 730 l 1
EndSplineSet
EndChar

StartChar: uni225B
Encoding: 32 8795 32
Width: 660
Flags: HW
HStem: 168 74<90 570> 358 74<90 570>
LayerCount: 2
Fore
SplineSet
90 358 m 1
 90 432 l 1
 570 432 l 1
 570 358 l 1
 90 358 l 1
90 168 m 1
 90 242 l 1
 570 242 l 1
 570 168 l 1
 90 168 l 1
330 807 m 1
 371 689 l 1
 496 686 l 1
 396 611 l 1
 432 492 l 1
 330 563 l 1
 228 492 l 1
 264 611 l 1
 164 686 l 1
 289 689 l 1
 330 807 l 1
EndSplineSet
EndChar

StartChar: uni225C
Encoding: 33 8796 33
Width: 660
Flags: HW
HStem: 168 74<90 570> 358 74<90 570> 533 56<255 405>
LayerCount: 2
Fore
SplineSet
90 358 m 1
 90 432 l 1
 570 432 l 1
 570 358 l 1
 90 358 l 1
90 168 m 1
 90 242 l 1
 570 242 l 1
 570 168 l 1
 90 168 l 1
330 830 m 1
 501 533 l 1
 159 533 l 1
 330 830 l 1
330 719 m 1
 255 589 l 1
 405 589 l 1
 330 719 l 1
EndSplineSet
EndChar

StartChar: element
Encoding: 34 8712 34
Width: 660
Flags: HW
HStem: 26 74<249.717 570> 263 74<167 570> 500 74<249.717 570>
VStem: 90 77<196.438 263 337 403.562>
CounterMasks: 1 e0
LayerCount: 2
Fore
SplineSet
570 500 m 1
 322 500 l 2
 238 500 180 426 167 337 c 1
 570 337 l 1
 570 263 l 1
 167 263 l 1
 180 174 238 100 322 100 c 2
 570 100 l 1
 570 26 l 1
 322 26 l 2
 185 26 90 156 90 300 c 0
 90 444 185 574 322 574 c 2
 570 574 l 1
 570 500 l 1
EndSplineSet
EndChar

StartChar: uni220B
Encoding: 35 8715 35
Width: 660
Flags: HW
HStem: 26 74<90 410.283> 263 74<90 493> 500 74<90 410.283>
VStem: 493 77<196.438 263 337 403.562>
CounterMasks: 1 e0
LayerCount: 2
Fore
SplineSet
90 100 m 1
 338 100 l 2
 422 100 480 174 493 263 c 1
 90 263 l 1
 90 337 l 1
 493 337 l 1
 480 426 422 500 338 500 c 2
 90 500 l 1
 90 574 l 1
 338 574 l 2
 475 574 570 444 570 300 c 0
 570 156 475 26 338 26 c 2
 90 26 l 1
 90 100 l 1
EndSplineSet
EndChar

StartChar: less
Encoding: 36 60 36
Width: 660
Flags: HW
LayerCount: 2
Fore
SplineSet
535 561 m 1
 570 496 l 1
 205 300 l 1
 570 104 l 1
 535 39 l 1
 90 278 l 1
 90 322 l 1
 535 561 l 1
EndSplineSet
EndChar

StartChar: greater
Encoding: 37 62 37
Width: 660
Flags: HW
LayerCount: 2
Fore
SplineSet
125 39 m 1
 90 104 l 1
 455 300 l 1
 90 496 l 1
 125 561 l 1
 570 322 l 1
 570 278 l 1
 125 39 l 1
EndSplineSet
EndChar

StartChar: lessequal
Encoding: 38 8804 38
Width: 660
Flags: HW
HStem: 22 74<90 570>
LayerCount: 2
Fore
SplineSet
542 570 m 1
 570 502 l 1
 226 363 l 1
 570 225 l 1
 542 156 l 1
 90 338 l 1
 90 388 l 1
 542 570 l 1
90 22 m 1
 90 96 l 1
 570 96 l 1
 570 22 l 1
 90 22 l 1
EndSplineSet
EndChar

StartChar: greaterequal
Encoding: 39 8805 39
Width: 660
Flags: HW
HStem: 22 74<90 570>
LayerCount: 2
Fore
SplineSet
118 156 m 1
 90 225 l 1
 434 363 l 1
 90 502 l 1
 118 570 l 1
 570 388 l 1
 570 338 l 1
 118 156 l 1
570 96 m 1
 570 22 l 1
 90 22 l 1
 90 96 l 1
 570 96 l 1
EndSplineSet
EndChar

StartChar: uni2A7D
Encoding: 40 10877 40
Width: 660
Flags: HW
HStem: -2 21G<492.33 550.116>
LayerCount: 2
Fore
SplineSet
542 602 m 1
 570 533 l 1
 226 395 l 1
 570 257 l 1
 542 188 l 1
 90 370 l 1
 90 420 l 1
 542 602 l 1
570 67 m 1
 542 -2 l 1
 90 180 l 1
 118 249 l 1
 570 67 l 1
EndSplineSet
EndChar

StartChar: uni2A7E
Encoding: 41 10878 41
Width: 660
Flags: HW
HStem: -2 21G<109.884 167.67>
LayerCount: 2
Fore
SplineSet
118 188 m 1
 90 257 l 1
 434 395 l 1
 90 533 l 1
 118 602 l 1
 570 420 l 1
 570 370 l 1
 118 188 l 1
118 -2 m 1
 90 67 l 1
 542 249 l 1
 570 180 l 1
 118 -2 l 1
EndSplineSet
EndChar

StartChar: uni2266
Encoding: 42 8806 42
Width: 660
Flags: HW
HStem: -73 74<90 570> 117 74<90 570>
LayerCount: 2
Fore
SplineSet
542 665 m 1
 570 597 l 1
 226 458 l 1
 570 320 l 1
 542 251 l 1
 90 433 l 1
 90 483 l 1
 542 665 l 1
90 117 m 1
 90 191 l 1
 570 191 l 1
 570 117 l 1
 90 117 l 1
90 -73 m 1
 90 1 l 1
 570 1 l 1
 570 -73 l 1
 90 -73 l 1
EndSplineSet
EndChar

StartChar: uni2267
Encoding: 43 8807 43
Width: 660
Flags: HW
HStem: -73 74<90 570> 117 74<90 570>
LayerCount: 2
Fore
SplineSet
118 251 m 1
 90 320 l 1
 434 458 l 1
 90 597 l 1
 118 665 l 1
 570 483 l 1
 570 433 l 1
 118 251 l 1
570 191 m 1
 570 117 l 1
 90 117 l 1
 90 191 l 1
 570 191 l 1
570 1 m 1
 570 -73 l 1
 90 -73 l 1
 90 1 l 1
 570 1 l 1
EndSplineSet
EndChar

StartChar: uni2272
Encoding: 44 8818 44
Width: 660
Flags: HW
HStem: -10 74<377.327 491.367> 85 74<168.633 280.788>
LayerCount: 2
Fore
SplineSet
542 602 m 1
 570 533 l 1
 226 395 l 1
 570 257 l 1
 542 188 l 1
 90 370 l 1
 90 420 l 1
 542 602 l 1
438 -10 m 0
 335 -10 293 85 222 85 c 0
 186 85 159 56 133 31 c 1
 90 74 l 1
 129 113 168 159 222 159 c 0
 271 159 316 134 354 103 c 0
 378 82 406 64 438 64 c 0
 474 64 501 93 527 118 c 1
 570 74 l 1
 531 36 492 -10 438 -10 c 0
EndSplineSet
EndChar

StartChar: uni2273
Encoding: 45 8819 45
Width: 660
Flags: HW
HStem: -10 74<377.327 491.367> 85 74<168.633 280.788>
LayerCount: 2
Fore
SplineSet
118 188 m 1
 90 257 l 1
 434 395 l 1
 90 533 l 1
 118 602 l 1
 570 420 l 1
 570 370 l 1
 118 188 l 1
438 -10 m 0
 335 -10 293 85 222 85 c 0
 186 85 159 56 133 31 c 1
 90 74 l 1
 129 113 168 159 222 159 c 0
 271 159 316 134 354 103 c 0
 378 82 406 64 438 64 c 0
 474 64 501 93 527 118 c 1
 570 74 l 1
 531 36 492 -10 438 -10 c 0
EndSplineSet
EndChar

StartChar: uni2A85
Encoding: 46 10885 46
Width: 660
Flags: HW
HStem: -105 74<377.327 491.367> -10 74<168.633 280.788> 85 74<377.327 491.367> 180 74<168.633 280.788>
LayerCount: 2
Fore
SplineSet
542 697 m 1
 570 628 l 1
 226 490 l 1
 570 352 l 1
 542 283 l 1
 90 465 l 1
 90 515 l 1
 542 697 l 1
438 85 m 0
 335 85 293 180 222 180 c 0
 186 180 159 151 133 126 c 1
 90 169 l 1
 129 208 168 254 222 254 c 0
 271 254 316 229 354 198 c 0
 378 177 406 159 438 159 c 0
 474 159 501 188 527 213 c 1
 570 169 l 1
 531 131 492 85 438 85 c 0
438 -105 m 0
 335 -105 293 -10 222 -10 c 0
 186 -10 159 -39 133 -64 c 1
 90 -21 l 1
 129 18 168 64 222 64 c 0
 271 64 316 39 354 8 c 0
 378 -13 406 -31 438 -31 c 0
 474 -31 501 -2 527 23 c 1
 570 -21 l 1
 531 -59 492 -105 438 -105 c 0
EndSplineSet
EndChar

StartChar: uni2A86
Encoding: 47 10886 47
Width: 660
Flags: HW
HStem: -105 74<377.327 491.367> -10 74<168.633 280.788> 85 74<377.327 491.367> 180 74<168.633 280.788>
LayerCount: 2
Fore
SplineSet
118 283 m 1
 90 352 l 1
 434 490 l 1
 90 628 l 1
 118 697 l 1
 570 515 l 1
 570 465 l 1
 118 283 l 1
438 85 m 0
 335 85 293 180 222 180 c 0
 186 180 159 151 133 126 c 1
 90 169 l 1
 129 208 168 254 222 254 c 0
 271 254 316 229 354 198 c 0
 378 177 406 159 438 159 c 0
 474 159 501 188 527 213 c 1
 570 169 l 1
 531 131 492 85 438 85 c 0
438 -105 m 0
 335 -105 293 -10 222 -10 c 0
 186 -10 159 -39 133 -64 c 1
 90 -21 l 1
 129 18 168 64 222 64 c 0
 271 64 316 39 354 8 c 0
 378 -13 406 -31 438 -31 c 0
 474 -31 501 -2 527 23 c 1
 570 -21 l 1
 531 -59 492 -105 438 -105 c 0
EndSplineSet
EndChar

StartChar: uni2276
Encoding: 48 8822 48
Width: 660
Flags: HW
LayerCount: 2
Fore
SplineSet
542 691 m 1
 570 622 l 1
 226 484 l 1
 570 346 l 1
 542 277 l 1
 90 459 l 1
 90 509 l 1
 542 691 l 1
118 -91 m 1
 90 -22 l 1
 434 116 l 1
 90 254 l 1
 118 323 l 1
 570 141 l 1
 570 91 l 1
 118 -91 l 1
EndSplineSet
EndChar

StartChar: uni2277
Encoding: 49 8823 49
Width: 660
Flags: HW
LayerCount: 2
Fore
SplineSet
118 277 m 1
 90 346 l 1
 434 484 l 1
 90 622 l 1
 118 691 l 1
 570 509 l 1
 570 459 l 1
 118 277 l 1
542 323 m 1
 570 254 l 1
 226 116 l 1
 570 -22 l 1
 542 -91 l 1
 90 91 l 1
 90 141 l 1
 542 323 l 1
EndSplineSet
EndChar

StartChar: uni22DA
Encoding: 50 8922 50
Width: 660
Flags: HW
HStem: 263 74<90 570>
LayerCount: 2
Fore
SplineSet
542 812 m 1
 570 743 l 1
 226 605 l 1
 570 467 l 1
 542 398 l 1
 90 580 l 1
 90 630 l 1
 542 812 l 1
118 -212 m 1
 90 -143 l 1
 434 -5 l 1
 90 133 l 1
 118 202 l 1
 570 20 l 1
 570 -30 l 1
 118 -212 l 1
90 263 m 1
 90 337 l 1
 570 337 l 1
 570 263 l 1
 90 263 l 1
EndSplineSet
EndChar

StartChar: uni22DB
Encoding: 51 8923 51
Width: 660
Flags: HW
HStem: 263 74<90 570>
LayerCount: 2
Fore
SplineSet
118 398 m 1
 90 467 l 1
 434 605 l 1
 90 743 l 1
 118 812 l 1
 570 630 l 1
 570 580 l 1
 118 398 l 1
542 202 m 1
 570 133 l 1
 226 -5 l 1
 570 -143 l 1
 542 -212 l 1
 90 -30 l 1
 90 20 l 1
 542 202 l 1
570 337 m 1
 570 263 l 1
 90 263 l 1
 90 337 l 1
 570 337 l 1
EndSplineSet
EndChar

StartChar: uni2A8B
Encoding: 52 10891 52
Width: 660
Flags: HW
HStem: 168 74<90 570> 358 74<90 570>
LayerCount: 2
Fore
SplineSet
542 907 m 1
 570 838 l 1
 226 700 l 1
 570 562 l 1
 542 493 l 1
 90 675 l 1
 90 725 l 1
 542 907 l 1
118 -307 m 1
 90 -238 l 1
 434 -100 l 1
 90 38 l 1
 118 107 l 1
 570 -75 l 1
 570 -125 l 1
 118 -307 l 1
90 358 m 1
 90 432 l 1
 570 432 l 1
 570 358 l 1
 90 358 l 1
90 168 m 1
 90 242 l 1
 570 242 l 1
 570 168 l 1
 90 168 l 1
EndSplineSet
EndChar

StartChar: uni2A8C
Encoding: 53 10892 53
Width: 660
Flags: HW
HStem: 168 74<90 570> 358 74<90 570>
LayerCount: 2
Fore
SplineSet
118 493 m 1
 90 562 l 1
 434 700 l 1
 90 838 l 1
 118 907 l 1
 570 725 l 1
 570 675 l 1
 118 493 l 1
542 107 m 1
 570 38 l 1
 226 -100 l 1
 570 -238 l 1
 542 -307 l 1
 90 -125 l 1
 90 -75 l 1
 542 107 l 1
570 432 m 1
 570 358 l 1
 90 358 l 1
 90 432 l 1
 570 432 l 1
570 242 m 1
 570 168 l 1
 90 168 l 1
 90 242 l 1
 570 242 l 1
EndSplineSet
EndChar

StartChar: uni22DA.alt
Encoding: 54 -1 54
Width: 660
Flags: HW
LayerCount: 2
Fore
SplineSet
542 786 m 1
 570 717 l 1
 226 579 l 1
 570 441 l 1
 542 372 l 1
 90 554 l 1
 90 604 l 1
 542 786 l 1
118 -186 m 1
 90 -117 l 1
 434 21 l 1
 90 159 l 1
 118 228 l 1
 570 46 l 1
 570 -4 l 1
 118 -186 l 1
570 243 m 1
 542 175 l 1
 90 357 l 1
 118 425 l 1
 570 243 l 1
EndSplineSet
EndChar

StartChar: uni22DB.alt
Encoding: 55 -1 55
Width: 660
Flags: HW
LayerCount: 2
Fore
SplineSet
118 372 m 1
 90 441 l 1
 434 579 l 1
 90 717 l 1
 118 786 l 1
 570 604 l 1
 570 554 l 1
 118 372 l 1
542 228 m 1
 570 159 l 1
 226 21 l 1
 570 -117 l 1
 542 -186 l 1
 90 -4 l 1
 90 46 l 1
 542 228 l 1
118 175 m 1
 90 243 l 1
 542 425 l 1
 570 357 l 1
 118 175 l 1
EndSplineSet
EndChar

StartChar: uni226A
Encoding: 56 8810 56
Width: 1114
Flags: HW
LayerCount: 2
Fore
SplineSet
613 564 m 1
 644 497 l 1
 216 300 l 1
 644 103 l 1
 613 36 l 1
 90 276 l 1
 90 324 l 1
 613 564 l 1
993 564 m 1
 1024 497 l 1
 596 300 l 1
 1024 103 l 1
 993 36 l 1
 470 276 l 1
 470 324 l 1
 993 564 l 1
EndSplineSet
EndChar

StartChar: uni226B
Encoding: 57 8811 57
Width: 1114
Flags: HW
LayerCount: 2
Fore
SplineSet
501 36 m 1
 470 103 l 1
 898 300 l 1
 470 497 l 1
 501 564 l 1
 1024 324 l 1
 1024 276 l 1
 501 36 l 1
121 36 m 1
 90 103 l 1
 518 300 l 1
 90 497 l 1
 121 564 l 1
 644 324 l 1
 644 276 l 1
 121 36 l 1
EndSplineSet
EndChar

StartChar: uni22D8
Encoding: 58 8920 58
Width: 1494
Flags: HW
LayerCount: 2
Fore
SplineSet
613 564 m 1
 644 497 l 1
 216 300 l 1
 644 103 l 1
 613 36 l 1
 90 276 l 1
 90 324 l 1
 613 564 l 1
993 564 m 1
 1024 497 l 1
 596 300 l 1
 1024 103 l 1
 993 36 l 1
 470 276 l 1
 470 324 l 1
 993 564 l 1
1373 564 m 1
 1404 497 l 1
 976 300 l 1
 1404 103 l 1
 1373 36 l 1
 850 276 l 1
 850 324 l 1
 1373 564 l 1
EndSplineSet
EndChar

StartChar: uni22D9
Encoding: 59 8921 59
Width: 1494
Flags: HW
LayerCount: 2
Fore
SplineSet
881 36 m 1
 850 103 l 1
 1278 300 l 1
 850 497 l 1
 881 564 l 1
 1404 324 l 1
 1404 276 l 1
 881 36 l 1
501 36 m 1
 470 103 l 1
 898 300 l 1
 470 497 l 1
 501 564 l 1
 1024 324 l 1
 1024 276 l 1
 501 36 l 1
121 36 m 1
 90 103 l 1
 518 300 l 1
 90 497 l 1
 121 564 l 1
 644 324 l 1
 644 276 l 1
 121 36 l 1
EndSplineSet
EndChar

StartChar: uni22B2
Encoding: 60 8882 60
Width: 660
Flags: HW
VStem: 496 74<144 456>
LayerCount: 2
Fore
SplineSet
496 144 m 1
 496 456 l 1
 205 300 l 1
 496 144 l 1
535 39 m 1
 90 278 l 1
 90 322 l 1
 535 561 l 1
 570 540 l 1
 570 60 l 1
 535 39 l 1
EndSplineSet
EndChar

StartChar: uni22B3
Encoding: 61 8883 61
Width: 660
Flags: HW
VStem: 90 74<144 456>
LayerCount: 2
Fore
SplineSet
164 456 m 1
 164 144 l 1
 455 300 l 1
 164 456 l 1
125 561 m 1
 570 322 l 1
 570 278 l 1
 125 39 l 1
 90 60 l 1
 90 540 l 1
 125 561 l 1
EndSplineSet
EndChar

StartChar: uni22B4
Encoding: 62 8884 62
Width: 660
Flags: HW
HStem: 22 74<90 570>
VStem: 496 74<255 472 551 552>
LayerCount: 2
Fore
SplineSet
496 255 m 1
 496 472 l 1
 226 363 l 1
 496 255 l 1
496 551 m 1
 496 552 l 1
 542 570 l 1
 570 552 l 1
 570 175 l 1
 542 156 l 1
 90 338 l 1
 90 388 l 1
 496 551 l 1
90 22 m 1
 90 96 l 1
 570 96 l 1
 570 22 l 1
 90 22 l 1
EndSplineSet
EndChar

StartChar: uni22B5
Encoding: 63 8885 63
Width: 660
Flags: HW
HStem: 22 74<90 570>
VStem: 90 74<255 472 551 552>
LayerCount: 2
Fore
SplineSet
164 472 m 1
 164 255 l 1
 434 363 l 1
 164 472 l 1
164 551 m 1
 570 388 l 1
 570 338 l 1
 118 156 l 1
 90 175 l 1
 90 552 l 1
 118 570 l 1
 164 552 l 1
 164 551 l 1
570 96 m 1
 570 22 l 1
 90 22 l 1
 90 96 l 1
 570 96 l 1
EndSplineSet
EndChar

StartChar: uni2AA6
Encoding: 64 10918 64
Width: 717
Flags: HW
VStem: 546 73<182.079 419.057>
LayerCount: 2
Fore
SplineSet
505 139 m 0
 532 189 546 245 546 300 c 0
 546 320 543 394 505 461 c 1
 205 300 l 1
 505 139 l 0
553 72 m 1
 535 39 l 1
 90 278 l 1
 90 322 l 1
 535 561 l 1
 553 528 l 1
 570 496 l 2
 602 434 619 367 619 300 c 0
 619 233 602 166 570 104 c 2
 553 72 l 1
EndSplineSet
EndChar

StartChar: uni2AA7
Encoding: 65 10919 65
Width: 717
Flags: HW
VStem: 98 74<179.315 420.685>
LayerCount: 2
Fore
SplineSet
212 461 m 1
 185 411 172 355 172 300 c 0
 172 245 185 189 212 139 c 1
 511 300 l 1
 212 461 l 1
164 528 m 1
 182 561 l 1
 627 322 l 1
 627 278 l 1
 182 39 l 1
 164 72 l 1
 147 104 l 2
 114 166 98 233 98 300 c 0
 98 367 114 434 147 496 c 2
 164 528 l 1
EndSplineSet
EndChar

StartChar: uni2AA8
Encoding: 66 10920 66
Width: 698
Flags: HW
HStem: -2 21G<492.33 550.116>
VStem: 516 74<286.113 503.887>
LayerCount: 2
Fore
SplineSet
500 285 m 1
 510 321 516 358 516 395 c 0
 516 432 510 469 500 505 c 1
 226 395 l 1
 500 285 l 1
561 234 m 2
 559 230 558 226 556 222 c 1
 542 188 l 1
 90 370 l 1
 90 420 l 1
 542 602 l 1
 556 568 l 1
 558 564 559 560 561 556 c 2
 570 533 l 1
 569 532 l 1
 583 487 590 441 590 395 c 0
 590 349 583 303 569 258 c 1
 570 257 l 1
 561 234 l 2
570 67 m 1
 542 -2 l 1
 90 180 l 1
 118 249 l 1
 570 67 l 1
EndSplineSet
EndChar

StartChar: uni2AA9
Encoding: 67 10921 67
Width: 698
Flags: HW
HStem: -2 21G<147.884 205.67>
VStem: 109 74<286.113 503.887>
LayerCount: 2
Fore
SplineSet
199 505 m 1
 189 469 183 432 183 395 c 0
 183 358 189 321 199 285 c 1
 472 395 l 1
 199 505 l 1
138 559 m 2
 139 562 141 565 142 568 c 1
 156 602 l 1
 608 420 l 1
 608 370 l 1
 156 188 l 1
 142 222 l 1
 141 225 139 228 138 231 c 2
 128 257 l 1
 130 258 l 1
 116 303 109 349 109 395 c 0
 109 441 116 487 130 532 c 1
 128 533 l 1
 138 559 l 2
156 -2 m 1
 128 67 l 1
 581 249 l 1
 608 180 l 1
 156 -2 l 1
EndSplineSet
EndChar

StartChar: uni228F
Encoding: 68 8847 68
Width: 660
Flags: HW
HStem: 26 74<164 570> 500 74<164 570>
VStem: 90 74<100 500>
LayerCount: 2
Fore
SplineSet
164 100 m 1
 570 100 l 1
 570 26 l 1
 90 26 l 1
 90 574 l 1
 570 574 l 1
 570 500 l 1
 164 500 l 1
 164 100 l 1
EndSplineSet
EndChar

StartChar: uni2290
Encoding: 69 8848 69
Width: 660
Flags: HW
HStem: 26 74<90 496> 500 74<90 496>
VStem: 496 74<100 500>
LayerCount: 2
Fore
SplineSet
496 100 m 1
 496 500 l 1
 90 500 l 1
 90 574 l 1
 570 574 l 1
 570 26 l 1
 90 26 l 1
 90 100 l 1
 496 100 l 1
EndSplineSet
EndChar

StartChar: uni2291
Encoding: 70 8849 70
Width: 660
Flags: HW
HStem: -10 74<90 570> 180 74<164 570> 536 74<164 570>
VStem: 90 74<254 536>
LayerCount: 2
Fore
SplineSet
164 254 m 1
 570 254 l 1
 570 180 l 1
 90 180 l 1
 90 610 l 1
 570 610 l 1
 570 536 l 1
 164 536 l 1
 164 254 l 1
90 -10 m 1
 90 64 l 1
 570 64 l 1
 570 -10 l 1
 90 -10 l 1
EndSplineSet
EndChar

StartChar: uni2292
Encoding: 71 8850 71
Width: 660
Flags: HW
HStem: -10 74<90 570> 180 74<90 496> 536 74<90 496>
VStem: 496 74<254 536>
LayerCount: 2
Fore
SplineSet
496 254 m 1
 496 536 l 1
 90 536 l 1
 90 610 l 1
 570 610 l 1
 570 180 l 1
 90 180 l 1
 90 254 l 1
 496 254 l 1
570 64 m 1
 570 -10 l 1
 90 -10 l 1
 90 64 l 1
 570 64 l 1
EndSplineSet
EndChar

StartChar: sym021
Encoding: 72 -1 72
Width: 660
Flags: HW
HStem: -105 74<90 570> 85 74<90 570> 275 74<164 570> 631 74<164 570>
VStem: 90 74<349 631>
LayerCount: 2
Fore
SplineSet
164 349 m 1
 570 349 l 1
 570 275 l 1
 90 275 l 1
 90 705 l 1
 570 705 l 1
 570 631 l 1
 164 631 l 1
 164 349 l 1
90 85 m 1
 90 159 l 1
 570 159 l 1
 570 85 l 1
 90 85 l 1
90 -105 m 1
 90 -31 l 1
 570 -31 l 1
 570 -105 l 1
 90 -105 l 1
EndSplineSet
EndChar

StartChar: sym022
Encoding: 73 -1 73
Width: 660
Flags: HW
HStem: -105 74<90 570> 85 74<90 570> 275 74<90 496> 631 74<90 496>
VStem: 496 74<349 631>
LayerCount: 2
Fore
SplineSet
496 349 m 1
 496 631 l 1
 90 631 l 1
 90 705 l 1
 570 705 l 1
 570 275 l 1
 90 275 l 1
 90 349 l 1
 496 349 l 1
570 159 m 1
 570 85 l 1
 90 85 l 1
 90 159 l 1
 570 159 l 1
570 -31 m 1
 570 -105 l 1
 90 -105 l 1
 90 -31 l 1
 570 -31 l 1
EndSplineSet
EndChar

StartChar: sym023
Encoding: 74 -1 74
Width: 660
Flags: HW
HStem: 26 74<164 570> 168 74<307 570> 358 74<307 570> 500 74<164 570>
VStem: 90 74<100 500> 233 74<242 358>
LayerCount: 2
Fore
SplineSet
164 100 m 1
 570 100 l 1
 570 26 l 1
 90 26 l 1
 90 574 l 1
 570 574 l 1
 570 500 l 1
 164 500 l 1
 164 100 l 1
307 242 m 1
 570 242 l 1
 570 168 l 1
 233 168 l 1
 233 432 l 1
 570 432 l 1
 570 358 l 1
 307 358 l 1
 307 242 l 1
EndSplineSet
EndChar

StartChar: sym024
Encoding: 75 -1 75
Width: 660
Flags: HW
HStem: 26 74<90 496> 168 74<90 354> 358 74<90 354> 500 74<90 496>
VStem: 354 74<242 358> 496 74<100 500>
LayerCount: 2
Fore
SplineSet
496 100 m 1
 496 500 l 1
 90 500 l 1
 90 574 l 1
 570 574 l 1
 570 26 l 1
 90 26 l 1
 90 100 l 1
 496 100 l 1
354 242 m 1
 354 358 l 1
 90 358 l 1
 90 432 l 1
 428 432 l 1
 428 168 l 1
 90 168 l 1
 90 242 l 1
 354 242 l 1
EndSplineSet
EndChar

StartChar: propersubset
Encoding: 76 8834 76
Width: 660
Flags: HW
HStem: 26 74<249.717 570> 500 74<249.717 570>
VStem: 90 74<200.855 399.145>
LayerCount: 2
Fore
SplineSet
570 500 m 1
 322 500 l 2
 226 500 164 404 164 300 c 0
 164 196 226 100 322 100 c 2
 570 100 l 1
 570 26 l 1
 322 26 l 2
 185 26 90 156 90 300 c 0
 90 444 185 574 322 574 c 2
 570 574 l 1
 570 500 l 1
EndSplineSet
EndChar

StartChar: propersuperset
Encoding: 77 8835 77
Width: 660
Flags: HW
HStem: 26 74<90 410.283> 500 74<90 410.283>
VStem: 496 74<200.855 399.145>
LayerCount: 2
Fore
SplineSet
90 100 m 1
 338 100 l 2
 434 100 496 196 496 300 c 0
 496 404 434 500 338 500 c 2
 90 500 l 1
 90 574 l 1
 338 574 l 2
 475 574 570 444 570 300 c 0
 570 156 475 26 338 26 c 2
 90 26 l 1
 90 100 l 1
EndSplineSet
EndChar

StartChar: reflexsubset
Encoding: 78 8838 78
Width: 660
Flags: HW
HStem: -10 74<90 570> 180 74<216.379 570> 536 74<216.379 570>
VStem: 90 74<309.498 480.502>
LayerCount: 2
Fore
SplineSet
570 536 m 1
 273 536 l 2
 206 536 164 468 164 395 c 0
 164 322 206 254 273 254 c 2
 570 254 l 1
 570 180 l 1
 273 180 l 2
 166 180 90 282 90 395 c 0
 90 508 166 610 273 610 c 2
 570 610 l 1
 570 536 l 1
90 -10 m 1
 90 64 l 1
 570 64 l 1
 570 -10 l 1
 90 -10 l 1
EndSplineSet
EndChar

StartChar: reflexsuperset
Encoding: 79 8839 79
Width: 660
Flags: HW
HStem: -10 74<90 570> 180 74<90 443.621> 536 74<90 443.621>
VStem: 496 74<309.498 480.502>
LayerCount: 2
Fore
SplineSet
90 254 m 1
 387 254 l 2
 454 254 496 322 496 395 c 0
 496 468 454 536 387 536 c 2
 90 536 l 1
 90 610 l 1
 387 610 l 2
 494 610 570 508 570 395 c 0
 570 282 494 180 387 180 c 2
 90 180 l 1
 90 254 l 1
570 64 m 1
 570 -10 l 1
 90 -10 l 1
 90 64 l 1
 570 64 l 1
EndSplineSet
EndChar

StartChar: uni2AC5
Encoding: 80 10949 80
Width: 660
Flags: HW
HStem: -105 74<90 570> 85 74<90 570> 275 74<216.379 570> 631 74<216.379 570>
VStem: 90 74<404.498 575.502>
LayerCount: 2
Fore
SplineSet
570 631 m 1
 273 631 l 2
 206 631 164 563 164 490 c 0
 164 417 206 349 273 349 c 2
 570 349 l 1
 570 275 l 1
 273 275 l 2
 166 275 90 377 90 490 c 0
 90 603 166 705 273 705 c 2
 570 705 l 1
 570 631 l 1
90 85 m 1
 90 159 l 1
 570 159 l 1
 570 85 l 1
 90 85 l 1
90 -105 m 1
 90 -31 l 1
 570 -31 l 1
 570 -105 l 1
 90 -105 l 1
EndSplineSet
EndChar

StartChar: uni2AC6
Encoding: 81 10950 81
Width: 660
Flags: HW
HStem: -105 74<90 570> 85 74<90 570> 275 74<90 443.621> 631 74<90 443.621>
VStem: 496 74<404.498 575.502>
LayerCount: 2
Fore
SplineSet
90 349 m 1
 387 349 l 2
 454 349 496 417 496 490 c 0
 496 563 454 631 387 631 c 2
 90 631 l 1
 90 705 l 1
 387 705 l 2
 494 705 570 603 570 490 c 0
 570 377 494 275 387 275 c 2
 90 275 l 1
 90 349 l 1
570 159 m 1
 570 85 l 1
 90 85 l 1
 90 159 l 1
 570 159 l 1
570 -31 m 1
 570 -105 l 1
 90 -105 l 1
 90 -31 l 1
 570 -31 l 1
EndSplineSet
EndChar

StartChar: uni22D0
Encoding: 82 8912 82
Width: 660
Flags: HW
HStem: 26 74<249.717 570> 168 74<315.627 570> 358 74<315.627 570> 500 74<249.717 570>
VStem: 90 74<200.855 399.145> 233 74<246.954 353.046>
LayerCount: 2
Fore
SplineSet
570 500 m 1
 322 500 l 2
 226 500 164 404 164 300 c 0
 164 196 226 100 322 100 c 2
 570 100 l 1
 570 26 l 1
 322 26 l 2
 185 26 90 156 90 300 c 0
 90 444 185 574 322 574 c 2
 570 574 l 1
 570 500 l 1
570 358 m 1
 345 358 l 2
 319 358 307 329 307 300 c 0
 307 271 319 242 345 242 c 2
 570 242 l 1
 570 168 l 1
 345 168 l 2
 279 168 233 230 233 300 c 0
 233 370 279 432 345 432 c 2
 570 432 l 1
 570 358 l 1
EndSplineSet
EndChar

StartChar: uni22D1
Encoding: 83 8913 83
Width: 660
Flags: HW
HStem: 26 74<90 410.283> 168 74<90 344.439> 358 74<90 344.439> 500 74<90 410.283>
VStem: 354 74<248.414 351.586> 496 74<200.855 399.145>
LayerCount: 2
Fore
SplineSet
90 100 m 1
 338 100 l 2
 434 100 496 196 496 300 c 0
 496 404 434 500 338 500 c 2
 90 500 l 1
 90 574 l 1
 338 574 l 2
 475 574 570 444 570 300 c 0
 570 156 475 26 338 26 c 2
 90 26 l 1
 90 100 l 1
90 242 m 1
 315 242 l 2
 341 242 354 271 354 300 c 0
 354 329 341 358 315 358 c 2
 90 358 l 1
 90 432 l 1
 315 432 l 2
 381 432 428 370 428 300 c 0
 428 230 381 168 315 168 c 2
 90 168 l 1
 90 242 l 1
EndSplineSet
EndChar

StartChar: uni227A
Encoding: 84 8826 84
Width: 660
Flags: HW
HStem: 263 74<90 245.169>
LayerCount: 2
Fore
SplineSet
297 300 m 1
 400 255 490 174 570 88 c 1
 516 37 l 1
 409 152 283 263 127 263 c 2
 90 263 l 1
 90 337 l 1
 127 337 l 2
 283 337 409 448 516 563 c 1
 570 512 l 1
 490 426 400 345 297 300 c 1
EndSplineSet
EndChar

StartChar: uni227B
Encoding: 85 8827 85
Width: 660
Flags: HW
HStem: 263 74<414.831 570>
LayerCount: 2
Fore
SplineSet
363 300 m 1
 260 345 170 426 90 512 c 1
 144 563 l 1
 251 448 377 337 533 337 c 2
 570 337 l 1
 570 263 l 1
 533 263 l 2
 377 263 251 152 144 37 c 1
 90 88 l 1
 170 174 260 255 363 300 c 1
EndSplineSet
EndChar

StartChar: uni2AAF
Encoding: 86 10927 86
Width: 660
Flags: HW
HStem: 22 74<90 570> 326 74<90 275.318>
LayerCount: 2
Fore
SplineSet
338 363 m 1
 426 331 505 280 570 210 c 1
 516 160 l 1
 416 268 274 326 127 326 c 2
 90 326 l 1
 90 400 l 1
 127 400 l 2
 274 400 416 459 516 567 c 1
 570 516 l 1
 505 447 426 395 338 363 c 1
90 22 m 1
 90 96 l 1
 570 96 l 1
 570 22 l 1
 90 22 l 1
EndSplineSet
EndChar

StartChar: uni2AB0
Encoding: 87 10928 87
Width: 660
Flags: HW
HStem: 22 74<90 570> 326 74<384.682 570>
LayerCount: 2
Fore
SplineSet
322 363 m 1
 234 395 155 447 90 516 c 1
 144 567 l 1
 244 459 386 400 533 400 c 2
 570 400 l 1
 570 326 l 1
 533 326 l 2
 386 326 244 268 144 160 c 1
 90 210 l 1
 155 280 234 331 322 363 c 1
570 96 m 1
 570 22 l 1
 90 22 l 1
 90 96 l 1
 570 96 l 1
EndSplineSet
EndChar

StartChar: uni227C
Encoding: 88 8828 88
Width: 660
Flags: HW
HStem: 168 74<90 271.277> 358 74<90 275.318>
LayerCount: 2
Fore
SplineSet
339 395 m 1
 426 363 506 312 570 242 c 1
 516 192 l 1
 416 299 274 358 127 358 c 2
 90 358 l 1
 90 432 l 1
 127 432 l 2
 274 432 416 491 516 598 c 1
 570 548 l 1
 506 478 426 427 339 395 c 1
90 168 m 1
 90 242 l 1
 164 242 l 2
 306 242 420 155 522 54 c 1
 469 4 l 1
 382 92 286 168 164 168 c 2
 90 168 l 1
EndSplineSet
EndChar

StartChar: uni227D
Encoding: 89 8829 89
Width: 660
Flags: HW
HStem: 168 74<388.723 570> 358 74<384.682 570>
LayerCount: 2
Fore
SplineSet
321 395 m 1
 234 427 154 478 90 548 c 1
 144 598 l 1
 244 491 386 432 533 432 c 2
 570 432 l 1
 570 358 l 1
 533 358 l 2
 386 358 244 299 144 192 c 1
 90 242 l 1
 154 312 234 363 321 395 c 1
570 168 m 1
 496 168 l 2
 374 168 278 92 191 4 c 1
 138 54 l 1
 240 155 354 242 496 242 c 2
 570 242 l 1
 570 168 l 1
EndSplineSet
EndChar

StartChar: uni2AB3
Encoding: 90 10931 90
Width: 660
Flags: HW
HStem: -73 74<90 570> 117 74<90 570> 421 74<90 275.318>
LayerCount: 2
Fore
SplineSet
338 458 m 1
 426 426 505 375 570 305 c 1
 516 255 l 1
 416 363 274 421 127 421 c 2
 90 421 l 1
 90 495 l 1
 127 495 l 2
 274 495 416 554 516 662 c 1
 570 611 l 1
 505 542 426 490 338 458 c 1
90 117 m 1
 90 191 l 1
 570 191 l 1
 570 117 l 1
 90 117 l 1
90 -73 m 1
 90 1 l 1
 570 1 l 1
 570 -73 l 1
 90 -73 l 1
EndSplineSet
EndChar

StartChar: uni2AB4
Encoding: 91 10932 91
Width: 660
Flags: HW
HStem: -73 74<90 570> 117 74<90 570> 421 74<384.682 570>
LayerCount: 2
Fore
SplineSet
322 458 m 1
 234 490 155 542 90 611 c 1
 144 662 l 1
 244 554 386 495 533 495 c 2
 570 495 l 1
 570 421 l 1
 533 421 l 2
 386 421 244 363 144 255 c 1
 90 305 l 1
 155 375 234 426 322 458 c 1
570 191 m 1
 570 117 l 1
 90 117 l 1
 90 191 l 1
 570 191 l 1
570 1 m 1
 570 -73 l 1
 90 -73 l 1
 90 1 l 1
 570 1 l 1
EndSplineSet
EndChar

StartChar: uni227E
Encoding: 92 8830 92
Width: 660
Flags: HW
HStem: -10 74<377.327 491.367> 85 74<168.633 280.788> 358 74<90 275.318>
LayerCount: 2
Fore
SplineSet
339 395 m 1
 426 363 506 312 570 242 c 1
 516 192 l 1
 416 299 274 358 127 358 c 2
 90 358 l 1
 90 432 l 1
 127 432 l 2
 274 432 416 491 516 598 c 1
 570 548 l 1
 506 478 426 427 339 395 c 1
438 -10 m 0
 335 -10 293 85 222 85 c 0
 186 85 159 56 133 31 c 1
 90 74 l 1
 129 113 168 159 222 159 c 0
 271 159 316 134 354 103 c 0
 378 82 406 64 438 64 c 0
 474 64 501 93 527 118 c 1
 570 74 l 1
 531 36 492 -10 438 -10 c 0
EndSplineSet
EndChar

StartChar: uni227F
Encoding: 93 8831 93
Width: 660
Flags: HW
HStem: -10 74<377.327 491.367> 85 74<168.633 280.788> 358 74<384.682 570>
LayerCount: 2
Fore
SplineSet
321 395 m 1
 234 427 154 478 90 548 c 1
 144 598 l 1
 244 491 386 432 533 432 c 2
 570 432 l 1
 570 358 l 1
 533 358 l 2
 386 358 244 299 144 192 c 1
 90 242 l 1
 154 312 234 363 321 395 c 1
438 -10 m 0
 335 -10 293 85 222 85 c 0
 186 85 159 56 133 31 c 1
 90 74 l 1
 129 113 168 159 222 159 c 0
 271 159 316 134 354 103 c 0
 378 82 406 64 438 64 c 0
 474 64 501 93 527 118 c 1
 570 74 l 1
 531 36 492 -10 438 -10 c 0
EndSplineSet
EndChar

StartChar: uni2AB7
Encoding: 94 10935 94
Width: 660
Flags: HW
HStem: -105 74<377.327 491.367> -10 74<168.633 280.788> 85 74<377.327 491.367> 180 74<168.633 280.788> 453 74<90 275.318>
LayerCount: 2
Fore
SplineSet
339 490 m 1
 426 458 506 407 570 337 c 1
 516 287 l 1
 416 394 274 453 127 453 c 2
 90 453 l 1
 90 527 l 1
 127 527 l 2
 274 527 416 586 516 693 c 1
 570 643 l 1
 506 573 426 522 339 490 c 1
438 85 m 0
 335 85 293 180 222 180 c 0
 186 180 159 151 133 126 c 1
 90 169 l 1
 129 208 168 254 222 254 c 0
 271 254 316 229 354 198 c 0
 378 177 406 159 438 159 c 0
 474 159 501 188 527 213 c 1
 570 169 l 1
 531 131 492 85 438 85 c 0
438 -105 m 0
 335 -105 293 -10 222 -10 c 0
 186 -10 159 -39 133 -64 c 1
 90 -21 l 1
 129 18 168 64 222 64 c 0
 271 64 316 39 354 8 c 0
 378 -13 406 -31 438 -31 c 0
 474 -31 501 -2 527 23 c 1
 570 -21 l 1
 531 -59 492 -105 438 -105 c 0
EndSplineSet
EndChar

StartChar: uni2AB8
Encoding: 95 10936 95
Width: 660
Flags: HW
HStem: -105 74<377.327 491.367> -10 74<168.633 280.788> 85 74<377.327 491.367> 180 74<168.633 280.788> 453 74<384.682 570>
LayerCount: 2
Fore
SplineSet
321 490 m 1
 234 522 154 573 90 643 c 1
 144 693 l 1
 244 586 386 527 533 527 c 2
 570 527 l 1
 570 453 l 1
 533 453 l 2
 386 453 244 394 144 287 c 1
 90 337 l 1
 154 407 234 458 321 490 c 1
438 85 m 0
 335 85 293 180 222 180 c 0
 186 180 159 151 133 126 c 1
 90 169 l 1
 129 208 168 254 222 254 c 0
 271 254 316 229 354 198 c 0
 378 177 406 159 438 159 c 0
 474 159 501 188 527 213 c 1
 570 169 l 1
 531 131 492 85 438 85 c 0
438 -105 m 0
 335 -105 293 -10 222 -10 c 0
 186 -10 159 -39 133 -64 c 1
 90 -21 l 1
 129 18 168 64 222 64 c 0
 271 64 316 39 354 8 c 0
 378 -13 406 -31 438 -31 c 0
 474 -31 501 -2 527 23 c 1
 570 -21 l 1
 531 -59 492 -105 438 -105 c 0
EndSplineSet
EndChar

StartChar: uni22D6
Encoding: 96 8918 96
Width: 660
Flags: HW
HStem: 237 126<472.599 541.401>
VStem: 444 126<265.599 334.401>
LayerCount: 2
Fore
SplineSet
535 561 m 1
 570 496 l 1
 205 300 l 1
 570 104 l 1
 535 39 l 1
 90 278 l 1
 90 322 l 1
 535 561 l 1
507 363 m 0
 525 363 570 318 570 300 c 0
 570 282 525 237 507 237 c 0
 489 237 444 282 444 300 c 0
 444 318 489 363 507 363 c 0
EndSplineSet
EndChar

StartChar: uni22D7
Encoding: 97 8919 97
Width: 660
Flags: HW
HStem: 237 126<118.599 187.401>
VStem: 90 126<265.599 334.401>
LayerCount: 2
Fore
SplineSet
125 39 m 1
 90 104 l 1
 455 300 l 1
 90 496 l 1
 125 561 l 1
 570 322 l 1
 570 278 l 1
 125 39 l 1
153 363 m 0
 171 363 216 318 216 300 c 0
 216 282 171 237 153 237 c 0
 135 237 90 282 90 300 c 0
 90 318 135 363 153 363 c 0
EndSplineSet
EndChar

StartChar: sym025
Encoding: 98 -1 98
Width: 660
Flags: HW
HStem: 22 74<90 570> 300 126<473.9 540.1>
VStem: 444 126<329.169 397.401>
LayerCount: 2
Fore
SplineSet
542 570 m 1
 570 502 l 1
 226 363 l 1
 570 225 l 1
 542 156 l 1
 90 338 l 1
 90 388 l 1
 542 570 l 1
507 426 m 0
 525 426 570 381 570 363 c 0
 570 351 556 337 545 326 c 0
 534 314 520 300 507 300 c 0
 494 300 480 314 469 326 c 0
 458 337 444 351 444 363 c 0
 444 381 489 426 507 426 c 0
90 22 m 1
 90 96 l 1
 570 96 l 1
 570 22 l 1
 90 22 l 1
EndSplineSet
EndChar

StartChar: sym026
Encoding: 99 -1 99
Width: 660
Flags: HW
HStem: 22 74<90 570> 300 126<119.9 186.1>
VStem: 90 126<329.169 397.401>
LayerCount: 2
Fore
SplineSet
118 156 m 1
 90 225 l 1
 434 363 l 1
 90 502 l 1
 118 570 l 1
 570 388 l 1
 570 338 l 1
 118 156 l 1
153 426 m 0
 171 426 216 381 216 363 c 0
 216 351 202 337 191 326 c 0
 180 314 166 300 153 300 c 0
 140 300 126 314 115 326 c 0
 104 337 90 351 90 363 c 0
 90 381 135 426 153 426 c 0
570 96 m 1
 570 22 l 1
 90 22 l 1
 90 96 l 1
 570 96 l 1
EndSplineSet
EndChar

StartChar: uni2A7F
Encoding: 100 10879 100
Width: 660
Flags: HW
HStem: -2 21G<492.33 550.116> 332 126<472.599 541.401>
VStem: 444 126<360.599 429.401>
LayerCount: 2
Fore
SplineSet
542 602 m 1
 570 533 l 1
 226 395 l 1
 570 257 l 1
 542 188 l 1
 90 370 l 1
 90 420 l 1
 542 602 l 1
507 458 m 0
 525 458 570 413 570 395 c 0
 570 377 525 332 507 332 c 0
 489 332 444 377 444 395 c 0
 444 413 489 458 507 458 c 0
570 67 m 1
 542 -2 l 1
 90 180 l 1
 118 249 l 1
 570 67 l 1
EndSplineSet
EndChar

StartChar: uni2A80
Encoding: 101 10880 101
Width: 660
Flags: HW
HStem: -2 21G<109.884 167.67> 332 126<118.599 187.401>
VStem: 90 126<360.599 429.401>
LayerCount: 2
Fore
SplineSet
118 188 m 1
 90 257 l 1
 434 395 l 1
 90 533 l 1
 118 602 l 1
 570 420 l 1
 570 370 l 1
 118 188 l 1
153 458 m 0
 171 458 216 413 216 395 c 0
 216 377 171 332 153 332 c 0
 135 332 90 377 90 395 c 0
 90 413 135 458 153 458 c 0
118 -2 m 1
 90 67 l 1
 542 249 l 1
 570 180 l 1
 118 -2 l 1
EndSplineSet
EndChar

StartChar: uni2A95
Encoding: 102 10901 102
Width: 660
Flags: HW
HStem: -2 21G<492.33 550.116>
LayerCount: 2
Fore
SplineSet
542 412 m 1
 570 343 l 1
 226 205 l 1
 570 67 l 1
 542 -2 l 1
 90 180 l 1
 90 230 l 1
 542 412 l 1
542 602 m 1
 570 533 l 1
 118 351 l 1
 90 420 l 1
 542 602 l 1
EndSplineSet
EndChar

StartChar: uni2A96
Encoding: 103 10902 103
Width: 660
Flags: HW
HStem: -2 21G<109.884 167.67>
LayerCount: 2
Fore
SplineSet
118 -2 m 1
 90 67 l 1
 434 205 l 1
 90 343 l 1
 118 412 l 1
 570 230 l 1
 570 180 l 1
 118 -2 l 1
90 533 m 1
 118 602 l 1
 570 420 l 1
 542 351 l 1
 90 533 l 1
EndSplineSet
EndChar

StartChar: uni22DE
Encoding: 104 8926 104
Width: 660
Flags: HW
HStem: 168 74<90 275.318> 358 74<90 271.277>
LayerCount: 2
Fore
SplineSet
339 205 m 1
 426 173 506 122 570 52 c 1
 516 2 l 1
 416 109 274 168 127 168 c 2
 90 168 l 1
 90 242 l 1
 127 242 l 2
 274 242 416 301 516 408 c 1
 570 358 l 1
 506 288 426 237 339 205 c 1
90 432 m 1
 164 432 l 2
 286 432 382 508 469 596 c 1
 522 546 l 1
 420 445 306 358 164 358 c 2
 90 358 l 1
 90 432 l 1
EndSplineSet
EndChar

StartChar: uni22DF
Encoding: 105 8927 105
Width: 660
Flags: HW
HStem: 168 74<384.682 570> 358 74<388.723 570>
LayerCount: 2
Fore
SplineSet
321 205 m 1
 234 237 154 288 90 358 c 1
 144 408 l 1
 244 301 386 242 533 242 c 2
 570 242 l 1
 570 168 l 1
 533 168 l 2
 386 168 244 109 144 2 c 1
 90 52 l 1
 154 122 234 173 321 205 c 1
570 432 m 1
 570 358 l 1
 496 358 l 2
 354 358 240 445 138 546 c 1
 191 596 l 1
 278 508 374 432 496 432 c 2
 570 432 l 1
EndSplineSet
EndChar

StartChar: notequal
Encoding: 106 8800 106
Width: 660
Flags: HW
HStem: 168 74<90 260 349 570> 358 74<90 311 400 570>
LayerCount: 2
Fore
SplineSet
383 626 m 1
 447 609 l 1
 400 432 l 1
 570 432 l 1
 570 358 l 1
 380 358 l 1
 349 242 l 1
 570 242 l 1
 570 168 l 1
 329 168 l 1
 277 -26 l 1
 213 -9 l 1
 260 168 l 1
 90 168 l 1
 90 242 l 1
 280 242 l 1
 311 358 l 1
 90 358 l 1
 90 432 l 1
 331 432 l 1
 383 626 l 1
EndSplineSet
EndChar

StartChar: uni2262
Encoding: 107 8802 107
Width: 660
Flags: HW
HStem: 73 74<90 235 323 570> 263 74<90 286 374 570> 453 74<90 337 425 570>
CounterMasks: 1 e0
LayerCount: 2
Fore
SplineSet
396 673 m 1
 460 656 l 1
 425 527 l 1
 570 527 l 1
 570 453 l 1
 405 453 l 1
 374 337 l 1
 570 337 l 1
 570 263 l 1
 354 263 l 1
 323 147 l 1
 570 147 l 1
 570 73 l 1
 303 73 l 1
 264 -73 l 1
 200 -56 l 1
 235 73 l 1
 90 73 l 1
 90 147 l 1
 255 147 l 1
 286 263 l 1
 90 263 l 1
 90 337 l 1
 306 337 l 1
 337 453 l 1
 90 453 l 1
 90 527 l 1
 357 527 l 1
 396 673 l 1
EndSplineSet
EndChar

StartChar: uni2241
Encoding: 108 8769 108
Width: 660
Flags: HW
HStem: 215 75<376.942 491.367> 310 75<168.633 283.058>
LayerCount: 2
Fore
SplineSet
370 578 m 1
 434 561 l 1
 369 317 l 1
 390 302 412 290 438 290 c 0
 474 290 501 318 527 344 c 1
 570 300 l 1
 531 261 492 215 438 215 c 0
 406 215 377 226 349 242 c 1
 290 22 l 1
 226 39 l 1
 291 283 l 1
 270 298 248 310 222 310 c 0
 186 310 159 282 133 256 c 1
 90 300 l 1
 129 339 168 385 222 385 c 0
 254 385 283 374 311 358 c 1
 370 578 l 1
EndSplineSet
EndChar

StartChar: uni223D0338
Encoding: 109 -1 109
Width: 660
Flags: HW
HStem: 215 75<168.633 275.451> 310 75<384.549 491.367>
LayerCount: 2
Fore
SplineSet
370 578 m 1
 434 561 l 1
 384 375 l 1
 401 381 420 385 438 385 c 0
 492 385 531 339 570 300 c 1
 527 256 l 1
 501 282 474 310 438 310 c 0
 408 310 381 294 358 275 c 1
 290 22 l 1
 226 39 l 1
 276 225 l 1
 259 219 240 215 222 215 c 0
 168 215 129 261 90 300 c 1
 133 344 l 1
 159 318 186 290 222 290 c 0
 252 290 279 306 302 325 c 1
 370 578 l 1
EndSplineSet
EndChar

StartChar: uni2249
Encoding: 110 8777 110
Width: 660
Flags: HW
HStem: 121 74<376.407 491.367> 215 75<168.633 269.558> 310 75<390.442 491.367> 405 75<168.633 283.593>
LayerCount: 2
Fore
SplineSet
312 362 m 1
 284 384 259 405 222 405 c 0
 186 405 159 377 133 351 c 1
 90 395 l 1
 129 434 168 480 222 480 c 0
 262 480 300 463 333 439 c 1
 383 626 l 1
 447 609 l 1
 390 398 l 1
 405 390 421 385 438 385 c 0
 474 385 501 413 527 439 c 1
 570 395 l 1
 531 356 492 310 438 310 c 0
 415 310 392 316 371 325 c 1
 348 238 l 1
 376 216 401 195 438 195 c 0
 474 195 501 223 527 249 c 1
 570 205 l 1
 531 166 492 121 438 121 c 0
 398 121 360 137 327 161 c 1
 277 -26 l 1
 213 -9 l 1
 270 202 l 1
 255 210 239 215 222 215 c 0
 186 215 159 187 133 161 c 1
 90 205 l 1
 129 244 168 290 222 290 c 0
 245 290 268 284 289 275 c 1
 312 362 l 1
EndSplineSet
EndChar

StartChar: uni224B0338
Encoding: 111 58044 111
Width: 660
Flags: HW
HStem: 26 74<375.699 491.367> 121 74<168.633 247> 215 75<375.27 491.367> 310 75<168.633 284.73> 405 75<414 491.367> 500 74<168.633 284.301>
LayerCount: 2
Fore
SplineSet
222 574 m 0
 285 574 334 535 354 518 c 1
 396 673 l 1
 460 656 l 1
 414 483 l 1
 422 481 430 480 438 480 c 0
 474 480 501 508 527 534 c 1
 570 490 l 1
 531 451 492 405 438 405 c 0
 423 405 408 407 394 411 c 1
 369 316 l 1
 390 301 412 290 438 290 c 0
 474 290 501 318 527 344 c 1
 570 300 l 1
 531 261 492 215 438 215 c 0
 406 215 377 226 349 242 c 1
 326 159 l 1
 336 153 345 145 354 138 c 0
 378 118 406 100 438 100 c 0
 474 100 501 128 527 154 c 1
 570 110 l 1
 531 71 492 26 438 26 c 0
 375 26 326 65 306 82 c 1
 264 -73 l 1
 200 -56 l 1
 247 117 l 1
 239 119 230 121 222 121 c 0
 186 121 159 92 133 66 c 1
 90 110 l 1
 129 149 168 195 222 195 c 0
 237 195 252 193 266 189 c 1
 291 284 l 1
 270 299 248 310 222 310 c 0
 186 310 159 282 133 256 c 1
 90 300 l 1
 129 339 168 385 222 385 c 0
 254 385 283 374 311 358 c 1
 334 441 l 1
 324 447 315 455 306 462 c 0
 282 482 254 500 222 500 c 0
 186 500 159 472 133 446 c 1
 90 490 l 1
 129 529 168 574 222 574 c 0
EndSplineSet
EndChar

StartChar: uni2244
Encoding: 112 8772 112
Width: 660
Flags: HW
HStem: 168 74<90 260 349 570> 310 75<390.442 491.367> 405 75<168.633 283.593>
LayerCount: 2
Fore
SplineSet
312 362 m 1
 284 384 259 405 222 405 c 0
 186 405 159 377 133 351 c 1
 90 395 l 1
 129 434 168 480 222 480 c 0
 262 480 300 463 333 439 c 1
 383 626 l 1
 447 609 l 1
 390 398 l 1
 405 390 421 385 438 385 c 0
 474 385 501 413 527 439 c 1
 570 395 l 1
 531 356 492 310 438 310 c 0
 415 310 392 316 371 325 c 1
 349 242 l 1
 570 242 l 1
 570 168 l 1
 329 168 l 1
 277 -26 l 1
 213 -9 l 1
 260 168 l 1
 90 168 l 1
 90 242 l 1
 280 242 l 1
 312 362 l 1
EndSplineSet
EndChar

StartChar: uni22CD0338
Encoding: 113 -1 113
Width: 660
Flags: HW
HStem: 168 74<90 260 349 570> 310 75<168.633 284.549> 405 75<412.398 491.367>
LayerCount: 2
Fore
SplineSet
383 626 m 1
 447 609 l 1
 412 478 l 1
 421 480 429 480 438 480 c 0
 492 480 531 434 570 395 c 1
 527 351 l 1
 501 377 474 405 438 405 c 0
 420 405 404 399 389 391 c 1
 349 242 l 1
 570 242 l 1
 570 168 l 1
 329 168 l 1
 277 -26 l 1
 213 -9 l 1
 260 168 l 1
 90 168 l 1
 90 242 l 1
 280 242 l 1
 304 333 l 1
 278 319 251 310 222 310 c 0
 168 310 129 356 90 395 c 1
 133 439 l 1
 159 413 186 385 222 385 c 0
 254 385 282 403 306 423 c 0
 315 431 324 438 334 445 c 1
 383 626 l 1
EndSplineSet
EndChar

StartChar: uni22420338
Encoding: 114 59470 114
Width: 660
Flags: HW
HStem: 121 74<376.407 491.367> 215 75<168.633 269.558> 358 74<90 311 400 570>
LayerCount: 2
Fore
SplineSet
348 238 m 1
 376 216 401 195 438 195 c 0
 474 195 501 223 527 249 c 1
 570 205 l 1
 531 166 492 121 438 121 c 0
 398 121 360 137 327 161 c 1
 277 -26 l 1
 213 -9 l 1
 270 202 l 1
 255 210 239 215 222 215 c 0
 186 215 159 187 133 161 c 1
 90 205 l 1
 129 244 168 290 222 290 c 0
 245 290 268 284 289 275 c 1
 311 358 l 1
 90 358 l 1
 90 432 l 1
 331 432 l 1
 383 626 l 1
 447 609 l 1
 400 432 l 1
 570 432 l 1
 570 358 l 1
 380 358 l 1
 348 238 l 1
EndSplineSet
EndChar

StartChar: uni2247
Encoding: 115 8775 115
Width: 660
Flags: HW
HStem: 73 74<90 235 323 570> 263 74<90 286 374 570> 405 75<414 491.367> 500 74<168.633 284.301>
LayerCount: 2
Fore
SplineSet
222 574 m 0
 285 574 334 535 354 518 c 1
 396 673 l 1
 460 656 l 1
 414 483 l 1
 422 481 430 480 438 480 c 0
 474 480 501 508 527 534 c 1
 570 490 l 1
 531 451 492 405 438 405 c 0
 423 405 408 407 394 411 c 1
 374 337 l 1
 570 337 l 1
 570 263 l 1
 354 263 l 1
 323 147 l 1
 570 147 l 1
 570 73 l 1
 303 73 l 1
 264 -73 l 1
 200 -56 l 1
 235 73 l 1
 90 73 l 1
 90 147 l 1
 255 147 l 1
 286 263 l 1
 90 263 l 1
 90 337 l 1
 306 337 l 1
 334 441 l 1
 324 447 315 455 306 462 c 0
 282 482 254 500 222 500 c 0
 186 500 159 472 133 446 c 1
 90 490 l 1
 129 529 168 574 222 574 c 0
EndSplineSet
EndChar

StartChar: uni224C0338
Encoding: 116 -1 116
Width: 660
Flags: HW
HStem: 73 74<90 235 323 570> 263 74<90 286 374 570> 405 75<168.633 282.681> 500 74<438 491.103>
LayerCount: 2
Fore
SplineSet
396 673 m 1
 460 656 l 1
 438 574 l 1
 492 574 531 529 570 490 c 1
 527 446 l 1
 501 472 474 500 438 500 c 0
 431 500 424 500 417 498 c 1
 374 337 l 1
 570 337 l 1
 570 263 l 1
 354 263 l 1
 323 147 l 1
 570 147 l 1
 570 73 l 1
 303 73 l 1
 264 -73 l 1
 200 -56 l 1
 235 73 l 1
 90 73 l 1
 90 147 l 1
 255 147 l 1
 286 263 l 1
 90 263 l 1
 90 337 l 1
 306 337 l 1
 335 447 l 1
 301 422 263 405 222 405 c 0
 168 405 129 451 90 490 c 1
 133 534 l 1
 159 508 186 480 222 480 c 0
 279 480 305 529 365 557 c 1
 396 673 l 1
EndSplineSet
EndChar

StartChar: uni224A0338
Encoding: 117 -1 117
Width: 660
Flags: HW
HStem: 73 74<90 235 323 570> 215 75<375.27 491.367> 310 75<168.633 284.73> 405 75<414 491.367> 500 74<168.633 284.301>
LayerCount: 2
Fore
SplineSet
222 574 m 0
 285 574 334 535 354 518 c 1
 396 673 l 1
 460 656 l 1
 414 483 l 1
 422 481 430 480 438 480 c 0
 474 480 501 508 527 534 c 1
 570 490 l 1
 531 451 492 405 438 405 c 0
 423 405 408 407 394 411 c 1
 369 316 l 1
 390 301 412 290 438 290 c 0
 474 290 501 318 527 344 c 1
 570 300 l 1
 531 261 492 215 438 215 c 0
 406 215 377 226 349 242 c 1
 323 147 l 1
 570 147 l 1
 570 73 l 1
 303 73 l 1
 264 -73 l 1
 200 -56 l 1
 235 73 l 1
 90 73 l 1
 90 147 l 1
 255 147 l 1
 291 284 l 1
 270 299 248 310 222 310 c 0
 186 310 159 282 133 256 c 1
 90 300 l 1
 129 339 168 385 222 385 c 0
 254 385 283 374 311 358 c 1
 334 441 l 1
 324 447 315 455 306 462 c 0
 282 482 254 500 222 500 c 0
 186 500 159 472 133 446 c 1
 90 490 l 1
 129 529 168 574 222 574 c 0
EndSplineSet
EndChar

StartChar: uni224F0338
Encoding: 118 59469 118
Width: 660
Flags: HW
HStem: 168 74<90 260 349 570> 358 74<90 209.592 449.755 570> 454 74<284.339 336.734>
LayerCount: 2
Fore
SplineSet
383 626 m 1
 447 609 l 1
 417 496 l 1
 436 479 451 457 458 432 c 1
 570 432 l 1
 570 358 l 1
 389 358 l 1
 389 392 l 1
 349 242 l 1
 570 242 l 1
 570 168 l 1
 329 168 l 1
 277 -26 l 1
 213 -9 l 1
 260 168 l 1
 90 168 l 1
 90 242 l 1
 280 242 l 1
 337 454 l 1
 335 454 332 454 330 454 c 0
 297 454 271 428 271 395 c 2
 271 358 l 1
 90 358 l 1
 90 432 l 1
 202 432 l 1
 218 487 269 528 330 528 c 0
 339 528 348 527 356 525 c 1
 383 626 l 1
EndSplineSet
EndChar

StartChar: uni2AAE0338
Encoding: 119 -1 119
Width: 660
Flags: HW
HStem: 73 74<90 235 323 570> 263 74<90 286 374 570> 453 74<90 209.592 449 570> 549 74<284.157 359.413>
LayerCount: 2
Fore
SplineSet
396 673 m 1
 460 656 l 1
 437 569 l 1
 446 556 453 542 458 527 c 1
 570 527 l 1
 570 453 l 1
 405 453 l 1
 374 337 l 1
 570 337 l 1
 570 263 l 1
 354 263 l 1
 323 147 l 1
 570 147 l 1
 570 73 l 1
 303 73 l 1
 264 -73 l 1
 200 -56 l 1
 235 73 l 1
 90 73 l 1
 90 147 l 1
 255 147 l 1
 286 263 l 1
 90 263 l 1
 90 337 l 1
 306 337 l 1
 360 541 l 1
 351 546 341 549 330 549 c 0
 297 549 271 523 271 490 c 2
 271 453 l 1
 90 453 l 1
 90 527 l 1
 202 527 l 1
 218 582 269 623 330 623 c 0
 348 623 365 619 380 613 c 1
 396 673 l 1
EndSplineSet
EndChar

StartChar: uni224E0338
Encoding: 120 58902 120
Width: 660
Flags: HW
HStem: 72 74<323.266 375.661> 168 74<90 210.245 450.408 570> 358 74<90 209.592 449.755 570> 454 74<284.339 336.734>
VStem: 90 181<208 242 358 431.601> 389 181<168.399 242 358 392>
LayerCount: 2
Fore
SplineSet
396 673 m 1
 460 656 l 1
 417 496 l 1
 436 479 451 457 458 432 c 1
 570 432 l 1
 570 358 l 1
 389 358 l 1
 389 392 l 1
 323 146 l 1
 325 146 328 146 330 146 c 0
 363 146 389 172 389 205 c 2
 389 242 l 1
 570 242 l 1
 570 168 l 1
 458 168 l 1
 442 113 391 72 330 72 c 0
 321 72 312 73 304 75 c 1
 264 -73 l 1
 200 -56 l 1
 243 104 l 1
 224 121 209 143 202 168 c 1
 90 168 l 1
 90 242 l 1
 271 242 l 1
 271 208 l 1
 337 454 l 1
 335 454 332 454 330 454 c 0
 297 454 271 428 271 395 c 2
 271 358 l 1
 90 358 l 1
 90 432 l 1
 202 432 l 1
 218 487 269 528 330 528 c 0
 339 528 348 527 356 525 c 1
 396 673 l 1
EndSplineSet
EndChar

StartChar: uni22500338
Encoding: 121 58250 121
Width: 660
Flags: HW
HStem: 168 74<90 260 349 570> 358 74<90 311 400 570> 522 126<295.599 359.577>
LayerCount: 2
Fore
SplineSet
330 648 m 0
 338 648 353 641 379 611 c 1
 396 673 l 1
 460 656 l 1
 400 432 l 1
 570 432 l 1
 570 358 l 1
 380 358 l 1
 349 242 l 1
 570 242 l 1
 570 168 l 1
 329 168 l 1
 264 -73 l 1
 200 -56 l 1
 260 168 l 1
 90 168 l 1
 90 242 l 1
 280 242 l 1
 311 358 l 1
 90 358 l 1
 90 432 l 1
 331 432 l 1
 360 539 l 1
 351 530 340 522 330 522 c 0
 312 522 267 567 267 585 c 0
 267 603 312 648 330 648 c 0
EndSplineSet
EndChar

StartChar: uni2A660338
Encoding: 122 -1 122
Width: 660
Flags: HW
HStem: -48 126<300.423 364.401> 168 74<90 260 349 570> 358 74<90 311 400 570>
LayerCount: 2
Fore
SplineSet
330 -48 m 0
 322 -48 307 -41 281 -11 c 1
 264 -73 l 1
 200 -56 l 1
 260 168 l 1
 90 168 l 1
 90 242 l 1
 280 242 l 1
 311 358 l 1
 90 358 l 1
 90 432 l 1
 331 432 l 1
 396 673 l 1
 460 656 l 1
 400 432 l 1
 570 432 l 1
 570 358 l 1
 380 358 l 1
 349 242 l 1
 570 242 l 1
 570 168 l 1
 329 168 l 1
 300 61 l 1
 309 70 320 78 330 78 c 0
 348 78 393 33 393 15 c 0
 393 -3 348 -48 330 -48 c 0
EndSplineSet
EndChar

StartChar: uni22510338
Encoding: 123 -1 123
Width: 660
Flags: HW
HStem: -48 126<300.423 364.401> 168 74<90 260 349 570> 358 74<90 311 400 570> 522 126<295.599 359.577>
LayerCount: 2
Fore
SplineSet
330 648 m 0
 338 648 353 641 379 611 c 1
 396 673 l 1
 460 656 l 1
 400 432 l 1
 570 432 l 1
 570 358 l 1
 380 358 l 1
 349 242 l 1
 570 242 l 1
 570 168 l 1
 329 168 l 1
 300 61 l 1
 309 70 320 78 330 78 c 0
 348 78 393 33 393 15 c 0
 393 -3 348 -48 330 -48 c 0
 322 -48 307 -41 281 -11 c 1
 264 -73 l 1
 200 -56 l 1
 260 168 l 1
 90 168 l 1
 90 242 l 1
 280 242 l 1
 311 358 l 1
 90 358 l 1
 90 432 l 1
 331 432 l 1
 360 539 l 1
 351 530 340 522 330 522 c 0
 312 522 267 567 267 585 c 0
 267 603 312 648 330 648 c 0
EndSplineSet
EndChar

StartChar: uni22520338
Encoding: 124 -1 124
Width: 660
Flags: HW
HStem: -48 126<472.599 541.401> 168 74<90 260 349 570> 358 74<90 311 400 570> 522 126<118.599 187.401>
VStem: 90 126<550.599 619.401> 444 126<-19.4012 49.4012>
LayerCount: 2
Fore
SplineSet
153 648 m 0
 171 648 216 603 216 585 c 0
 216 567 171 522 153 522 c 0
 135 522 90 567 90 585 c 0
 90 603 135 648 153 648 c 0
507 78 m 0
 525 78 570 33 570 15 c 0
 570 -3 525 -48 507 -48 c 0
 489 -48 444 -3 444 15 c 0
 444 33 489 78 507 78 c 0
396 673 m 1
 460 656 l 1
 400 432 l 1
 570 432 l 1
 570 358 l 1
 380 358 l 1
 349 242 l 1
 570 242 l 1
 570 168 l 1
 329 168 l 1
 264 -73 l 1
 200 -56 l 1
 260 168 l 1
 90 168 l 1
 90 242 l 1
 280 242 l 1
 311 358 l 1
 90 358 l 1
 90 432 l 1
 331 432 l 1
 396 673 l 1
EndSplineSet
EndChar

StartChar: uni22530338
Encoding: 125 -1 125
Width: 660
Flags: HW
HStem: -48 126<118.599 187.401> 168 74<90 260 349 570> 358 74<90 311 400 570> 522 126<472.599 541.401>
VStem: 90 126<-19.4012 49.4012> 444 126<550.599 619.401>
LayerCount: 2
Fore
SplineSet
507 648 m 0
 525 648 570 603 570 585 c 0
 570 567 525 522 507 522 c 0
 489 522 444 567 444 585 c 0
 444 603 489 648 507 648 c 0
153 78 m 0
 171 78 216 33 216 15 c 0
 216 -3 171 -48 153 -48 c 0
 135 -48 90 -3 90 15 c 0
 90 33 135 78 153 78 c 0
396 673 m 1
 460 656 l 1
 400 432 l 1
 570 432 l 1
 570 358 l 1
 380 358 l 1
 349 242 l 1
 570 242 l 1
 570 168 l 1
 329 168 l 1
 264 -73 l 1
 200 -56 l 1
 260 168 l 1
 90 168 l 1
 90 242 l 1
 280 242 l 1
 311 358 l 1
 90 358 l 1
 90 432 l 1
 331 432 l 1
 396 673 l 1
EndSplineSet
EndChar

StartChar: uni23230338
Encoding: 126 -1 126
Width: 660
Flags: HW
HStem: 220 73<226.981 274 362 432.28>
LayerCount: 2
Fore
SplineSet
370 578 m 1
 434 561 l 1
 362 292 l 1
 421 300 475 332 518 374 c 1
 570 321 l 1
 508 260 429 218 342 215 c 1
 290 22 l 1
 226 39 l 1
 274 220 l 1
 205 233 142 270 90 321 c 1
 142 374 l 1
 184 333 237 302 294 293 c 1
 370 578 l 1
EndSplineSet
EndChar

StartChar: uni23220338
Encoding: 127 -1 127
Width: 660
Flags: HW
HStem: 308 77<227.72 298 386 430.368>
LayerCount: 2
Fore
SplineSet
370 578 m 1
 434 561 l 1
 386 380 l 1
 455 367 518 330 570 279 c 1
 518 226 l 1
 476 267 423 298 366 307 c 1
 290 22 l 1
 226 39 l 1
 298 308 l 1
 239 300 185 268 142 226 c 1
 90 279 l 1
 152 340 231 382 318 385 c 1
 370 578 l 1
EndSplineSet
EndChar

StartChar: uni226D
Encoding: 128 8813 128
Width: 660
Flags: HW
HStem: 184 73<353 427.112> 343 73<232.888 307>
LayerCount: 2
Fore
SplineSet
396 673 m 1
 460 656 l 1
 398 426 l 1
 443 440 484 466 518 500 c 1
 570 448 l 1
 516 395 450 358 377 346 c 1
 353 257 l 1
 435 251 510 211 570 152 c 1
 518 100 l 1
 468 149 403 183 333 184 c 1
 264 -73 l 1
 200 -56 l 1
 262 174 l 1
 217 160 176 134 142 100 c 1
 90 152 l 1
 144 205 210 242 283 254 c 1
 307 343 l 1
 225 349 150 389 90 448 c 1
 142 500 l 1
 192 451 257 417 327 416 c 1
 396 673 l 1
EndSplineSet
EndChar

StartChar: uni20500338
Encoding: 129 -1 129
Width: 660
Flags: HW
HStem: 89 74<327.332 424.84> 437 74<235.16 332.668>
LayerCount: 2
Fore
SplineSet
396 673 m 1
 460 656 l 1
 418 498 l 1
 475 481 526 448 570 405 c 1
 518 353 l 1
 484 386 443 413 398 427 c 1
 327 163 l 1
 328 163 329 163 330 163 c 0
 401 163 467 197 518 247 c 1
 570 195 l 1
 505 131 421 89 330 89 c 0
 323 89 315 89 308 90 c 1
 264 -73 l 1
 200 -56 l 1
 242 102 l 1
 185 119 134 152 90 195 c 1
 142 247 l 1
 176 214 217 187 262 173 c 1
 333 437 l 1
 332 437 331 437 330 437 c 0
 259 437 193 403 142 353 c 1
 90 405 l 1
 155 469 239 511 330 511 c 0
 337 511 345 511 352 510 c 1
 396 673 l 1
EndSplineSet
EndChar

StartChar: sym020_uni0338
Encoding: 130 -1 130
Width: 660
Flags: HW
HStem: 73 74<90 235 323 570> 263 74<90 286 374 570> 405 75<231.564 324>
LayerCount: 2
Fore
SplineSet
396 673 m 1
 460 656 l 1
 417 497 l 1
 454 512 489 535 518 564 c 1
 570 511 l 1
 521 462 460 426 394 412 c 1
 374 337 l 1
 570 337 l 1
 570 263 l 1
 354 263 l 1
 323 147 l 1
 570 147 l 1
 570 73 l 1
 303 73 l 1
 264 -73 l 1
 200 -56 l 1
 235 73 l 1
 90 73 l 1
 90 147 l 1
 255 147 l 1
 286 263 l 1
 90 263 l 1
 90 337 l 1
 306 337 l 1
 324 405 l 1
 235 407 154 448 90 511 c 1
 142 564 l 1
 193 514 259 480 330 480 c 0
 335 480 339 480 344 480 c 1
 396 673 l 1
EndSplineSet
EndChar

StartChar: uni22580338
Encoding: 131 -1 131
Width: 660
Flags: HW
HStem: 73 74<90 235 323 570> 263 74<90 286 374 570> 500 74<233.322 349>
LayerCount: 2
Fore
SplineSet
396 673 m 1
 460 656 l 1
 433 556 l 1
 484 538 531 508 570 469 c 1
 518 416 l 1
 488 446 453 469 414 484 c 1
 374 337 l 1
 570 337 l 1
 570 263 l 1
 354 263 l 1
 323 147 l 1
 570 147 l 1
 570 73 l 1
 303 73 l 1
 264 -73 l 1
 200 -56 l 1
 235 73 l 1
 90 73 l 1
 90 147 l 1
 255 147 l 1
 286 263 l 1
 90 263 l 1
 90 337 l 1
 306 337 l 1
 349 499 l 1
 343 500 336 500 330 500 c 0
 259 500 193 466 142 416 c 1
 90 469 l 1
 155 533 239 574 330 574 c 0
 343 574 356 574 369 572 c 1
 396 673 l 1
EndSplineSet
EndChar

StartChar: uni22560338
Encoding: 132 -1 132
Width: 660
Flags: HW
HStem: 168 74<90 240 420 570> 358 74<90 240 420 570>
VStem: 223 56<271.554 341.825> 381 56<258.175 328.446>
LayerCount: 2
Fore
SplineSet
308 346 m 1
 304 344 279 332 279 300 c 0
 279 289 282 279 288 271 c 1
 308 346 l 1
352 254 m 1
 356 256 381 268 381 300 c 0
 381 311 378 321 372 329 c 1
 352 254 l 1
383 626 m 1
 447 609 l 1
 400 432 l 1
 570 432 l 1
 570 358 l 1
 420 358 l 1
 431 341 437 320 437 300 c 0
 437 280 431 259 420 242 c 1
 570 242 l 1
 570 168 l 1
 329 168 l 1
 277 -26 l 1
 213 -9 l 1
 260 168 l 1
 90 168 l 1
 90 242 l 1
 240 242 l 1
 229 259 223 280 223 300 c 0
 223 320 229 341 240 358 c 1
 90 358 l 1
 90 432 l 1
 331 432 l 1
 383 626 l 1
EndSplineSet
EndChar

StartChar: uni22570338
Encoding: 133 -1 133
Width: 660
Flags: HW
HStem: 168 74<90 234 324 570> 358 74<90 285 375 570> 526 55<288.735 330> 684 55<288.547 367.596>
VStem: 223 56<590.362 674.755>
LayerCount: 2
Fore
SplineSet
279 632 m 0
 279 603 303 581 330 581 c 0
 335 581 341 582 346 584 c 1
 368 667 l 1
 364 672 351 684 330 684 c 0
 304 684 279 664 279 632 c 0
223 632 m 0
 223 694 272 739 330 739 c 0
 349 739 368 734 384 725 c 1
 408 816 l 1
 473 799 l 1
 435 655 l 1
 437 647 437 640 437 632 c 0
 437 605 427 580 409 560 c 1
 375 432 l 1
 570 432 l 1
 570 358 l 1
 355 358 l 1
 324 242 l 1
 570 242 l 1
 570 168 l 1
 304 168 l 1
 252 -26 l 1
 187 -9 l 1
 234 168 l 1
 90 168 l 1
 90 242 l 1
 254 242 l 1
 285 358 l 1
 90 358 l 1
 90 432 l 1
 305 432 l 1
 330 526 l 1
 271 526 223 573 223 632 c 0
EndSplineSet
EndChar

StartChar: uni22590338
Encoding: 134 -1 134
Width: 660
Flags: HW
HStem: 168 74<90 234 324 570> 358 74<90 285 375 570>
LayerCount: 2
Fore
SplineSet
408 816 m 1
 473 799 l 1
 436 660 l 1
 532 535 l 1
 473 490 l 1
 412 570 l 1
 375 432 l 1
 570 432 l 1
 570 358 l 1
 355 358 l 1
 324 242 l 1
 570 242 l 1
 570 168 l 1
 304 168 l 1
 252 -26 l 1
 187 -9 l 1
 234 168 l 1
 90 168 l 1
 90 242 l 1
 254 242 l 1
 285 358 l 1
 90 358 l 1
 90 432 l 1
 305 432 l 1
 360 638 l 1
 330 677 l 1
 187 490 l 1
 128 535 l 1
 312 775 l 1
 348 775 l 1
 384 728 l 1
 408 816 l 1
EndSplineSet
EndChar

StartChar: uni225A0338
Encoding: 135 -1 135
Width: 660
Flags: HW
HStem: 168 74<90 234 324 570> 358 74<90 285 375 570>
LayerCount: 2
Fore
SplineSet
408 816 m 1
 473 799 l 1
 463 762 l 1
 473 775 l 1
 532 730 l 1
 413 575 l 1
 375 432 l 1
 570 432 l 1
 570 358 l 1
 355 358 l 1
 324 242 l 1
 570 242 l 1
 570 168 l 1
 304 168 l 1
 252 -26 l 1
 187 -9 l 1
 234 168 l 1
 90 168 l 1
 90 242 l 1
 254 242 l 1
 285 358 l 1
 90 358 l 1
 90 432 l 1
 305 432 l 1
 321 490 l 1
 312 490 l 1
 128 730 l 1
 187 775 l 1
 330 588 l 1
 356 622 l 1
 408 816 l 1
EndSplineSet
EndChar

StartChar: uni225B0338
Encoding: 136 -1 136
Width: 660
Flags: HW
HStem: 168 74<90 234 324 570> 358 74<90 285 375 570>
LayerCount: 2
Fore
SplineSet
408 816 m 1
 473 799 l 1
 443 687 l 1
 496 686 l 1
 429 636 l 1
 410 564 l 1
 432 492 l 1
 397 516 l 1
 375 432 l 1
 570 432 l 1
 570 358 l 1
 355 358 l 1
 324 242 l 1
 570 242 l 1
 570 168 l 1
 304 168 l 1
 252 -26 l 1
 187 -9 l 1
 234 168 l 1
 90 168 l 1
 90 242 l 1
 254 242 l 1
 285 358 l 1
 90 358 l 1
 90 432 l 1
 305 432 l 1
 339 557 l 1
 330 563 l 1
 228 492 l 1
 264 611 l 1
 164 686 l 1
 289 689 l 1
 330 807 l 1
 371 689 l 1
 374 689 l 1
 408 816 l 1
EndSplineSet
EndChar

StartChar: uni225C0338
Encoding: 137 -1 137
Width: 660
Flags: HW
HStem: 168 74<90 234 324 570> 358 74<90 285 375 570> 533 56<255 332>
LayerCount: 2
Fore
SplineSet
330 719 m 1
 255 589 l 1
 347 589 l 1
 366 657 l 1
 330 719 l 1
408 816 m 1
 473 799 l 1
 433 651 l 1
 501 533 l 1
 402 533 l 1
 375 432 l 1
 570 432 l 1
 570 358 l 1
 355 358 l 1
 324 242 l 1
 570 242 l 1
 570 168 l 1
 304 168 l 1
 252 -26 l 1
 187 -9 l 1
 234 168 l 1
 90 168 l 1
 90 242 l 1
 254 242 l 1
 285 358 l 1
 90 358 l 1
 90 432 l 1
 305 432 l 1
 332 533 l 1
 159 533 l 1
 330 830 l 1
 386 733 l 1
 408 816 l 1
EndSplineSet
EndChar

StartChar: notelement
Encoding: 138 8713 138
Width: 660
Flags: HW
HStem: 26 74<311.219 570> 263 74<167 285 375 570> 500 74<249.717 349 438 570>
VStem: 90 77<193.451 263 337 403.562>
CounterMasks: 1 e0
LayerCount: 2
Fore
SplineSet
305 337 m 1
 349 500 l 1
 322 500 l 2
 238 500 180 426 167 337 c 1
 305 337 l 1
285 263 m 1
 167 263 l 1
 176 204 204 150 248 122 c 1
 285 263 l 1
408 721 m 1
 473 704 l 1
 438 574 l 1
 570 574 l 1
 570 500 l 1
 418 500 l 1
 375 337 l 1
 570 337 l 1
 570 263 l 1
 355 263 l 1
 311 100 l 1
 315 100 318 100 322 100 c 2
 570 100 l 1
 570 26 l 1
 322 26 l 2
 312 26 302 27 292 28 c 1
 252 -121 l 1
 187 -104 l 1
 228 49 l 1
 144 92 90 192 90 300 c 0
 90 444 185 574 322 574 c 2
 369 574 l 1
 408 721 l 1
EndSplineSet
EndChar

StartChar: uni220C
Encoding: 139 8716 139
Width: 660
Flags: HW
HStem: 26 74<90 222 311 410.283> 263 74<90 285 375 493> 500 74<90 348.781>
VStem: 493 77<196.438 263 337 406.549>
CounterMasks: 1 e0
LayerCount: 2
Fore
SplineSet
355 263 m 1
 311 100 l 1
 338 100 l 2
 422 100 480 174 493 263 c 1
 355 263 l 1
375 337 m 1
 493 337 l 1
 484 396 456 450 412 478 c 1
 375 337 l 1
408 721 m 1
 473 704 l 1
 432 551 l 1
 516 508 570 408 570 300 c 0
 570 156 475 26 338 26 c 2
 291 26 l 1
 252 -121 l 1
 187 -104 l 1
 222 26 l 1
 90 26 l 1
 90 100 l 1
 242 100 l 1
 285 263 l 1
 90 263 l 1
 90 337 l 1
 305 337 l 1
 349 500 l 1
 345 500 342 500 338 500 c 2
 90 500 l 1
 90 574 l 1
 338 574 l 2
 348 574 358 573 368 572 c 1
 408 721 l 1
EndSplineSet
EndChar

StartChar: uni226E
Encoding: 140 8814 140
Width: 660
Flags: HW
LayerCount: 2
Fore
SplineSet
284 257 m 1
 311 357 l 1
 205 300 l 1
 284 257 l 1
396 673 m 1
 460 656 l 1
 417 498 l 1
 535 561 l 1
 570 496 l 1
 391 400 l 1
 344 225 l 1
 570 104 l 1
 535 39 l 1
 325 152 l 1
 264 -73 l 1
 200 -56 l 1
 265 184 l 1
 90 278 l 1
 90 322 l 1
 337 455 l 1
 396 673 l 1
EndSplineSet
EndChar

StartChar: uni226F
Encoding: 141 8815 141
Width: 660
Flags: HW
LayerCount: 2
Fore
SplineSet
376 343 m 1
 349 243 l 1
 455 300 l 1
 376 343 l 1
396 673 m 1
 460 656 l 1
 395 416 l 1
 570 322 l 1
 570 278 l 1
 323 145 l 1
 264 -73 l 1
 200 -56 l 1
 243 102 l 1
 125 39 l 1
 90 104 l 1
 269 200 l 1
 316 375 l 1
 90 496 l 1
 125 561 l 1
 335 448 l 1
 396 673 l 1
EndSplineSet
EndChar

StartChar: uni2270
Encoding: 142 8816 142
Width: 660
Flags: HW
HStem: 22 74<90 221 310 570> 689 20G<399.679 469>
LayerCount: 2
Fore
SplineSet
304 332 m 1
 323 402 l 1
 226 363 l 1
 304 332 l 1
405 709 m 1
 469 692 l 1
 424 522 l 1
 542 570 l 1
 570 502 l 1
 400 433 l 1
 366 307 l 1
 570 225 l 1
 542 156 l 1
 347 235 l 1
 310 96 l 1
 570 96 l 1
 570 22 l 1
 290 22 l 1
 255 -109 l 1
 191 -92 l 1
 221 22 l 1
 90 22 l 1
 90 96 l 1
 241 96 l 1
 285 260 l 1
 90 338 l 1
 90 388 l 1
 347 491 l 1
 405 709 l 1
EndSplineSet
EndChar

StartChar: uni2271
Encoding: 143 8817 143
Width: 660
Flags: HW
HStem: 22 74<90 221 310 570> 689 20G<399.696 469>
LayerCount: 2
Fore
SplineSet
386 382 m 1
 375 339 l 1
 434 363 l 1
 386 382 l 1
405 709 m 1
 469 692 l 1
 405 454 l 1
 570 388 l 1
 570 338 l 1
 351 250 l 1
 310 96 l 1
 570 96 l 1
 570 22 l 1
 290 22 l 1
 255 -109 l 1
 191 -92 l 1
 221 22 l 1
 90 22 l 1
 90 96 l 1
 241 96 l 1
 274 219 l 1
 118 156 l 1
 90 225 l 1
 298 308 l 1
 324 407 l 1
 90 502 l 1
 118 570 l 1
 344 479 l 1
 405 709 l 1
EndSplineSet
EndChar

StartChar: uni2A7D0338
Encoding: 144 58023 144
Width: 660
Flags: HW
HStem: -2 21G<492.426 550.116> 689 20G<399.615 469>
LayerCount: 2
Fore
SplineSet
312 361 m 1
 333 438 l 1
 226 395 l 1
 312 361 l 1
405 709 m 1
 469 692 l 1
 433 558 l 1
 542 602 l 1
 570 533 l 1
 409 469 l 1
 374 336 l 1
 570 257 l 1
 542 188 l 1
 355 263 l 1
 328 164 l 1
 570 67 l 1
 542 -2 l 1
 309 92 l 1
 255 -109 l 1
 191 -92 l 1
 247 117 l 1
 90 180 l 1
 118 249 l 1
 266 189 l 1
 293 288 l 1
 90 370 l 1
 90 420 l 1
 356 527 l 1
 405 709 l 1
EndSplineSet
EndChar

StartChar: uni2A7E0338
Encoding: 145 58022 145
Width: 660
Flags: HW
HStem: -2 21G<109.884 167.545> 689 20G<399.627 469>
LayerCount: 2
Fore
SplineSet
394 411 m 1
 384 375 l 1
 434 395 l 1
 394 411 l 1
405 709 m 1
 469 692 l 1
 413 483 l 1
 570 420 l 1
 570 370 l 1
 360 286 l 1
 328 163 l 1
 542 249 l 1
 570 180 l 1
 304 73 l 1
 255 -109 l 1
 191 -92 l 1
 227 42 l 1
 118 -2 l 1
 90 67 l 1
 251 132 l 1
 284 255 l 1
 118 188 l 1
 90 257 l 1
 308 344 l 1
 332 436 l 1
 90 533 l 1
 118 602 l 1
 351 508 l 1
 405 709 l 1
EndSplineSet
EndChar

StartChar: uni22660338
Encoding: 146 58024 146
Width: 660
Flags: HW
HStem: -73 74<90 196 284 570> 117 74<90 247 335 570>
LayerCount: 2
Fore
SplineSet
327 417 m 1
 352 509 l 1
 226 458 l 1
 327 417 l 1
422 772 m 1
 486 755 l 1
 452 629 l 1
 542 665 l 1
 570 597 l 1
 428 540 l 1
 389 393 l 1
 570 320 l 1
 542 251 l 1
 370 320 l 1
 335 191 l 1
 570 191 l 1
 570 117 l 1
 315 117 l 1
 284 1 l 1
 570 1 l 1
 570 -73 l 1
 264 -73 l 1
 238 -172 l 1
 174 -155 l 1
 196 -73 l 1
 90 -73 l 1
 90 1 l 1
 216 1 l 1
 247 117 l 1
 90 117 l 1
 90 191 l 1
 267 191 l 1
 308 345 l 1
 90 433 l 1
 90 483 l 1
 375 598 l 1
 422 772 l 1
EndSplineSet
EndChar

StartChar: uni22670338
Encoding: 147 58021 147
Width: 660
Flags: HW
HStem: -73 74<90 196 284 570> 117 74<90 247 335 570>
LayerCount: 2
Fore
SplineSet
409 468 m 1
 403 446 l 1
 434 458 l 1
 409 468 l 1
422 772 m 1
 486 755 l 1
 428 540 l 1
 570 483 l 1
 570 433 l 1
 379 356 l 1
 335 191 l 1
 570 191 l 1
 570 117 l 1
 315 117 l 1
 284 1 l 1
 570 1 l 1
 570 -73 l 1
 264 -73 l 1
 238 -172 l 1
 174 -155 l 1
 196 -73 l 1
 90 -73 l 1
 90 1 l 1
 216 1 l 1
 247 117 l 1
 90 117 l 1
 90 191 l 1
 267 191 l 1
 302 325 l 1
 118 251 l 1
 90 320 l 1
 326 415 l 1
 347 493 l 1
 90 597 l 1
 118 665 l 1
 367 565 l 1
 422 772 l 1
EndSplineSet
EndChar

StartChar: uni2274
Encoding: 148 8820 148
Width: 660
Flags: HW
HStem: -10 74<376.279 491.367> 85 74<168.633 238> 689 20G<399.615 469>
LayerCount: 2
Fore
SplineSet
312 361 m 1
 333 438 l 1
 226 395 l 1
 312 361 l 1
438 -10 m 0
 377 -10 333 24 298 52 c 1
 255 -109 l 1
 191 -92 l 1
 238 83 l 1
 233 84 227 85 222 85 c 0
 186 85 159 56 133 31 c 1
 90 74 l 1
 129 113 168 159 222 159 c 0
 234 159 246 158 257 155 c 1
 293 288 l 1
 90 370 l 1
 90 420 l 1
 356 527 l 1
 405 709 l 1
 469 692 l 1
 433 558 l 1
 542 602 l 1
 570 533 l 1
 409 469 l 1
 374 336 l 1
 570 257 l 1
 542 188 l 1
 355 263 l 1
 318 128 l 1
 330 120 343 112 354 103 c 0
 378 82 406 64 438 64 c 0
 474 64 501 93 527 118 c 1
 570 74 l 1
 531 36 492 -10 438 -10 c 0
EndSplineSet
EndChar

StartChar: uni2275
Encoding: 149 8821 149
Width: 660
Flags: HW
HStem: -10 74<376.279 491.367> 85 74<168.633 238> 689 20G<399.627 469>
LayerCount: 2
Fore
SplineSet
394 411 m 1
 384 375 l 1
 434 395 l 1
 394 411 l 1
438 -10 m 0
 377 -10 333 24 298 52 c 1
 255 -109 l 1
 191 -92 l 1
 238 83 l 1
 233 84 227 85 222 85 c 0
 186 85 159 56 133 31 c 1
 90 74 l 1
 129 113 168 159 222 159 c 0
 234 159 246 158 257 155 c 1
 284 255 l 1
 118 188 l 1
 90 257 l 1
 308 344 l 1
 332 436 l 1
 90 533 l 1
 118 602 l 1
 351 508 l 1
 405 709 l 1
 469 692 l 1
 413 483 l 1
 570 420 l 1
 570 370 l 1
 360 286 l 1
 318 128 l 1
 330 120 343 112 354 103 c 0
 378 82 406 64 438 64 c 0
 474 64 501 93 527 118 c 1
 570 74 l 1
 531 36 492 -10 438 -10 c 0
EndSplineSet
EndChar

StartChar: uni2A850338
Encoding: 150 -1 150
Width: 660
Flags: HW
HStem: -105 74<377.679 491.367> 85 74<376.712 491.367> 180 74<168.633 260.401> 736 20G<412.59 482>
LayerCount: 2
Fore
SplineSet
335 446 m 1
 361 544 l 1
 226 490 l 1
 335 446 l 1
296 46 m 1
 358 16 382 -31 438 -31 c 0
 474 -31 501 -2 527 23 c 1
 570 -21 l 1
 531 -59 492 -105 438 -105 c 0
 389 -105 344 -80 306 -49 c 0
 297 -41 286 -33 276 -27 c 1
 242 -156 l 1
 178 -139 l 1
 212 -11 l 1
 181 -16 157 -41 133 -64 c 1
 90 -21 l 1
 129 18 168 64 222 64 c 0
 225 64 229 64 232 64 c 1
 261 171 l 1
 249 177 236 180 222 180 c 0
 186 180 159 151 133 126 c 1
 90 169 l 1
 129 208 168 254 222 254 c 0
 242 254 261 250 280 243 c 1
 316 374 l 1
 90 465 l 1
 90 515 l 1
 385 634 l 1
 418 756 l 1
 482 739 l 1
 462 665 l 1
 542 697 l 1
 570 628 l 1
 438 575 l 1
 397 421 l 1
 570 352 l 1
 542 283 l 1
 377 349 l 1
 340 209 l 1
 345 205 349 202 354 198 c 0
 378 177 406 159 438 159 c 0
 474 159 501 188 527 213 c 1
 570 169 l 1
 531 131 492 85 438 85 c 0
 394 85 354 105 319 131 c 1
 296 46 l 1
EndSplineSet
EndChar

StartChar: uni2A860338
Encoding: 151 -1 151
Width: 660
Flags: HW
HStem: -105 74<377.679 491.367> 85 74<376.712 491.367> 180 74<168.633 260.401> 736 20G<412.568 482>
LayerCount: 2
Fore
SplineSet
417 497 m 1
 413 482 l 1
 434 490 l 1
 417 497 l 1
296 46 m 1
 358 16 382 -31 438 -31 c 0
 474 -31 501 -2 527 23 c 1
 570 -21 l 1
 531 -59 492 -105 438 -105 c 0
 389 -105 344 -80 306 -49 c 0
 297 -41 286 -33 276 -27 c 1
 242 -156 l 1
 178 -139 l 1
 212 -11 l 1
 181 -16 157 -41 133 -64 c 1
 90 -21 l 1
 129 18 168 64 222 64 c 0
 225 64 229 64 232 64 c 1
 261 171 l 1
 249 177 236 180 222 180 c 0
 186 180 159 151 133 126 c 1
 90 169 l 1
 129 208 168 254 222 254 c 0
 242 254 261 250 280 243 c 1
 312 361 l 1
 118 283 l 1
 90 352 l 1
 336 451 l 1
 355 522 l 1
 90 628 l 1
 118 697 l 1
 374 594 l 1
 418 756 l 1
 482 739 l 1
 436 569 l 1
 570 515 l 1
 570 465 l 1
 389 392 l 1
 340 209 l 1
 345 205 349 202 354 198 c 0
 378 177 406 159 438 159 c 0
 474 159 501 188 527 213 c 1
 570 169 l 1
 531 131 492 85 438 85 c 0
 394 85 354 105 319 131 c 1
 296 46 l 1
EndSplineSet
EndChar

StartChar: uni2278
Encoding: 152 8824 152
Width: 660
Flags: HW
LayerCount: 2
Fore
SplineSet
333 441 m 1
 359 537 l 1
 226 484 l 1
 333 441 l 1
327 159 m 1
 301 63 l 1
 434 116 l 1
 327 159 l 1
429 798 m 1
 493 781 l 1
 460 658 l 1
 542 691 l 1
 570 622 l 1
 436 568 l 1
 395 416 l 1
 570 346 l 1
 542 277 l 1
 376 344 l 1
 346 231 l 1
 570 141 l 1
 570 91 l 1
 277 -27 l 1
 231 -198 l 1
 167 -181 l 1
 200 -58 l 1
 118 -91 l 1
 90 -22 l 1
 224 32 l 1
 265 184 l 1
 90 254 l 1
 118 323 l 1
 284 256 l 1
 314 369 l 1
 90 459 l 1
 90 509 l 1
 383 627 l 1
 429 798 l 1
EndSplineSet
EndChar

StartChar: uni2279
Encoding: 153 8825 153
Width: 660
Flags: HW
LayerCount: 2
Fore
SplineSet
416 491 m 1
 412 475 l 1
 434 484 l 1
 416 491 l 1
244 109 m 1
 248 125 l 1
 226 116 l 1
 244 109 l 1
416 750 m 1
 481 733 l 1
 435 563 l 1
 570 509 l 1
 570 459 l 1
 388 386 l 1
 350 246 l 1
 542 323 l 1
 570 254 l 1
 326 156 l 1
 307 84 l 1
 570 -22 l 1
 542 -91 l 1
 287 12 l 1
 244 -150 l 1
 179 -133 l 1
 225 37 l 1
 90 91 l 1
 90 141 l 1
 272 214 l 1
 310 354 l 1
 118 277 l 1
 90 346 l 1
 334 444 l 1
 353 516 l 1
 90 622 l 1
 118 691 l 1
 373 588 l 1
 416 750 l 1
EndSplineSet
EndChar

StartChar: uni22DA0338
Encoding: 154 -1 154
Width: 660
Flags: HW
HStem: 263 74<90 285 375 570>
LayerCount: 2
Fore
SplineSet
362 550 m 1
 395 673 l 1
 226 605 l 1
 362 550 l 1
298 50 m 1
 265 -73 l 1
 434 -5 l 1
 298 50 l 1
461 919 m 1
 526 901 l 1
 497 794 l 1
 542 812 l 1
 570 743 l 1
 473 704 l 1
 425 525 l 1
 570 467 l 1
 542 398 l 1
 406 453 l 1
 375 337 l 1
 570 337 l 1
 570 263 l 1
 355 263 l 1
 317 122 l 1
 570 20 l 1
 570 -30 l 1
 241 -162 l 1
 199 -319 l 1
 134 -301 l 1
 163 -194 l 1
 118 -212 l 1
 90 -143 l 1
 187 -104 l 1
 235 75 l 1
 90 133 l 1
 118 202 l 1
 254 147 l 1
 285 263 l 1
 90 263 l 1
 90 337 l 1
 305 337 l 1
 343 478 l 1
 90 580 l 1
 90 630 l 1
 419 762 l 1
 461 919 l 1
EndSplineSet
EndChar

StartChar: uni22DB0338
Encoding: 155 -1 155
Width: 660
Flags: HW
HStem: -224 21G<160 229.397> 263 74<90 286 374 570>
LayerCount: 2
Fore
SplineSet
436 824 m 1
 500 806 l 1
 464 673 l 1
 570 630 l 1
 570 580 l 1
 424 521 l 1
 374 337 l 1
 570 337 l 1
 570 263 l 1
 354 263 l 1
 313 110 l 1
 542 202 l 1
 570 133 l 1
 290 20 l 1
 277 -26 l 1
 570 -143 l 1
 542 -212 l 1
 258 -98 l 1
 224 -224 l 1
 160 -206 l 1
 196 -73 l 1
 90 -30 l 1
 90 20 l 1
 236 79 l 1
 286 263 l 1
 90 263 l 1
 90 337 l 1
 306 337 l 1
 347 490 l 1
 118 398 l 1
 90 467 l 1
 370 580 l 1
 383 626 l 1
 90 743 l 1
 118 812 l 1
 402 698 l 1
 436 824 l 1
EndSplineSet
EndChar

StartChar: uni2A8B0338
Encoding: 156 -1 156
Width: 660
Flags: HW
HStem: 168 74<90 260 349 570> 358 74<90 311 400 570>
LayerCount: 2
Fore
SplineSet
386 636 m 1
 424 779 l 1
 226 700 l 1
 386 636 l 1
274 -36 m 1
 236 -179 l 1
 434 -100 l 1
 274 -36 l 1
487 1014 m 1
 551 996 l 1
 525 900 l 1
 542 907 l 1
 570 838 l 1
 501 810 l 1
 448 611 l 1
 570 562 l 1
 542 493 l 1
 428 539 l 1
 400 432 l 1
 570 432 l 1
 570 358 l 1
 380 358 l 1
 349 242 l 1
 570 242 l 1
 570 168 l 1
 329 168 l 1
 294 36 l 1
 570 -75 l 1
 570 -125 l 1
 212 -269 l 1
 173 -414 l 1
 109 -396 l 1
 135 -300 l 1
 118 -307 l 1
 90 -238 l 1
 159 -210 l 1
 212 -11 l 1
 90 38 l 1
 118 107 l 1
 232 61 l 1
 260 168 l 1
 90 168 l 1
 90 242 l 1
 280 242 l 1
 311 358 l 1
 90 358 l 1
 90 432 l 1
 331 432 l 1
 366 564 l 1
 90 675 l 1
 90 725 l 1
 448 869 l 1
 487 1014 l 1
EndSplineSet
EndChar

StartChar: uni2A8C0338
Encoding: 157 -1 157
Width: 660
Flags: HW
HStem: 168 74<90 260 349 570> 358 74<90 311 400 570>
LayerCount: 2
Fore
SplineSet
461 919 m 1
 526 901 l 1
 488 758 l 1
 570 725 l 1
 570 675 l 1
 453 628 l 1
 400 432 l 1
 570 432 l 1
 570 358 l 1
 380 358 l 1
 349 242 l 1
 570 242 l 1
 570 168 l 1
 330 168 l 1
 285 4 l 1
 542 107 l 1
 570 38 l 1
 262 -86 l 1
 255 -111 l 1
 570 -238 l 1
 542 -307 l 1
 235 -184 l 1
 199 -319 l 1
 134 -301 l 1
 172 -158 l 1
 90 -125 l 1
 90 -75 l 1
 207 -28 l 1
 260 168 l 1
 90 168 l 1
 90 242 l 1
 280 242 l 1
 311 358 l 1
 90 358 l 1
 90 432 l 1
 330 432 l 1
 375 596 l 1
 118 493 l 1
 90 562 l 1
 398 686 l 1
 405 711 l 1
 90 838 l 1
 118 907 l 1
 425 784 l 1
 461 919 l 1
EndSplineSet
EndChar

StartChar: uni22DA0338.alt
Encoding: 158 -1 158
Width: 660
Flags: HW
LayerCount: 2
Fore
SplineSet
356 527 m 1
 387 644 l 1
 226 579 l 1
 356 527 l 1
304 73 m 1
 273 -44 l 1
 434 21 l 1
 304 73 l 1
454 893 m 1
 519 876 l 1
 489 765 l 1
 542 786 l 1
 570 717 l 1
 465 675 l 1
 419 502 l 1
 570 441 l 1
 542 372 l 1
 399 429 l 1
 371 323 l 1
 570 243 l 1
 542 175 l 1
 352 252 l 1
 323 145 l 1
 570 46 l 1
 570 -4 l 1
 249 -133 l 1
 206 -293 l 1
 141 -276 l 1
 171 -165 l 1
 118 -186 l 1
 90 -117 l 1
 195 -75 l 1
 241 98 l 1
 90 159 l 1
 118 228 l 1
 261 171 l 1
 289 277 l 1
 90 357 l 1
 118 425 l 1
 308 348 l 1
 337 455 l 1
 90 554 l 1
 90 604 l 1
 411 733 l 1
 454 893 l 1
EndSplineSet
EndChar

StartChar: uni22DB0338.alt
Encoding: 159 -1 159
Width: 660
Flags: HW
LayerCount: 2
Fore
SplineSet
429 798 m 1
 493 781 l 1
 458 649 l 1
 570 604 l 1
 570 554 l 1
 416 492 l 1
 380 360 l 1
 542 425 l 1
 570 357 l 1
 357 271 l 1
 321 139 l 1
 542 228 l 1
 570 159 l 1
 297 50 l 1
 283 -2 l 1
 570 -117 l 1
 542 -186 l 1
 264 -74 l 1
 231 -198 l 1
 167 -181 l 1
 202 -49 l 1
 90 -4 l 1
 90 46 l 1
 244 108 l 1
 280 240 l 1
 118 175 l 1
 90 243 l 1
 303 329 l 1
 339 461 l 1
 118 372 l 1
 90 441 l 1
 363 550 l 1
 377 602 l 1
 90 717 l 1
 118 786 l 1
 396 674 l 1
 429 798 l 1
EndSplineSet
EndChar

StartChar: uni226A0338
Encoding: 160 58059 160
Width: 1114
Flags: HW
LayerCount: 2
Fore
SplineSet
537 355 m 1
 566 461 l 1
 216 300 l 1
 489 174 l 1
 511 257 l 1
 470 276 l 1
 470 324 l 1
 537 355 l 1
623 673 m 1
 687 656 l 1
 616 391 l 1
 993 564 l 1
 1024 497 l 1
 596 300 l 1
 1024 103 l 1
 993 36 l 1
 572 229 l 1
 550 146 l 1
 644 103 l 1
 613 36 l 1
 530 74 l 1
 491 -73 l 1
 427 -56 l 1
 469 102 l 1
 90 276 l 1
 90 324 l 1
 591 554 l 1
 623 673 l 1
EndSplineSet
EndChar

StartChar: uni226B0338
Encoding: 161 58060 161
Width: 1114
Flags: HW
LayerCount: 2
Fore
SplineSet
577 245 m 1
 548 139 l 1
 898 300 l 1
 625 426 l 1
 603 343 l 1
 644 324 l 1
 644 276 l 1
 577 245 l 1
623 673 m 1
 687 656 l 1
 645 498 l 1
 1024 324 l 1
 1024 276 l 1
 523 46 l 1
 491 -73 l 1
 427 -56 l 1
 498 209 l 1
 121 36 l 1
 90 103 l 1
 518 300 l 1
 90 497 l 1
 121 564 l 1
 542 371 l 1
 564 454 l 1
 470 497 l 1
 501 564 l 1
 584 526 l 1
 623 673 l 1
EndSplineSet
EndChar

StartChar: uni22D80338
Encoding: 162 58061 162
Width: 1494
Flags: HW
LayerCount: 2
Fore
SplineSet
674 264 m 1
 772 381 l 1
 596 300 l 1
 674 264 l 1
1373 564 m 1
 1404 497 l 1
 976 300 l 1
 1404 103 l 1
 1373 36 l 1
 850 276 l 1
 850 324 l 1
 1373 564 l 1
1022 679 m 1
 1073 637 l 1
 1000 550 l 1
 1024 497 l 1
 912 446 l 1
 736 236 l 1
 1024 103 l 1
 993 36 l 1
 687 177 l 1
 630 109 l 1
 644 103 l 1
 613 36 l 1
 581 51 l 1
 472 -79 l 1
 421 -37 l 1
 519 79 l 1
 90 276 l 1
 90 324 l 1
 613 564 l 1
 644 497 l 1
 216 300 l 1
 568 138 l 1
 624 205 l 1
 470 276 l 1
 470 324 l 1
 883 514 l 1
 1022 679 l 1
EndSplineSet
EndChar

StartChar: uni22D90338
Encoding: 163 58062 163
Width: 1494
Flags: HW
LayerCount: 2
Fore
SplineSet
820 336 m 1
 722 219 l 1
 898 300 l 1
 820 336 l 1
121 36 m 1
 90 103 l 1
 518 300 l 1
 90 497 l 1
 121 564 l 1
 644 324 l 1
 644 276 l 1
 121 36 l 1
1022 679 m 1
 1073 637 l 1
 975 521 l 1
 1404 324 l 1
 1404 276 l 1
 881 36 l 1
 850 103 l 1
 1278 300 l 1
 926 462 l 1
 870 395 l 1
 1024 324 l 1
 1024 276 l 1
 611 86 l 1
 472 -79 l 1
 421 -37 l 1
 494 50 l 1
 470 103 l 1
 582 154 l 1
 758 364 l 1
 470 497 l 1
 501 564 l 1
 807 423 l 1
 864 491 l 1
 850 497 l 1
 881 564 l 1
 913 549 l 1
 1022 679 l 1
EndSplineSet
EndChar

StartChar: uni22EA
Encoding: 164 8938 164
Width: 660
Flags: HW
VStem: 496 74<144 456>
LayerCount: 2
Fore
SplineSet
284 257 m 1
 311 357 l 1
 205 300 l 1
 284 257 l 1
496 144 m 1
 496 456 l 1
 391 400 l 1
 344 225 l 1
 496 144 l 1
396 673 m 1
 460 656 l 1
 417 498 l 1
 535 561 l 1
 570 540 l 1
 570 60 l 1
 535 39 l 1
 325 152 l 1
 264 -73 l 1
 200 -56 l 1
 265 184 l 1
 90 278 l 1
 90 322 l 1
 337 455 l 1
 396 673 l 1
EndSplineSet
EndChar

StartChar: uni22EB
Encoding: 165 8939 165
Width: 660
Flags: HW
VStem: 90 74<144 456>
LayerCount: 2
Fore
SplineSet
376 343 m 1
 349 243 l 1
 455 300 l 1
 376 343 l 1
164 456 m 1
 164 144 l 1
 269 200 l 1
 316 375 l 1
 164 456 l 1
396 673 m 1
 460 656 l 1
 395 416 l 1
 570 322 l 1
 570 278 l 1
 323 145 l 1
 264 -73 l 1
 200 -56 l 1
 243 102 l 1
 125 39 l 1
 90 60 l 1
 90 540 l 1
 125 561 l 1
 335 448 l 1
 396 673 l 1
EndSplineSet
EndChar

StartChar: uni22EC
Encoding: 166 8940 166
Width: 660
Flags: HW
HStem: 22 74<90 221 310 570> 689 20G<399.679 469>
VStem: 496 74<255 472 551 552>
LayerCount: 2
Fore
SplineSet
304 332 m 1
 323 402 l 1
 226 363 l 1
 304 332 l 1
496 255 m 1
 496 472 l 1
 400 433 l 1
 366 307 l 1
 496 255 l 1
405 709 m 1
 469 692 l 1
 424 522 l 1
 496 551 l 1
 496 552 l 1
 542 570 l 1
 570 552 l 1
 570 175 l 1
 542 156 l 1
 347 235 l 1
 310 96 l 1
 570 96 l 1
 570 22 l 1
 290 22 l 1
 255 -109 l 1
 191 -92 l 1
 221 22 l 1
 90 22 l 1
 90 96 l 1
 241 96 l 1
 285 260 l 1
 90 338 l 1
 90 388 l 1
 347 491 l 1
 405 709 l 1
EndSplineSet
EndChar

StartChar: uni22ED
Encoding: 167 8941 167
Width: 660
Flags: HW
HStem: 22 74<90 221 310 570> 689 20G<399.696 469>
VStem: 90 74<255 472 551 552>
LayerCount: 2
Fore
SplineSet
386 382 m 1
 375 339 l 1
 434 363 l 1
 386 382 l 1
164 472 m 1
 164 255 l 1
 298 308 l 1
 324 407 l 1
 164 472 l 1
405 709 m 1
 469 692 l 1
 405 454 l 1
 570 388 l 1
 570 338 l 1
 351 250 l 1
 310 96 l 1
 570 96 l 1
 570 22 l 1
 290 22 l 1
 255 -109 l 1
 191 -92 l 1
 221 22 l 1
 90 22 l 1
 90 96 l 1
 241 96 l 1
 274 219 l 1
 118 156 l 1
 90 175 l 1
 90 552 l 1
 118 570 l 1
 164 552 l 1
 164 551 l 1
 344 479 l 1
 405 709 l 1
EndSplineSet
EndChar

StartChar: uni2AA60338
Encoding: 168 -1 168
Width: 717
Flags: HW
VStem: 546 73<182.079 419.057>
LayerCount: 2
Fore
SplineSet
309 244 m 1
 344 375 l 1
 205 300 l 1
 309 244 l 1
505 139 m 0
 532 189 546 245 546 300 c 0
 546 320 543 394 505 461 c 1
 424 418 l 1
 369 212 l 1
 505 139 l 0
424 673 m 1
 488 656 l 1
 450 516 l 1
 535 561 l 1
 553 528 l 1
 570 496 l 2
 602 434 619 367 619 300 c 0
 619 233 602 166 570 104 c 2
 553 72 l 1
 535 39 l 1
 350 139 l 1
 293 -73 l 1
 228 -56 l 1
 289 171 l 1
 90 278 l 1
 90 322 l 1
 370 472 l 1
 424 673 l 1
EndSplineSet
EndChar

StartChar: uni2AA70338
Encoding: 169 -1 169
Width: 717
Flags: HW
VStem: 98 74<179.315 420.685>
LayerCount: 2
Fore
SplineSet
408 356 m 1
 373 226 l 1
 511 300 l 1
 408 356 l 1
212 461 m 1
 185 411 172 355 172 300 c 0
 172 245 185 189 212 139 c 1
 292 182 l 1
 347 388 l 1
 212 461 l 1
424 673 m 1
 488 656 l 1
 427 429 l 1
 627 322 l 1
 627 278 l 1
 347 127 l 1
 293 -73 l 1
 228 -56 l 1
 266 84 l 1
 182 39 l 1
 164 72 l 1
 147 104 l 2
 114 166 98 233 98 300 c 0
 98 367 114 434 147 496 c 2
 164 528 l 1
 182 561 l 1
 367 462 l 1
 424 673 l 1
EndSplineSet
EndChar

StartChar: uni2AA80338
Encoding: 170 -1 170
Width: 698
Flags: HW
HStem: -2 21G<492.345 550.116> 689 20G<418.682 489>
VStem: 516 74<286.113 503.887>
LayerCount: 2
Fore
SplineSet
329 354 m 1
 354 446 l 1
 226 395 l 1
 329 354 l 1
500 285 m 1
 510 321 516 358 516 395 c 0
 516 432 510 469 500 505 c 1
 431 477 l 1
 391 329 l 1
 500 285 l 1
424 709 m 1
 489 692 l 1
 455 567 l 1
 542 602 l 1
 556 568 l 1
 558 564 559 560 561 556 c 2
 570 533 l 1
 569 532 l 1
 583 487 590 441 590 395 c 0
 590 349 583 303 569 258 c 1
 570 257 l 1
 561 234 l 2
 559 230 558 226 556 222 c 1
 542 188 l 1
 372 256 l 1
 346 157 l 1
 570 67 l 1
 542 -2 l 1
 326 85 l 1
 274 -109 l 1
 210 -92 l 1
 264 110 l 1
 90 180 l 1
 118 249 l 1
 283 182 l 1
 310 282 l 1
 90 370 l 1
 90 420 l 1
 378 536 l 1
 424 709 l 1
EndSplineSet
EndChar

StartChar: uni2AA90338
Encoding: 171 -1 171
Width: 698
Flags: HW
HStem: -2 21G<147.884 205.714> 689 20G<418.639 489>
VStem: 109 74<286.113 503.887>
LayerCount: 2
Fore
SplineSet
415 418 m 1
 402 367 l 1
 472 395 l 1
 415 418 l 1
199 505 m 1
 189 469 183 432 183 395 c 0
 183 358 189 321 199 285 c 1
 324 336 l 1
 353 443 l 1
 199 505 l 1
424 709 m 1
 489 692 l 1
 435 490 l 1
 608 420 l 1
 608 370 l 1
 378 277 l 1
 345 154 l 1
 581 249 l 1
 608 180 l 1
 320 64 l 1
 274 -109 l 1
 210 -92 l 1
 243 33 l 1
 156 -2 l 1
 128 67 l 1
 267 123 l 1
 300 246 l 1
 156 188 l 1
 142 222 l 1
 141 225 139 228 138 231 c 2
 128 257 l 1
 130 258 l 1
 116 303 109 349 109 395 c 0
 109 441 116 487 130 532 c 1
 128 533 l 1
 138 559 l 2
 139 562 141 565 142 568 c 1
 156 602 l 1
 372 515 l 1
 424 709 l 1
EndSplineSet
EndChar

StartChar: uni228F0338
Encoding: 172 58884 172
Width: 660
Flags: HW
HStem: 26 74<164 222 311 570> 500 74<164 349 438 570>
VStem: 90 74<100 500>
LayerCount: 2
Fore
SplineSet
164 100 m 1
 242 100 l 1
 349 500 l 1
 164 500 l 1
 164 100 l 1
408 721 m 1
 473 704 l 1
 438 574 l 1
 570 574 l 1
 570 500 l 1
 418 500 l 1
 311 100 l 1
 570 100 l 1
 570 26 l 1
 291 26 l 1
 252 -121 l 1
 187 -104 l 1
 222 26 l 1
 90 26 l 1
 90 574 l 1
 369 574 l 1
 408 721 l 1
EndSplineSet
EndChar

StartChar: uni22900338
Encoding: 173 58901 173
Width: 660
Flags: HW
HStem: 26 74<90 222 311 496> 500 74<90 349 438 496>
VStem: 496 74<100 500>
LayerCount: 2
Fore
SplineSet
496 100 m 1
 496 500 l 1
 418 500 l 1
 311 100 l 1
 496 100 l 1
408 721 m 1
 473 704 l 1
 438 574 l 1
 570 574 l 1
 570 26 l 1
 291 26 l 1
 252 -121 l 1
 187 -104 l 1
 222 26 l 1
 90 26 l 1
 90 100 l 1
 242 100 l 1
 349 500 l 1
 90 500 l 1
 90 574 l 1
 369 574 l 1
 408 721 l 1
EndSplineSet
EndChar

StartChar: uni22E2
Encoding: 174 8930 174
Width: 660
Flags: HW
HStem: -10 74<90 213 301 570> 180 74<164 264 352 570> 536 74<164 359 447 570> 736 20G<412.658 482>
VStem: 90 74<254 536>
LayerCount: 2
Fore
SplineSet
164 254 m 1
 283 254 l 1
 359 536 l 1
 164 536 l 1
 164 254 l 1
418 756 m 1
 482 739 l 1
 447 610 l 1
 570 610 l 1
 570 536 l 1
 428 536 l 1
 352 254 l 1
 570 254 l 1
 570 180 l 1
 332 180 l 1
 301 64 l 1
 570 64 l 1
 570 -10 l 1
 281 -10 l 1
 242 -156 l 1
 178 -139 l 1
 213 -10 l 1
 90 -10 l 1
 90 64 l 1
 232 64 l 1
 264 180 l 1
 90 180 l 1
 90 610 l 1
 379 610 l 1
 418 756 l 1
EndSplineSet
EndChar

StartChar: uni22E3
Encoding: 175 8931 175
Width: 660
Flags: HW
HStem: -10 74<90 213 301 570> 180 74<90 264 352 496> 536 74<90 359 447 496> 736 20G<412.658 482>
VStem: 496 74<254 536>
LayerCount: 2
Fore
SplineSet
496 254 m 1
 496 536 l 1
 428 536 l 1
 352 254 l 1
 496 254 l 1
418 756 m 1
 482 739 l 1
 447 610 l 1
 570 610 l 1
 570 180 l 1
 332 180 l 1
 301 64 l 1
 570 64 l 1
 570 -10 l 1
 281 -10 l 1
 242 -156 l 1
 178 -139 l 1
 213 -10 l 1
 90 -10 l 1
 90 64 l 1
 232 64 l 1
 264 180 l 1
 90 180 l 1
 90 254 l 1
 283 254 l 1
 359 536 l 1
 90 536 l 1
 90 610 l 1
 379 610 l 1
 418 756 l 1
EndSplineSet
EndChar

StartChar: sym021_uni0338
Encoding: 176 -1 176
Width: 660
Flags: HW
HStem: -105 74<90 187 275 570> 85 74<90 238 326 570> 275 74<164 289 377 570> 631 74<164 385 473 570>
VStem: 90 74<349 631>
LayerCount: 2
Fore
SplineSet
164 349 m 1
 309 349 l 1
 385 631 l 1
 164 631 l 1
 164 349 l 1
431 804 m 1
 495 787 l 1
 473 705 l 1
 570 705 l 1
 570 631 l 1
 453 631 l 1
 377 349 l 1
 570 349 l 1
 570 275 l 1
 358 275 l 1
 326 159 l 1
 570 159 l 1
 570 85 l 1
 307 85 l 1
 275 -31 l 1
 570 -31 l 1
 570 -105 l 1
 256 -105 l 1
 229 -204 l 1
 165 -187 l 1
 187 -105 l 1
 90 -105 l 1
 90 -31 l 1
 207 -31 l 1
 238 85 l 1
 90 85 l 1
 90 159 l 1
 258 159 l 1
 289 275 l 1
 90 275 l 1
 90 705 l 1
 404 705 l 1
 431 804 l 1
EndSplineSet
EndChar

StartChar: sym022_uni0338
Encoding: 177 -1 177
Width: 660
Flags: HW
HStem: -105 74<90 187 275 570> 85 74<90 238 326 570> 275 74<90 289 377 496> 631 74<90 385 473 496>
VStem: 496 74<349 631>
LayerCount: 2
Fore
SplineSet
496 349 m 1
 496 631 l 1
 453 631 l 1
 377 349 l 1
 496 349 l 1
431 804 m 1
 495 787 l 1
 473 705 l 1
 570 705 l 1
 570 275 l 1
 358 275 l 1
 326 159 l 1
 570 159 l 1
 570 85 l 1
 307 85 l 1
 275 -31 l 1
 570 -31 l 1
 570 -105 l 1
 256 -105 l 1
 229 -204 l 1
 165 -187 l 1
 187 -105 l 1
 90 -105 l 1
 90 -31 l 1
 207 -31 l 1
 238 85 l 1
 90 85 l 1
 90 159 l 1
 258 159 l 1
 289 275 l 1
 90 275 l 1
 90 349 l 1
 309 349 l 1
 385 631 l 1
 90 631 l 1
 90 705 l 1
 404 705 l 1
 431 804 l 1
EndSplineSet
EndChar

StartChar: sym023_uni0338
Encoding: 178 -1 178
Width: 660
Flags: HW
HStem: 26 74<164 222 311 570> 168 74<349 570> 358 74<307 311 400 570> 500 74<164 349 438 570>
VStem: 90 74<100 500>
LayerCount: 2
Fore
SplineSet
260 168 m 1
 233 168 l 1
 233 432 l 1
 331 432 l 1
 349 500 l 1
 164 500 l 1
 164 100 l 1
 242 100 l 1
 260 168 l 1
307 344 m 1
 311 358 l 1
 307 358 l 1
 307 344 l 1
408 721 m 1
 473 704 l 1
 438 574 l 1
 570 574 l 1
 570 500 l 1
 418 500 l 1
 400 432 l 1
 570 432 l 1
 570 358 l 1
 380 358 l 1
 349 242 l 1
 570 242 l 1
 570 168 l 1
 329 168 l 1
 311 100 l 1
 570 100 l 1
 570 26 l 1
 291 26 l 1
 252 -121 l 1
 187 -104 l 1
 222 26 l 1
 90 26 l 1
 90 574 l 1
 369 574 l 1
 408 721 l 1
EndSplineSet
EndChar

StartChar: sym024_uni0338
Encoding: 179 -1 179
Width: 660
Flags: HW
HStem: 26 74<90 222 311 496> 168 74<90 260 349 354> 358 74<90 311> 500 74<90 349 438 496>
VStem: 496 74<100 500>
LayerCount: 2
Fore
SplineSet
329 168 m 1
 311 100 l 1
 496 100 l 1
 496 500 l 1
 418 500 l 1
 400 432 l 1
 428 432 l 1
 428 168 l 1
 329 168 l 1
354 260 m 1
 349 242 l 1
 354 242 l 1
 354 260 l 1
408 721 m 1
 473 704 l 1
 438 574 l 1
 570 574 l 1
 570 26 l 1
 291 26 l 1
 252 -121 l 1
 187 -104 l 1
 222 26 l 1
 90 26 l 1
 90 100 l 1
 242 100 l 1
 260 168 l 1
 90 168 l 1
 90 242 l 1
 280 242 l 1
 311 358 l 1
 90 358 l 1
 90 432 l 1
 331 432 l 1
 349 500 l 1
 90 500 l 1
 90 574 l 1
 369 574 l 1
 408 721 l 1
EndSplineSet
EndChar

StartChar: notsubset
Encoding: 180 8836 180
Width: 660
Flags: HW
HStem: 26 74<311.219 570> 500 74<249.717 349 438 570>
VStem: 90 74<198.462 399.145>
LayerCount: 2
Fore
SplineSet
248 122 m 1
 349 500 l 1
 322 500 l 2
 226 500 164 404 164 300 c 0
 164 226 196 156 248 122 c 1
408 721 m 1
 473 704 l 1
 438 574 l 1
 570 574 l 1
 570 500 l 1
 418 500 l 1
 311 100 l 1
 315 100 318 100 322 100 c 2
 570 100 l 1
 570 26 l 1
 322 26 l 2
 312 26 302 27 292 28 c 1
 252 -121 l 1
 187 -104 l 1
 228 49 l 1
 144 92 90 192 90 300 c 0
 90 444 185 574 322 574 c 2
 369 574 l 1
 408 721 l 1
EndSplineSet
EndChar

StartChar: uni2285
Encoding: 181 8837 181
Width: 660
Flags: HW
HStem: 26 74<90 222 311 410.283> 500 74<90 348.781>
VStem: 496 74<200.855 401.538>
LayerCount: 2
Fore
SplineSet
412 478 m 1
 311 100 l 1
 338 100 l 2
 434 100 496 196 496 300 c 0
 496 374 464 444 412 478 c 1
408 721 m 1
 473 704 l 1
 432 551 l 1
 516 508 570 408 570 300 c 0
 570 156 475 26 338 26 c 2
 291 26 l 1
 252 -121 l 1
 187 -104 l 1
 222 26 l 1
 90 26 l 1
 90 100 l 1
 242 100 l 1
 349 500 l 1
 345 500 342 500 338 500 c 2
 90 500 l 1
 90 574 l 1
 338 574 l 2
 348 574 358 573 368 572 c 1
 408 721 l 1
EndSplineSet
EndChar

StartChar: uni2288
Encoding: 182 8840 182
Width: 660
Flags: HW
HStem: -10 74<90 213 301 570> 180 74<214.278 264 352 570> 536 74<216.379 359 447 570> 736 20G<412.658 482>
VStem: 90 74<310.609 480.502>
LayerCount: 2
Fore
SplineSet
283 254 m 1
 359 536 l 1
 273 536 l 2
 206 536 164 468 164 395 c 0
 164 322 206 254 273 254 c 2
 283 254 l 1
418 756 m 1
 482 739 l 1
 447 610 l 1
 570 610 l 1
 570 536 l 1
 428 536 l 1
 352 254 l 1
 570 254 l 1
 570 180 l 1
 332 180 l 1
 301 64 l 1
 570 64 l 1
 570 -10 l 1
 281 -10 l 1
 242 -156 l 1
 178 -139 l 1
 213 -10 l 1
 90 -10 l 1
 90 64 l 1
 232 64 l 1
 264 180 l 1
 162 186 90 285 90 395 c 0
 90 508 166 610 273 610 c 2
 379 610 l 1
 418 756 l 1
EndSplineSet
EndChar

StartChar: uni2289
Encoding: 183 8841 183
Width: 660
Flags: HW
HStem: -10 74<90 213 301 570> 180 74<90 264 352 443.621> 536 74<90 359> 736 20G<412.658 482>
VStem: 496 74<309.498 480.361>
LayerCount: 2
Fore
SplineSet
425 528 m 1
 352 254 l 1
 387 254 l 2
 454 254 496 322 496 395 c 0
 496 453 469 508 425 528 c 1
418 756 m 1
 482 739 l 1
 445 599 l 1
 521 570 570 486 570 395 c 0
 570 282 494 180 387 180 c 2
 332 180 l 1
 301 64 l 1
 570 64 l 1
 570 -10 l 1
 281 -10 l 1
 242 -156 l 1
 178 -139 l 1
 213 -10 l 1
 90 -10 l 1
 90 64 l 1
 232 64 l 1
 264 180 l 1
 90 180 l 1
 90 254 l 1
 283 254 l 1
 359 536 l 1
 90 536 l 1
 90 610 l 1
 379 610 l 1
 418 756 l 1
EndSplineSet
EndChar

StartChar: uni2AC50338
Encoding: 184 58030 184
Width: 660
Flags: HW
HStem: -105 74<90 187 275 570> 85 74<90 238 326 570> 275 74<216.379 289 377 570> 631 74<216.379 385 473 570>
VStem: 90 74<404.498 575.502>
LayerCount: 2
Fore
SplineSet
309 349 m 1
 385 631 l 1
 273 631 l 2
 206 631 164 563 164 490 c 0
 164 417 206 349 273 349 c 2
 309 349 l 1
431 804 m 1
 495 787 l 1
 473 705 l 1
 570 705 l 1
 570 631 l 1
 453 631 l 1
 377 349 l 1
 570 349 l 1
 570 275 l 1
 358 275 l 1
 326 159 l 1
 570 159 l 1
 570 85 l 1
 307 85 l 1
 275 -31 l 1
 570 -31 l 1
 570 -105 l 1
 256 -105 l 1
 229 -204 l 1
 165 -187 l 1
 187 -105 l 1
 90 -105 l 1
 90 -31 l 1
 207 -31 l 1
 238 85 l 1
 90 85 l 1
 90 159 l 1
 258 159 l 1
 289 275 l 1
 273 275 l 2
 166 275 90 377 90 490 c 0
 90 603 166 705 273 705 c 2
 404 705 l 1
 431 804 l 1
EndSplineSet
EndChar

StartChar: uni2AC60338
Encoding: 185 58032 185
Width: 660
Flags: HW
HStem: -105 74<90 187 275 570> 85 74<90 238 326 570> 275 74<90 289 377 443.621> 631 74<90 385>
VStem: 496 74<404.498 575.303>
LayerCount: 2
Fore
SplineSet
447 609 m 1
 377 349 l 1
 387 349 l 2
 454 349 496 417 496 490 c 0
 496 538 478 583 447 609 c 1
431 804 m 1
 495 787 l 1
 467 684 l 1
 530 648 570 572 570 490 c 0
 570 377 494 275 387 275 c 2
 358 275 l 1
 326 159 l 1
 570 159 l 1
 570 85 l 1
 307 85 l 1
 275 -31 l 1
 570 -31 l 1
 570 -105 l 1
 256 -105 l 1
 229 -204 l 1
 165 -187 l 1
 187 -105 l 1
 90 -105 l 1
 90 -31 l 1
 207 -31 l 1
 238 85 l 1
 90 85 l 1
 90 159 l 1
 258 159 l 1
 289 275 l 1
 90 275 l 1
 90 349 l 1
 309 349 l 1
 385 631 l 1
 90 631 l 1
 90 705 l 1
 387 705 l 2
 393 705 398 705 404 704 c 1
 431 804 l 1
EndSplineSet
EndChar

StartChar: uni22D00338
Encoding: 186 -1 186
Width: 660
Flags: HW
HStem: 26 74<311.219 570> 168 74<349 570> 358 74<400 570> 500 74<249.717 349 438 570>
VStem: 90 74<198.462 399.145>
LayerCount: 2
Fore
SplineSet
330 431 m 1
 349 500 l 1
 322 500 l 2
 226 500 164 404 164 300 c 0
 164 226 196 156 248 122 c 1
 269 202 l 1
 246 227 233 262 233 300 c 0
 233 365 272 423 330 431 c 1
408 721 m 1
 473 704 l 1
 438 574 l 1
 570 574 l 1
 570 500 l 1
 418 500 l 1
 400 432 l 1
 570 432 l 1
 570 358 l 1
 380 358 l 1
 349 242 l 1
 570 242 l 1
 570 168 l 1
 345 168 l 2
 340 168 335 168 330 169 c 1
 311 100 l 1
 315 100 318 100 322 100 c 2
 570 100 l 1
 570 26 l 1
 322 26 l 2
 312 26 302 27 292 28 c 1
 252 -121 l 1
 187 -104 l 1
 228 49 l 1
 144 92 90 192 90 300 c 0
 90 444 185 574 322 574 c 2
 369 574 l 1
 408 721 l 1
EndSplineSet
EndChar

StartChar: uni22D10338
Encoding: 187 -1 187
Width: 660
Flags: HW
HStem: 26 74<90 222 311 410.283> 168 74<90 260> 358 74<90 311> 500 74<90 348.781>
VStem: 496 74<200.855 401.538>
LayerCount: 2
Fore
SplineSet
330 169 m 1
 311 100 l 1
 338 100 l 2
 434 100 496 196 496 300 c 0
 496 374 464 444 412 478 c 1
 391 398 l 1
 414 373 428 338 428 300 c 0
 428 235 388 177 330 169 c 1
408 721 m 1
 473 704 l 1
 432 551 l 1
 516 508 570 408 570 300 c 0
 570 156 475 26 338 26 c 2
 291 26 l 1
 252 -121 l 1
 187 -104 l 1
 222 26 l 1
 90 26 l 1
 90 100 l 1
 242 100 l 1
 260 168 l 1
 90 168 l 1
 90 242 l 1
 280 242 l 1
 311 358 l 1
 90 358 l 1
 90 432 l 1
 315 432 l 2
 320 432 325 432 330 431 c 1
 349 500 l 1
 345 500 342 500 338 500 c 2
 90 500 l 1
 90 574 l 1
 338 574 l 2
 348 574 358 573 368 572 c 1
 408 721 l 1
EndSplineSet
EndChar

StartChar: uni2280
Encoding: 188 8832 188
Width: 660
Flags: HW
HStem: 263 74<90 245.726>
LayerCount: 2
Fore
SplineSet
396 673 m 1
 460 656 l 1
 406 457 l 1
 445 490 482 526 516 563 c 1
 570 512 l 1
 511 449 447 389 376 343 c 1
 356 269 l 1
 435 222 506 157 570 88 c 1
 516 37 l 1
 461 96 402 154 336 196 c 1
 264 -73 l 1
 200 -56 l 1
 277 229 l 1
 230 251 180 263 127 263 c 2
 90 263 l 1
 90 337 l 1
 127 337 l 2
 198 337 262 359 321 395 c 1
 396 673 l 1
EndSplineSet
EndChar

StartChar: uni2281
Encoding: 189 8833 189
Width: 660
Flags: HW
HStem: 263 74<414.274 570>
LayerCount: 2
Fore
SplineSet
396 673 m 1
 460 656 l 1
 383 371 l 1
 430 349 480 337 533 337 c 2
 570 337 l 1
 570 263 l 1
 533 263 l 2
 462 263 398 241 339 205 c 1
 264 -73 l 1
 200 -56 l 1
 254 143 l 1
 215 110 178 74 144 37 c 1
 90 88 l 1
 149 151 213 211 284 257 c 1
 304 331 l 1
 225 378 154 443 90 512 c 1
 144 563 l 1
 199 504 258 446 324 404 c 1
 396 673 l 1
EndSplineSet
EndChar

StartChar: uni2AAF0338
Encoding: 190 58844 190
Width: 660
Flags: HW
HStem: 22 74<90 221 310 570> 326 74<90 277.059> 689 20G<399.627 469>
LayerCount: 2
Fore
SplineSet
405 709 m 1
 469 692 l 1
 413 481 l 1
 451 505 485 534 516 567 c 1
 570 516 l 1
 517 460 455 415 386 383 c 1
 377 348 l 1
 449 316 515 269 570 210 c 1
 516 160 l 1
 471 209 417 247 358 275 c 1
 310 96 l 1
 570 96 l 1
 570 22 l 1
 290 22 l 1
 255 -109 l 1
 191 -92 l 1
 221 22 l 1
 90 22 l 1
 90 96 l 1
 241 96 l 1
 296 300 l 1
 242 317 185 326 127 326 c 2
 90 326 l 1
 90 400 l 1
 127 400 l 2
 198 400 268 414 333 441 c 1
 405 709 l 1
EndSplineSet
EndChar

StartChar: uni2AB00338
Encoding: 191 58865 191
Width: 660
Flags: HW
HStem: 22 74<90 221 310 570> 326 74<398.064 570> 689 20G<399.686 469>
LayerCount: 2
Fore
SplineSet
405 709 m 1
 469 692 l 1
 396 418 l 1
 440 406 486 400 533 400 c 2
 570 400 l 1
 570 326 l 1
 533 326 l 2
 475 326 418 317 364 300 c 1
 310 96 l 1
 570 96 l 1
 570 22 l 1
 290 22 l 1
 255 -109 l 1
 191 -92 l 1
 221 22 l 1
 90 22 l 1
 90 96 l 1
 241 96 l 1
 287 268 l 1
 234 241 185 205 144 160 c 1
 90 210 l 1
 152 277 229 327 312 359 c 1
 313 366 l 1
 229 398 153 449 90 516 c 1
 144 567 l 1
 197 510 262 466 333 438 c 1
 405 709 l 1
EndSplineSet
EndChar

StartChar: uni22E0
Encoding: 192 8928 192
Width: 660
Flags: HW
HStem: 153 71<91.1562 256> 168 74<90 254.64> 358 74<90 278.32> 689 20G<399.678 469>
LayerCount: 2
Fore
SplineSet
405 709 m 1xb0
 469 692 l 1
 423 520 l 1
 457 542 488 568 516 598 c 1
 570 548 l 1
 520 494 461 450 396 419 c 1
 385 376 l 1
 454 344 517 299 570 242 c 1x70
 516 192 l 1
 473 238 421 276 365 303 c 1
 337 198 l 1
 404 163 465 110 522 54 c 1
 469 4 l 1
 422 51 373 96 318 126 c 1
 255 -109 l 1
 191 -92 l 1
 256 153 l 1xb0
 227 163 197 168 164 168 c 2
 90 168 l 1
 90 242 l 1
 164 242 l 2x70
 203 242 240 236 275 224 c 1
 303 329 l 1
 247 348 188 358 127 358 c 2
 90 358 l 1
 90 432 l 1
 127 432 l 2
 202 432 276 447 343 476 c 1
 405 709 l 1xb0
EndSplineSet
EndChar

StartChar: uni22E1
Encoding: 193 8929 193
Width: 660
Flags: HW
HStem: 168 74<385.847 570> 358 74<405.969 570> 689 20G<399.628 469>
LayerCount: 2
Fore
SplineSet
405 709 m 1
 469 692 l 1
 404 447 l 1
 446 437 489 432 533 432 c 2
 570 432 l 1
 570 358 l 1
 533 358 l 2
 478 358 424 350 373 334 c 1
 339 205 l 1
 388 228 440 242 496 242 c 2
 570 242 l 1
 570 168 l 1
 496 168 l 2
 428 168 368 144 313 108 c 1
 255 -109 l 1
 191 -92 l 1
 226 38 l 1
 214 27 202 16 191 4 c 1
 138 54 l 1
 176 92 216 127 258 157 c 1
 297 304 l 1
 240 276 188 239 144 192 c 1
 90 242 l 1
 199 360 320 392 321 395 c 0
 234 427 154 478 90 548 c 1
 144 598 l 1
 199 539 266 495 340 467 c 1
 405 709 l 1
EndSplineSet
EndChar

StartChar: uni2AB30338
Encoding: 194 -1 194
Width: 660
Flags: HW
HStem: -73 74<90 196 284 570> 117 74<90 247 335 570> 421 74<90 278.426>
LayerCount: 2
Fore
SplineSet
422 772 m 1
 486 755 l 1
 444 598 l 1
 470 617 494 638 516 662 c 1
 570 611 l 1
 525 563 473 523 416 493 c 1
 400 432 l 1
 463 401 521 358 570 305 c 1
 516 255 l 1
 476 298 430 332 380 359 c 1
 335 191 l 1
 570 191 l 1
 570 117 l 1
 315 117 l 1
 284 1 l 1
 570 1 l 1
 570 -73 l 1
 264 -73 l 1
 238 -172 l 1
 174 -155 l 1
 196 -73 l 1
 90 -73 l 1
 90 1 l 1
 216 1 l 1
 247 117 l 1
 90 117 l 1
 90 191 l 1
 267 191 l 1
 319 387 l 1
 258 410 193 421 127 421 c 2
 90 421 l 1
 90 495 l 1
 127 495 l 2
 209 495 289 513 362 548 c 1
 422 772 l 1
EndSplineSet
EndChar

StartChar: uni2AB40338
Encoding: 195 -1 195
Width: 660
Flags: HW
HStem: -73 74<90 196 284 570> 117 74<90 247 335 570> 421 74<421.735 570>
LayerCount: 2
Fore
SplineSet
422 772 m 1
 486 755 l 1
 420 507 l 1
 457 499 495 495 533 495 c 2
 570 495 l 1
 570 421 l 1
 533 421 l 2
 485 421 438 415 392 403 c 1
 335 191 l 1
 570 191 l 1
 570 117 l 1
 315 117 l 1
 284 1 l 1
 570 1 l 1
 570 -73 l 1
 264 -73 l 1
 238 -172 l 1
 174 -155 l 1
 196 -73 l 1
 90 -73 l 1
 90 1 l 1
 216 1 l 1
 247 117 l 1
 90 117 l 1
 90 191 l 1
 267 191 l 1
 316 376 l 1
 251 348 193 308 144 255 c 1
 90 305 l 1
 155 375 234 426 322 458 c 1
 234 490 155 542 90 611 c 1
 144 662 l 1
 203 599 276 553 356 525 c 1
 422 772 l 1
EndSplineSet
EndChar

StartChar: uni227E0338
Encoding: 196 59446 196
Width: 660
Flags: HW
HStem: -10 74<376.279 491.367> 85 74<168.633 238> 358 74<90 278.32> 689 20G<399.678 469>
LayerCount: 2
Fore
SplineSet
438 -10 m 0
 377 -10 333 24 298 52 c 1
 255 -109 l 1
 191 -92 l 1
 238 83 l 1
 233 84 227 85 222 85 c 0
 186 85 159 56 133 31 c 1
 90 74 l 1
 129 113 168 159 222 159 c 0
 234 159 246 158 257 155 c 1
 303 329 l 1
 247 348 188 358 127 358 c 2
 90 358 l 1
 90 432 l 1
 127 432 l 2
 202 432 276 447 343 476 c 1
 405 709 l 1
 469 692 l 1
 423 520 l 1
 457 542 488 568 516 598 c 1
 570 548 l 1
 520 494 461 450 396 419 c 1
 385 376 l 1
 454 344 517 299 570 242 c 1
 516 192 l 1
 473 238 421 276 365 303 c 1
 318 128 l 1
 330 120 343 112 354 103 c 0
 378 82 406 64 438 64 c 0
 474 64 501 93 527 118 c 1
 570 74 l 1
 531 36 492 -10 438 -10 c 0
EndSplineSet
EndChar

StartChar: uni227F0338
Encoding: 197 59447 197
Width: 660
Flags: HW
HStem: -10 74<376.279 491.367> 85 74<168.633 238> 358 74<405.969 570> 689 20G<399.628 469>
LayerCount: 2
Fore
SplineSet
438 -10 m 0
 377 -10 333 24 298 52 c 1
 255 -109 l 1
 191 -92 l 1
 238 83 l 1
 233 84 227 85 222 85 c 0
 186 85 159 56 133 31 c 1
 90 74 l 1
 129 113 168 159 222 159 c 0
 234 159 246 158 257 155 c 1
 297 304 l 1
 240 276 188 239 144 192 c 1
 90 242 l 1
 199 360 320 392 321 395 c 0
 234 427 154 478 90 548 c 1
 144 598 l 1
 199 539 266 495 340 467 c 1
 405 709 l 1
 469 692 l 1
 404 447 l 1
 446 437 489 432 533 432 c 2
 570 432 l 1
 570 358 l 1
 533 358 l 2
 478 358 424 350 373 334 c 1
 318 128 l 1
 330 120 343 112 354 103 c 0
 378 82 406 64 438 64 c 0
 474 64 501 93 527 118 c 1
 570 74 l 1
 531 36 492 -10 438 -10 c 0
EndSplineSet
EndChar

StartChar: uni2AB70338
Encoding: 198 -1 198
Width: 660
Flags: HW
HStem: -105 74<377.679 491.367> 85 74<376.712 491.367> 180 74<168.633 260.401> 453 74<90 278.875> 736 20G<412.62 482>
LayerCount: 2
Fore
SplineSet
346 487 m 1
 348 493 l 1
 345 492 342 491 339 490 c 1
 341 489 344 488 346 487 c 1
296 46 m 1
 358 16 382 -31 438 -31 c 0
 474 -31 501 -2 527 23 c 1
 570 -21 l 1
 531 -59 492 -105 438 -105 c 0
 389 -105 344 -80 306 -49 c 0
 297 -41 286 -33 276 -27 c 1
 242 -156 l 1
 178 -139 l 1
 212 -11 l 1
 181 -16 157 -41 133 -64 c 1
 90 -21 l 1
 129 18 168 64 222 64 c 0
 225 64 229 64 232 64 c 1
 261 171 l 1
 249 177 236 180 222 180 c 0
 186 180 159 151 133 126 c 1
 90 169 l 1
 129 208 168 254 222 254 c 0
 242 254 261 250 280 243 c 1
 327 415 l 1
 264 440 196 453 127 453 c 2
 90 453 l 1
 90 527 l 1
 127 527 l 2
 213 527 297 547 372 585 c 1
 418 756 l 1
 482 739 l 1
 455 637 l 1
 477 654 497 673 516 693 c 1
 570 643 l 1
 528 597 479 560 426 530 c 1
 407 460 l 1
 467 429 523 388 570 337 c 1
 516 287 l 1
 478 327 435 361 388 387 c 1
 340 209 l 1
 345 205 349 202 354 198 c 0
 378 177 406 159 438 159 c 0
 474 159 501 188 527 213 c 1
 570 169 l 1
 531 131 492 85 438 85 c 0
 394 85 354 105 319 131 c 1
 296 46 l 1
EndSplineSet
EndChar

StartChar: uni2AB80338
Encoding: 199 -1 199
Width: 660
Flags: HW
HStem: -105 74<377.679 491.367> 85 74<376.712 491.367> 180 74<168.633 260.401> 453 74<429.594 570> 736 20G<412.653 482>
LayerCount: 2
Fore
SplineSet
296 46 m 1
 358 16 382 -31 438 -31 c 0
 474 -31 501 -2 527 23 c 1
 570 -21 l 1
 531 -59 492 -105 438 -105 c 0
 389 -105 344 -80 306 -49 c 0
 297 -41 286 -33 276 -27 c 1
 242 -156 l 1
 178 -139 l 1
 212 -11 l 1
 181 -16 157 -41 133 -64 c 1
 90 -21 l 1
 129 18 168 64 222 64 c 0
 225 64 229 64 232 64 c 1
 261 171 l 1
 249 177 236 180 222 180 c 0
 186 180 159 151 133 126 c 1
 90 169 l 1
 129 208 168 254 222 254 c 0
 242 254 261 250 280 243 c 1
 326 412 l 1
 258 384 195 342 144 287 c 1
 90 337 l 1
 154 407 234 458 321 490 c 1
 234 522 154 573 90 643 c 1
 144 693 l 1
 205 628 281 581 364 554 c 1
 418 756 l 1
 482 739 l 1
 428 537 l 1
 462 530 497 527 533 527 c 2
 570 527 l 1
 570 453 l 1
 533 453 l 2
 488 453 444 448 401 437 c 1
 340 209 l 1
 345 205 349 202 354 198 c 0
 378 177 406 159 438 159 c 0
 474 159 501 188 527 213 c 1
 570 169 l 1
 531 131 492 85 438 85 c 0
 394 85 354 105 319 131 c 1
 296 46 l 1
EndSplineSet
EndChar

StartChar: uni22D60338
Encoding: 200 -1 200
Width: 660
Flags: HW
HStem: 237 126<472.599 541.401>
VStem: 444 126<265.599 334.401>
LayerCount: 2
Fore
SplineSet
284 257 m 1
 311 357 l 1
 205 300 l 1
 284 257 l 1
507 363 m 0
 525 363 570 318 570 300 c 0
 570 282 525 237 507 237 c 0
 489 237 444 282 444 300 c 0
 444 318 489 363 507 363 c 0
396 673 m 1
 460 656 l 1
 417 498 l 1
 535 561 l 1
 570 496 l 1
 391 400 l 1
 344 225 l 1
 570 104 l 1
 535 39 l 1
 325 152 l 1
 264 -73 l 1
 200 -56 l 1
 265 184 l 1
 90 278 l 1
 90 322 l 1
 337 455 l 1
 396 673 l 1
EndSplineSet
EndChar

StartChar: uni22D70338
Encoding: 201 -1 201
Width: 660
Flags: HW
HStem: 237 126<118.599 187.401>
VStem: 90 126<265.599 334.401>
LayerCount: 2
Fore
SplineSet
376 343 m 1
 349 243 l 1
 455 300 l 1
 376 343 l 1
153 363 m 0
 171 363 216 318 216 300 c 0
 216 282 171 237 153 237 c 0
 135 237 90 282 90 300 c 0
 90 318 135 363 153 363 c 0
396 673 m 1
 460 656 l 1
 395 416 l 1
 570 322 l 1
 570 278 l 1
 323 145 l 1
 264 -73 l 1
 200 -56 l 1
 243 102 l 1
 125 39 l 1
 90 104 l 1
 269 200 l 1
 316 375 l 1
 90 496 l 1
 125 561 l 1
 335 448 l 1
 396 673 l 1
EndSplineSet
EndChar

StartChar: sym025_uni0338
Encoding: 202 -1 202
Width: 660
Flags: HW
HStem: 22 74<90 221 310 570> 300 126<473.9 540.1> 689 20G<399.679 469>
VStem: 444 126<329.169 397.401>
LayerCount: 2
Fore
SplineSet
304 332 m 1
 323 402 l 1
 226 363 l 1
 304 332 l 1
507 426 m 0
 525 426 570 381 570 363 c 0
 570 351 556 337 545 326 c 0
 534 314 520 300 507 300 c 0
 494 300 480 314 469 326 c 0
 458 337 444 351 444 363 c 0
 444 381 489 426 507 426 c 0
405 709 m 1
 469 692 l 1
 424 522 l 1
 542 570 l 1
 570 502 l 1
 400 433 l 1
 366 307 l 1
 570 225 l 1
 542 156 l 1
 347 235 l 1
 310 96 l 1
 570 96 l 1
 570 22 l 1
 290 22 l 1
 255 -109 l 1
 191 -92 l 1
 221 22 l 1
 90 22 l 1
 90 96 l 1
 241 96 l 1
 285 260 l 1
 90 338 l 1
 90 388 l 1
 347 491 l 1
 405 709 l 1
EndSplineSet
EndChar

StartChar: sym026_uni0338
Encoding: 203 -1 203
Width: 660
Flags: HW
HStem: 22 74<90 221 310 570> 300 126<119.9 186.1> 689 20G<399.696 469>
VStem: 90 126<329.169 397.401>
LayerCount: 2
Fore
SplineSet
386 382 m 1
 375 339 l 1
 434 363 l 1
 386 382 l 1
153 426 m 0
 171 426 216 381 216 363 c 0
 216 351 202 337 191 326 c 0
 180 314 166 300 153 300 c 0
 140 300 126 314 115 326 c 0
 104 337 90 351 90 363 c 0
 90 381 135 426 153 426 c 0
405 709 m 1
 469 692 l 1
 405 454 l 1
 570 388 l 1
 570 338 l 1
 351 250 l 1
 310 96 l 1
 570 96 l 1
 570 22 l 1
 290 22 l 1
 255 -109 l 1
 191 -92 l 1
 221 22 l 1
 90 22 l 1
 90 96 l 1
 241 96 l 1
 274 219 l 1
 118 156 l 1
 90 225 l 1
 298 308 l 1
 324 407 l 1
 90 502 l 1
 118 570 l 1
 344 479 l 1
 405 709 l 1
EndSplineSet
EndChar

StartChar: uni2A7F0338
Encoding: 204 -1 204
Width: 660
Flags: HW
HStem: -2 21G<492.426 550.116> 332 126<472.599 541.401> 689 20G<399.615 469>
VStem: 444 126<360.599 429.401>
LayerCount: 2
Fore
SplineSet
312 361 m 1
 333 438 l 1
 226 395 l 1
 312 361 l 1
507 458 m 0
 525 458 570 413 570 395 c 0
 570 377 525 332 507 332 c 0
 489 332 444 377 444 395 c 0
 444 413 489 458 507 458 c 0
405 709 m 1
 469 692 l 1
 433 558 l 1
 542 602 l 1
 570 533 l 1
 409 469 l 1
 374 336 l 1
 570 257 l 1
 542 188 l 1
 355 263 l 1
 328 164 l 1
 570 67 l 1
 542 -2 l 1
 309 92 l 1
 255 -109 l 1
 191 -92 l 1
 247 117 l 1
 90 180 l 1
 118 249 l 1
 266 189 l 1
 293 288 l 1
 90 370 l 1
 90 420 l 1
 356 527 l 1
 405 709 l 1
EndSplineSet
EndChar

StartChar: uni2A800338
Encoding: 205 -1 205
Width: 660
Flags: HW
HStem: -2 21G<109.884 167.545> 332 126<118.599 187.401> 689 20G<399.627 469>
VStem: 90 126<360.599 429.401>
LayerCount: 2
Fore
SplineSet
394 411 m 1
 384 375 l 1
 434 395 l 1
 394 411 l 1
153 458 m 0
 171 458 216 413 216 395 c 0
 216 377 171 332 153 332 c 0
 135 332 90 377 90 395 c 0
 90 413 135 458 153 458 c 0
405 709 m 1
 469 692 l 1
 413 483 l 1
 570 420 l 1
 570 370 l 1
 360 286 l 1
 328 163 l 1
 542 249 l 1
 570 180 l 1
 304 73 l 1
 255 -109 l 1
 191 -92 l 1
 227 42 l 1
 118 -2 l 1
 90 67 l 1
 251 132 l 1
 284 255 l 1
 118 188 l 1
 90 257 l 1
 308 344 l 1
 332 436 l 1
 90 533 l 1
 118 602 l 1
 351 508 l 1
 405 709 l 1
EndSplineSet
EndChar

StartChar: uni2A950338
Encoding: 206 60772 206
Width: 660
Flags: HW
HStem: -2 21G<492.426 550.116> 689 20G<399.615 469>
LayerCount: 2
Fore
SplineSet
266 189 m 1
 276 225 l 1
 226 205 l 1
 266 189 l 1
405 709 m 1
 469 692 l 1
 433 558 l 1
 542 602 l 1
 570 533 l 1
 409 468 l 1
 376 345 l 1
 542 412 l 1
 570 343 l 1
 352 256 l 1
 328 164 l 1
 570 67 l 1
 542 -2 l 1
 309 92 l 1
 255 -109 l 1
 191 -92 l 1
 247 117 l 1
 90 180 l 1
 90 230 l 1
 300 314 l 1
 332 437 l 1
 118 351 l 1
 90 420 l 1
 356 527 l 1
 405 709 l 1
EndSplineSet
EndChar

StartChar: uni2A960338
Encoding: 207 60773 207
Width: 660
Flags: HW
HStem: -2 21G<109.884 167.545> 689 20G<399.627 469>
LayerCount: 2
Fore
SplineSet
348 239 m 1
 327 162 l 1
 434 205 l 1
 348 239 l 1
405 709 m 1
 469 692 l 1
 413 483 l 1
 570 420 l 1
 542 351 l 1
 394 411 l 1
 367 312 l 1
 570 230 l 1
 570 180 l 1
 304 73 l 1
 255 -109 l 1
 191 -92 l 1
 227 42 l 1
 118 -2 l 1
 90 67 l 1
 251 131 l 1
 286 264 l 1
 90 343 l 1
 118 412 l 1
 305 337 l 1
 332 436 l 1
 90 533 l 1
 118 602 l 1
 351 508 l 1
 405 709 l 1
EndSplineSet
EndChar

StartChar: uni22DE0338
Encoding: 208 60796 208
Width: 660
Flags: HW
HStem: 168 74<90 254.031> 358 74<90 274.153> 689 20G<399.654 469>
LayerCount: 2
Fore
SplineSet
405 709 m 1
 469 692 l 1
 434 562 l 1
 446 573 458 584 469 596 c 1
 522 546 l 1
 484 508 444 473 402 443 c 1
 363 296 l 1
 420 324 472 361 516 408 c 1
 570 358 l 1
 461 240 340 208 339 205 c 0
 426 173 506 122 570 52 c 1
 516 2 l 1
 461 61 394 105 320 133 c 1
 255 -109 l 1
 191 -92 l 1
 256 153 l 1
 214 163 171 168 127 168 c 2
 90 168 l 1
 90 242 l 1
 127 242 l 2
 182 242 236 250 287 266 c 1
 321 395 l 1
 272 372 220 358 164 358 c 2
 90 358 l 1
 90 432 l 1
 164 432 l 2
 232 432 292 456 347 492 c 1
 405 709 l 1
EndSplineSet
EndChar

StartChar: uni22DF0338
Encoding: 209 60797 209
Width: 660
Flags: HW
HStem: 168 74<381.68 570> 358 74<405.36 570> 376 71<404 568.844> 689 20G<399.638 469>
LayerCount: 2
Fore
SplineSet
405 709 m 1xd0
 469 692 l 1
 404 447 l 1xb0
 433 437 463 432 496 432 c 2
 570 432 l 1
 570 358 l 1
 496 358 l 2xd0
 457 358 420 364 385 376 c 1xb0
 357 271 l 1
 413 252 472 242 533 242 c 2
 570 242 l 1
 570 168 l 1
 533 168 l 2
 458 168 384 153 317 124 c 1
 255 -109 l 1
 191 -92 l 1
 237 80 l 1
 203 58 172 32 144 2 c 1
 90 52 l 1
 140 106 199 150 264 181 c 1
 275 224 l 1
 206 256 143 301 90 358 c 1
 144 408 l 1
 187 362 239 324 295 297 c 1
 323 402 l 1
 256 437 195 490 138 546 c 1
 191 596 l 1
 238 549 287 504 342 474 c 1
 405 709 l 1xd0
EndSplineSet
EndChar

StartChar: uni2246
Encoding: 210 8774 210
Width: 660
Flags: HW
HStem: 73 74<90 267 355 570> 263 74<90 318 406 570> 405 75<377.409 491.367> 500 74<168.633 281.743>
LayerCount: 2
Fore
SplineSet
438 405 m 0
 335 405 296 500 222 500 c 0
 186 500 159 472 133 446 c 1
 90 490 l 1
 129 529 168 574 222 574 c 0
 327 574 364 480 438 480 c 0
 474 480 501 508 527 534 c 1
 570 490 l 1
 531 451 492 405 438 405 c 0
351 388 m 1
 415 371 l 1
 406 337 l 1
 570 337 l 1
 570 263 l 1
 386 263 l 1
 355 147 l 1
 570 147 l 1
 570 73 l 1
 335 73 l 1
 309 -26 l 1
 245 -9 l 1
 267 73 l 1
 90 73 l 1
 90 147 l 1
 287 147 l 1
 318 263 l 1
 90 263 l 1
 90 337 l 1
 337 337 l 1
 351 388 l 1
EndSplineSet
EndChar

StartChar: sym027
Encoding: 211 -1 211
Width: 660
Flags: HW
HStem: 73 74<90 260 349 570> 263 74<90 311 400 570> 405 75<168.633 282.591> 500 74<378.257 491.367>
LayerCount: 2
Fore
SplineSet
222 480 m 0
 296 480 333 574 438 574 c 0
 492 574 531 529 570 490 c 1
 527 446 l 1
 501 472 474 500 438 500 c 0
 364 500 325 405 222 405 c 0
 168 405 129 451 90 490 c 1
 133 534 l 1
 159 508 186 480 222 480 c 0
357 436 m 1
 422 419 l 1
 400 337 l 1
 570 337 l 1
 570 263 l 1
 380 263 l 1
 349 147 l 1
 570 147 l 1
 570 73 l 1
 329 73 l 1
 303 -26 l 1
 238 -9 l 1
 260 73 l 1
 90 73 l 1
 90 147 l 1
 280 147 l 1
 311 263 l 1
 90 263 l 1
 90 337 l 1
 331 337 l 1
 357 436 l 1
EndSplineSet
EndChar

StartChar: uni2A87
Encoding: 212 10887 212
Width: 660
Flags: HW
HStem: 22 74<90 286 374 570>
LayerCount: 2
Fore
SplineSet
542 570 m 1
 570 502 l 1
 226 363 l 1
 570 225 l 1
 542 156 l 1
 90 338 l 1
 90 388 l 1
 542 570 l 1
332 194 m 1
 396 177 l 1
 374 96 l 1
 570 96 l 1
 570 22 l 1
 355 22 l 1
 328 -77 l 1
 264 -60 l 1
 286 22 l 1
 90 22 l 1
 90 96 l 1
 306 96 l 1
 332 194 l 1
EndSplineSet
EndChar

StartChar: uni2A88
Encoding: 213 10888 213
Width: 660
Flags: HW
HStem: 22 74<90 286 374 570>
LayerCount: 2
Fore
SplineSet
118 156 m 1
 90 225 l 1
 434 363 l 1
 90 502 l 1
 118 570 l 1
 570 388 l 1
 570 338 l 1
 118 156 l 1
332 194 m 1
 396 177 l 1
 374 96 l 1
 570 96 l 1
 570 22 l 1
 355 22 l 1
 328 -77 l 1
 264 -60 l 1
 286 22 l 1
 90 22 l 1
 90 96 l 1
 306 96 l 1
 332 194 l 1
EndSplineSet
EndChar

StartChar: uni2268
Encoding: 214 8808 214
Width: 660
Flags: HW
HStem: -73 74<90 260 349 570> 117 74<90 311 400 570>
LayerCount: 2
Fore
SplineSet
542 665 m 1
 570 597 l 1
 226 458 l 1
 570 320 l 1
 542 251 l 1
 90 433 l 1
 90 483 l 1
 542 665 l 1
357 289 m 1
 422 272 l 1
 400 191 l 1
 570 191 l 1
 570 117 l 1
 380 117 l 1
 349 1 l 1
 570 1 l 1
 570 -73 l 1
 330 -73 l 1
 303 -172 l 1
 238 -155 l 1
 260 -73 l 1
 90 -73 l 1
 90 1 l 1
 280 1 l 1
 311 117 l 1
 90 117 l 1
 90 191 l 1
 331 191 l 1
 357 289 l 1
EndSplineSet
EndChar

StartChar: uni2269
Encoding: 215 8809 215
Width: 660
Flags: HW
HStem: -73 74<90 260 349 570> 117 74<90 311 400 570>
LayerCount: 2
Fore
SplineSet
118 251 m 1
 90 320 l 1
 434 458 l 1
 90 597 l 1
 118 665 l 1
 570 483 l 1
 570 433 l 1
 118 251 l 1
357 289 m 1
 422 272 l 1
 400 191 l 1
 570 191 l 1
 570 117 l 1
 380 117 l 1
 349 1 l 1
 570 1 l 1
 570 -73 l 1
 330 -73 l 1
 303 -172 l 1
 238 -155 l 1
 260 -73 l 1
 90 -73 l 1
 90 1 l 1
 280 1 l 1
 311 117 l 1
 90 117 l 1
 90 191 l 1
 331 191 l 1
 357 289 l 1
EndSplineSet
EndChar

StartChar: uni22E6
Encoding: 216 8934 216
Width: 660
Flags: HW
HStem: -10 74<376.942 491.367> 85 74<168.633 283.058>
LayerCount: 2
Fore
SplineSet
542 602 m 1
 570 533 l 1
 226 395 l 1
 570 257 l 1
 542 188 l 1
 90 370 l 1
 90 420 l 1
 542 602 l 1
332 210 m 1
 396 193 l 1
 369 91 l 1
 390 76 412 64 438 64 c 0
 474 64 501 93 527 118 c 1
 570 74 l 1
 531 36 492 -10 438 -10 c 0
 406 -10 377 0 349 16 c 1
 328 -61 l 1
 264 -44 l 1
 291 58 l 1
 270 73 248 85 222 85 c 0
 186 85 159 56 133 31 c 1
 90 74 l 1
 129 113 168 159 222 159 c 0
 254 159 283 149 311 133 c 1
 332 210 l 1
EndSplineSet
EndChar

StartChar: uni22E7
Encoding: 217 8935 217
Width: 660
Flags: HW
HStem: -10 74<376.942 491.367> 85 74<168.633 283.058>
LayerCount: 2
Fore
SplineSet
118 188 m 1
 90 257 l 1
 434 395 l 1
 90 533 l 1
 118 602 l 1
 570 420 l 1
 570 370 l 1
 118 188 l 1
332 210 m 1
 396 193 l 1
 369 91 l 1
 390 76 412 64 438 64 c 0
 474 64 501 93 527 118 c 1
 570 74 l 1
 531 36 492 -10 438 -10 c 0
 406 -10 377 0 349 16 c 1
 328 -61 l 1
 264 -44 l 1
 291 58 l 1
 270 73 248 85 222 85 c 0
 186 85 159 56 133 31 c 1
 90 74 l 1
 129 113 168 159 222 159 c 0
 254 159 283 149 311 133 c 1
 332 210 l 1
EndSplineSet
EndChar

StartChar: uni2A89
Encoding: 218 10889 218
Width: 660
Flags: HW
HStem: -105 74<378.035 491.367> -10 74<168.633 268.158> 85 74<391.842 491.367> 180 74<168.633 282.388>
LayerCount: 2
Fore
SplineSet
542 697 m 1
 570 628 l 1
 226 490 l 1
 570 352 l 1
 542 283 l 1
 90 465 l 1
 90 515 l 1
 542 697 l 1
312 136 m 1
 278 163 256 180 222 180 c 0
 186 180 159 151 133 126 c 1
 90 169 l 1
 129 208 168 254 222 254 c 0
 262 254 300 237 333 214 c 1
 357 305 l 1
 422 288 l 1
 391 172 l 1
 406 164 421 159 438 159 c 0
 474 159 501 188 527 213 c 1
 570 169 l 1
 531 131 492 85 438 85 c 0
 415 85 393 91 372 100 c 1
 348 13 l 1
 387 -18 404 -31 438 -31 c 0
 474 -31 501 -2 527 23 c 1
 570 -21 l 1
 531 -59 492 -105 438 -105 c 0
 398 -105 360 -88 327 -65 c 1
 303 -156 l 1
 238 -139 l 1
 269 -23 l 1
 254 -15 239 -10 222 -10 c 0
 186 -10 159 -39 133 -64 c 1
 90 -21 l 1
 129 18 168 64 222 64 c 0
 245 64 267 58 288 49 c 1
 312 136 l 1
EndSplineSet
EndChar

StartChar: uni2A8A
Encoding: 219 10890 219
Width: 660
Flags: HW
HStem: -105 74<378.035 491.367> -10 74<168.633 268.158> 85 74<391.842 491.367> 180 74<168.633 282.388>
LayerCount: 2
Fore
SplineSet
118 283 m 1
 90 352 l 1
 434 490 l 1
 90 628 l 1
 118 697 l 1
 570 515 l 1
 570 465 l 1
 118 283 l 1
312 136 m 1
 278 163 256 180 222 180 c 0
 186 180 159 151 133 126 c 1
 90 169 l 1
 129 208 168 254 222 254 c 0
 262 254 300 237 333 214 c 1
 357 305 l 1
 422 288 l 1
 391 172 l 1
 406 164 421 159 438 159 c 0
 474 159 501 188 527 213 c 1
 570 169 l 1
 531 131 492 85 438 85 c 0
 415 85 393 91 372 100 c 1
 348 13 l 1
 387 -18 404 -31 438 -31 c 0
 474 -31 501 -2 527 23 c 1
 570 -21 l 1
 531 -59 492 -105 438 -105 c 0
 398 -105 360 -88 327 -65 c 1
 303 -156 l 1
 238 -139 l 1
 269 -23 l 1
 254 -15 239 -10 222 -10 c 0
 186 -10 159 -39 133 -64 c 1
 90 -21 l 1
 129 18 168 64 222 64 c 0
 245 64 267 58 288 49 c 1
 312 136 l 1
EndSplineSet
EndChar

StartChar: uni22E4
Encoding: 220 8932 220
Width: 660
Flags: HW
HStem: -10 74<90 260 349 570> 180 74<164 311 400 570> 536 74<164 570>
VStem: 90 74<254 536>
LayerCount: 2
Fore
SplineSet
357 353 m 1
 422 335 l 1
 400 254 l 1
 570 254 l 1
 570 180 l 1
 380 180 l 1
 349 64 l 1
 570 64 l 1
 570 -10 l 1
 330 -10 l 1
 303 -109 l 1
 238 -92 l 1
 260 -10 l 1
 90 -10 l 1
 90 64 l 1
 280 64 l 1
 311 180 l 1
 90 180 l 1
 90 610 l 1
 570 610 l 1
 570 536 l 1
 164 536 l 1
 164 254 l 1
 331 254 l 1
 357 353 l 1
EndSplineSet
EndChar

StartChar: uni22E5
Encoding: 221 8933 221
Width: 660
Flags: HW
HStem: -10 74<90 260 349 570> 180 74<90 311 400 496> 536 74<90 496>
VStem: 496 74<254 536>
LayerCount: 2
Fore
SplineSet
357 353 m 1
 422 335 l 1
 400 254 l 1
 496 254 l 1
 496 536 l 1
 90 536 l 1
 90 610 l 1
 570 610 l 1
 570 180 l 1
 380 180 l 1
 349 64 l 1
 570 64 l 1
 570 -10 l 1
 330 -10 l 1
 303 -109 l 1
 238 -92 l 1
 260 -10 l 1
 90 -10 l 1
 90 64 l 1
 280 64 l 1
 311 180 l 1
 90 180 l 1
 90 254 l 1
 331 254 l 1
 357 353 l 1
EndSplineSet
EndChar

StartChar: sym028
Encoding: 222 -1 222
Width: 660
Flags: HW
HStem: -105 74<90 260 349 570> 85 74<90 311 400 570> 275 74<164 570> 631 74<164 570>
VStem: 90 74<349 631>
LayerCount: 2
Fore
SplineSet
164 349 m 1
 570 349 l 1
 570 275 l 1
 90 275 l 1
 90 705 l 1
 570 705 l 1
 570 631 l 1
 164 631 l 1
 164 349 l 1
357 258 m 1
 422 240 l 1
 400 159 l 1
 570 159 l 1
 570 85 l 1
 380 85 l 1
 349 -31 l 1
 570 -31 l 1
 570 -105 l 1
 330 -105 l 1
 303 -204 l 1
 238 -187 l 1
 260 -105 l 1
 90 -105 l 1
 90 -31 l 1
 280 -31 l 1
 311 85 l 1
 90 85 l 1
 90 159 l 1
 331 159 l 1
 357 258 l 1
EndSplineSet
EndChar

StartChar: sym029
Encoding: 223 -1 223
Width: 660
Flags: HW
HStem: -105 74<90 260 349 570> 85 74<90 311 400 570> 275 74<90 496> 631 74<90 496>
VStem: 496 74<349 631>
LayerCount: 2
Fore
SplineSet
496 349 m 1
 496 631 l 1
 90 631 l 1
 90 705 l 1
 570 705 l 1
 570 275 l 1
 90 275 l 1
 90 349 l 1
 496 349 l 1
357 258 m 1
 422 240 l 1
 400 159 l 1
 570 159 l 1
 570 85 l 1
 380 85 l 1
 349 -31 l 1
 570 -31 l 1
 570 -105 l 1
 330 -105 l 1
 303 -204 l 1
 238 -187 l 1
 260 -105 l 1
 90 -105 l 1
 90 -31 l 1
 280 -31 l 1
 311 85 l 1
 90 85 l 1
 90 159 l 1
 331 159 l 1
 357 258 l 1
EndSplineSet
EndChar

StartChar: uni228A
Encoding: 224 8842 224
Width: 660
Flags: HW
HStem: -10 74<90 260 349 570> 180 74<216.379 311 400 570> 536 74<216.379 570>
VStem: 90 74<309.498 480.502>
LayerCount: 2
Fore
SplineSet
357 353 m 1
 422 335 l 1
 400 254 l 1
 570 254 l 1
 570 180 l 1
 380 180 l 1
 349 64 l 1
 570 64 l 1
 570 -10 l 1
 330 -10 l 1
 303 -109 l 1
 238 -92 l 1
 260 -10 l 1
 90 -10 l 1
 90 64 l 1
 280 64 l 1
 311 180 l 1
 273 180 l 2
 166 180 90 282 90 395 c 0
 90 508 166 610 273 610 c 2
 570 610 l 1
 570 536 l 1
 273 536 l 2
 206 536 164 468 164 395 c 0
 164 322 206 254 273 254 c 2
 331 254 l 1
 357 353 l 1
EndSplineSet
EndChar

StartChar: uni228B
Encoding: 225 8843 225
Width: 660
Flags: HW
HStem: -10 74<90 260 349 570> 180 74<90 311 401 443.621> 536 74<90 443.621>
VStem: 496 74<309.426 480.502>
LayerCount: 2
Fore
SplineSet
357 353 m 1
 422 335 l 1
 401 255 l 1
 460 263 496 327 496 395 c 0
 496 468 454 536 387 536 c 2
 90 536 l 1
 90 610 l 1
 387 610 l 2
 494 610 570 508 570 395 c 0
 570 282 494 180 387 180 c 2
 380 180 l 1
 349 64 l 1
 570 64 l 1
 570 -10 l 1
 330 -10 l 1
 303 -109 l 1
 238 -92 l 1
 260 -10 l 1
 90 -10 l 1
 90 64 l 1
 280 64 l 1
 311 180 l 1
 90 180 l 1
 90 254 l 1
 331 254 l 1
 357 353 l 1
EndSplineSet
EndChar

StartChar: uni2ACB
Encoding: 226 10955 226
Width: 660
Flags: HW
HStem: -105 74<90 260 349 570> 85 74<90 311 400 570> 275 74<216.379 570> 631 74<216.379 570>
VStem: 90 74<404.498 575.502>
LayerCount: 2
Fore
SplineSet
570 631 m 1
 273 631 l 2
 206 631 164 563 164 490 c 0
 164 417 206 349 273 349 c 2
 570 349 l 1
 570 275 l 1
 273 275 l 2
 166 275 90 377 90 490 c 0
 90 603 166 705 273 705 c 2
 570 705 l 1
 570 631 l 1
357 258 m 1
 422 240 l 1
 400 159 l 1
 570 159 l 1
 570 85 l 1
 380 85 l 1
 349 -31 l 1
 570 -31 l 1
 570 -105 l 1
 330 -105 l 1
 303 -204 l 1
 238 -187 l 1
 260 -105 l 1
 90 -105 l 1
 90 -31 l 1
 280 -31 l 1
 311 85 l 1
 90 85 l 1
 90 159 l 1
 331 159 l 1
 357 258 l 1
EndSplineSet
EndChar

StartChar: uni2ACC
Encoding: 227 10956 227
Width: 660
Flags: HW
HStem: -105 74<90 260 349 570> 85 74<90 311 400 570> 275 74<90 443.621> 631 74<90 443.621>
VStem: 496 74<404.498 575.502>
LayerCount: 2
Fore
SplineSet
90 349 m 1
 387 349 l 2
 454 349 496 417 496 490 c 0
 496 563 454 631 387 631 c 2
 90 631 l 1
 90 705 l 1
 387 705 l 2
 494 705 570 603 570 490 c 0
 570 377 494 275 387 275 c 2
 90 275 l 1
 90 349 l 1
357 258 m 1
 422 240 l 1
 400 159 l 1
 570 159 l 1
 570 85 l 1
 380 85 l 1
 349 -31 l 1
 570 -31 l 1
 570 -105 l 1
 330 -105 l 1
 303 -204 l 1
 238 -187 l 1
 260 -105 l 1
 90 -105 l 1
 90 -31 l 1
 280 -31 l 1
 311 85 l 1
 90 85 l 1
 90 159 l 1
 331 159 l 1
 357 258 l 1
EndSplineSet
EndChar

StartChar: uni2AB1
Encoding: 228 10929 228
Width: 660
Flags: HW
HStem: 22 74<90 286 374 570> 326 74<90 275.318>
LayerCount: 2
Fore
SplineSet
338 363 m 1
 426 331 505 280 570 210 c 1
 516 160 l 1
 416 268 274 326 127 326 c 2
 90 326 l 1
 90 400 l 1
 127 400 l 2
 274 400 416 459 516 567 c 1
 570 516 l 1
 505 447 426 395 338 363 c 1
332 194 m 1
 396 177 l 1
 374 96 l 1
 570 96 l 1
 570 22 l 1
 355 22 l 1
 328 -77 l 1
 264 -60 l 1
 286 22 l 1
 90 22 l 1
 90 96 l 1
 306 96 l 1
 332 194 l 1
EndSplineSet
EndChar

StartChar: uni2AB2
Encoding: 229 10930 229
Width: 660
Flags: HW
HStem: 22 74<90 286 374 570> 326 74<384.682 570>
LayerCount: 2
Fore
SplineSet
322 363 m 1
 234 395 155 447 90 516 c 1
 144 567 l 1
 244 459 386 400 533 400 c 2
 570 400 l 1
 570 326 l 1
 533 326 l 2
 386 326 244 268 144 160 c 1
 90 210 l 1
 155 280 234 331 322 363 c 1
332 194 m 1
 396 177 l 1
 374 96 l 1
 570 96 l 1
 570 22 l 1
 355 22 l 1
 328 -77 l 1
 264 -60 l 1
 286 22 l 1
 90 22 l 1
 90 96 l 1
 306 96 l 1
 332 194 l 1
EndSplineSet
EndChar

StartChar: uni2AB5
Encoding: 230 10933 230
Width: 660
Flags: HW
HStem: -73 74<90 260 349 570> 117 74<90 311 400 570> 421 74<90 275.318>
LayerCount: 2
Fore
SplineSet
338 458 m 1
 426 426 505 375 570 305 c 1
 516 255 l 1
 416 363 274 421 127 421 c 2
 90 421 l 1
 90 495 l 1
 127 495 l 2
 274 495 416 554 516 662 c 1
 570 611 l 1
 505 542 426 490 338 458 c 1
357 289 m 1
 422 272 l 1
 400 191 l 1
 570 191 l 1
 570 117 l 1
 380 117 l 1
 349 1 l 1
 570 1 l 1
 570 -73 l 1
 330 -73 l 1
 303 -172 l 1
 238 -155 l 1
 260 -73 l 1
 90 -73 l 1
 90 1 l 1
 280 1 l 1
 311 117 l 1
 90 117 l 1
 90 191 l 1
 331 191 l 1
 357 289 l 1
EndSplineSet
EndChar

StartChar: uni2AB6
Encoding: 231 10934 231
Width: 660
Flags: HW
HStem: -73 74<90 260 349 570> 117 74<90 311 400 570> 421 74<384.682 570>
LayerCount: 2
Fore
SplineSet
322 458 m 1
 234 490 155 542 90 611 c 1
 144 662 l 1
 244 554 386 495 533 495 c 2
 570 495 l 1
 570 421 l 1
 533 421 l 2
 386 421 244 363 144 255 c 1
 90 305 l 1
 155 375 234 426 322 458 c 1
357 289 m 1
 422 272 l 1
 400 191 l 1
 570 191 l 1
 570 117 l 1
 380 117 l 1
 349 1 l 1
 570 1 l 1
 570 -73 l 1
 330 -73 l 1
 303 -172 l 1
 238 -155 l 1
 260 -73 l 1
 90 -73 l 1
 90 1 l 1
 280 1 l 1
 311 117 l 1
 90 117 l 1
 90 191 l 1
 331 191 l 1
 357 289 l 1
EndSplineSet
EndChar

StartChar: uni22E8
Encoding: 232 8936 232
Width: 660
Flags: HW
HStem: -10 74<376.942 491.367> 85 74<168.633 283.058> 358 74<90 275.318>
LayerCount: 2
Fore
SplineSet
339 395 m 1
 426 363 506 312 570 242 c 1
 516 192 l 1
 416 299 274 358 127 358 c 2
 90 358 l 1
 90 432 l 1
 127 432 l 2
 274 432 416 491 516 598 c 1
 570 548 l 1
 506 478 426 427 339 395 c 1
332 210 m 1
 396 193 l 1
 369 91 l 1
 390 76 412 64 438 64 c 0
 474 64 501 93 527 118 c 1
 570 74 l 1
 531 36 492 -10 438 -10 c 0
 406 -10 377 0 349 16 c 1
 328 -61 l 1
 264 -44 l 1
 291 58 l 1
 270 73 248 85 222 85 c 0
 186 85 159 56 133 31 c 1
 90 74 l 1
 129 113 168 159 222 159 c 0
 254 159 283 149 311 133 c 1
 332 210 l 1
EndSplineSet
EndChar

StartChar: uni22E9
Encoding: 233 8937 233
Width: 660
Flags: HW
HStem: -10 74<376.942 491.367> 85 74<168.633 283.058> 358 74<384.682 570>
LayerCount: 2
Fore
SplineSet
321 395 m 1
 234 427 154 478 90 548 c 1
 144 598 l 1
 244 491 386 432 533 432 c 2
 570 432 l 1
 570 358 l 1
 533 358 l 2
 386 358 244 299 144 192 c 1
 90 242 l 1
 154 312 234 363 321 395 c 1
332 210 m 1
 396 193 l 1
 369 91 l 1
 390 76 412 64 438 64 c 0
 474 64 501 93 527 118 c 1
 570 74 l 1
 531 36 492 -10 438 -10 c 0
 406 -10 377 0 349 16 c 1
 328 -61 l 1
 264 -44 l 1
 291 58 l 1
 270 73 248 85 222 85 c 0
 186 85 159 56 133 31 c 1
 90 74 l 1
 129 113 168 159 222 159 c 0
 254 159 283 149 311 133 c 1
 332 210 l 1
EndSplineSet
EndChar

StartChar: uni2AB9
Encoding: 234 10937 234
Width: 660
Flags: HW
HStem: -105 74<378.035 491.367> -10 74<168.633 268.158> 85 74<391.842 491.367> 180 74<168.633 282.388> 453 74<90 275.318>
LayerCount: 2
Fore
SplineSet
339 490 m 1
 426 458 506 407 570 337 c 1
 516 287 l 1
 416 394 274 453 127 453 c 2
 90 453 l 1
 90 527 l 1
 127 527 l 2
 274 527 416 586 516 693 c 1
 570 643 l 1
 506 573 426 522 339 490 c 1
312 136 m 1
 278 163 256 180 222 180 c 0
 186 180 159 151 133 126 c 1
 90 169 l 1
 129 208 168 254 222 254 c 0
 262 254 300 237 333 214 c 1
 357 305 l 1
 422 288 l 1
 391 172 l 1
 406 164 421 159 438 159 c 0
 474 159 501 188 527 213 c 1
 570 169 l 1
 531 131 492 85 438 85 c 0
 415 85 393 91 372 100 c 1
 348 13 l 1
 387 -18 404 -31 438 -31 c 0
 474 -31 501 -2 527 23 c 1
 570 -21 l 1
 531 -59 492 -105 438 -105 c 0
 398 -105 360 -88 327 -65 c 1
 303 -156 l 1
 238 -139 l 1
 269 -23 l 1
 254 -15 239 -10 222 -10 c 0
 186 -10 159 -39 133 -64 c 1
 90 -21 l 1
 129 18 168 64 222 64 c 0
 245 64 267 58 288 49 c 1
 312 136 l 1
EndSplineSet
EndChar

StartChar: uni2ABA
Encoding: 235 10938 235
Width: 660
Flags: HW
HStem: -105 74<378.035 491.367> -10 74<168.633 268.158> 85 74<391.842 491.367> 180 74<168.633 282.388> 453 74<384.682 570>
LayerCount: 2
Fore
SplineSet
321 490 m 1
 234 522 154 573 90 643 c 1
 144 693 l 1
 244 586 386 527 533 527 c 2
 570 527 l 1
 570 453 l 1
 533 453 l 2
 386 453 244 394 144 287 c 1
 90 337 l 1
 154 407 234 458 321 490 c 1
312 136 m 1
 278 163 256 180 222 180 c 0
 186 180 159 151 133 126 c 1
 90 169 l 1
 129 208 168 254 222 254 c 0
 262 254 300 237 333 214 c 1
 357 305 l 1
 422 288 l 1
 391 172 l 1
 406 164 421 159 438 159 c 0
 474 159 501 188 527 213 c 1
 570 169 l 1
 531 131 492 85 438 85 c 0
 415 85 393 91 372 100 c 1
 348 13 l 1
 387 -18 404 -31 438 -31 c 0
 474 -31 501 -2 527 23 c 1
 570 -21 l 1
 531 -59 492 -105 438 -105 c 0
 398 -105 360 -88 327 -65 c 1
 303 -156 l 1
 238 -139 l 1
 269 -23 l 1
 254 -15 239 -10 222 -10 c 0
 186 -10 159 -39 133 -64 c 1
 90 -21 l 1
 129 18 168 64 222 64 c 0
 245 64 267 58 288 49 c 1
 312 136 l 1
EndSplineSet
EndChar
